<svg width="603" height="411" viewBox="0 0 603 411" fill="none" xmlns="http://www.w3.org/2000/svg">
<path d="M285.862 329.463L285.349 410.214C252.659 409.919 220.612 401.07 192.399 384.541C164.043 367.929 140.559 344.145 124.308 315.58C108.057 287.014 99.6115 254.675 99.8202 221.811C100.028 189.114 108.795 157.045 125.245 128.793L194.922 169.613C185.637 185.634 180.689 203.802 180.571 222.324C180.453 241.013 185.255 259.404 194.497 275.648C203.739 291.892 217.094 305.418 233.219 314.865C249.201 324.228 267.346 329.258 285.862 329.463Z" fill="#0288D1" stroke="#EEEEEE"/>
<path d="M1.4575 286.04H5.8095C6.95083 286.04 7.80417 286.365 8.3695 287.016C8.93483 287.656 9.2175 288.584 9.2175 289.8C9.2175 291.187 8.88683 292.152 8.2255 292.696C7.57483 293.229 6.6575 293.496 5.4735 293.496H4.3215V299H1.4575V286.04ZM5.2815 291.496C5.78284 291.496 6.1135 291.363 6.2735 291.096C6.44417 290.829 6.5295 290.381 6.5295 289.752C6.5295 289.176 6.4495 288.749 6.2895 288.472C6.1295 288.195 5.78817 288.056 5.2655 288.056H4.3215V291.496H5.2815ZM12.4765 286.04H15.7405L18.1565 299H15.5165L15.0845 296.264H13.1805L12.7325 299H10.0285L12.4765 286.04ZM14.8125 294.552L14.1245 289.496L13.4365 294.552H14.8125ZM23.081 299.24C21.7903 299.24 20.873 298.888 20.329 298.184C19.785 297.48 19.513 296.477 19.513 295.176V294.712H22.201V295.208C22.201 295.859 22.265 296.317 22.393 296.584C22.5317 296.851 22.777 296.984 23.129 296.984C23.4703 296.984 23.6997 296.851 23.817 296.584C23.945 296.317 24.009 295.88 24.009 295.272C24.009 294.579 23.9023 294.077 23.689 293.768C23.4863 293.448 23.097 293.283 22.521 293.272C22.489 293.261 22.249 293.256 21.801 293.256V291.512H22.457C23.0543 291.501 23.4597 291.341 23.673 291.032C23.897 290.723 24.009 290.221 24.009 289.528C24.009 289.016 23.929 288.632 23.769 288.376C23.609 288.109 23.353 287.976 23.001 287.976C22.6703 287.976 22.4303 288.109 22.281 288.376C22.1423 288.643 22.0677 289.027 22.057 289.528V290.248H19.369V289.464C19.369 288.312 19.6943 287.421 20.345 286.792C21.0063 286.163 21.897 285.848 23.017 285.848C24.1583 285.848 25.0437 286.147 25.673 286.744C26.313 287.341 26.633 288.211 26.633 289.352C26.633 290.088 26.4837 290.717 26.185 291.24C25.8863 291.763 25.5077 292.088 25.049 292.216C25.5503 292.408 25.9397 292.739 26.217 293.208C26.4943 293.667 26.633 294.328 26.633 295.192C26.633 296.461 26.3503 297.453 25.785 298.168C25.2197 298.883 24.3183 299.24 23.081 299.24ZM28.5269 286.04H32.8789C34.0202 286.04 34.8735 286.365 35.4389 287.016C36.0042 287.656 36.2869 288.584 36.2869 289.8C36.2869 291.187 35.9562 292.152 35.2949 292.696C34.6442 293.229 33.7269 293.496 32.5429 293.496H31.3909V299H28.5269V286.04ZM32.3509 291.496C32.8522 291.496 33.1829 291.363 33.3429 291.096C33.5135 290.829 33.5989 290.381 33.5989 289.752C33.5989 289.176 33.5189 288.749 33.3589 288.472C33.1989 288.195 32.8575 288.056 32.3349 288.056H31.3909V291.496H32.3509ZM39.5459 286.04H42.8099L45.2259 299H42.5859L42.1539 296.264H40.2499L39.8019 299H37.0979L39.5459 286.04ZM41.8819 294.552L41.1939 289.496L40.5059 294.552H41.8819ZM46.9024 286.04H53.3344V288.216H49.7664V291.512H50.3744C52.9344 291.512 54.2144 292.76 54.2144 295.256C54.2144 296.259 54.0384 297.037 53.6864 297.592C53.345 298.136 52.8757 298.509 52.2784 298.712C51.6917 298.904 50.9717 299 50.1184 299H46.9024V286.04ZM50.1344 297.128C50.6464 297.128 51.009 296.989 51.2224 296.712C51.4464 296.424 51.5584 295.971 51.5584 295.352C51.5584 294.755 51.457 294.296 51.2544 293.976C51.0517 293.656 50.6677 293.496 50.1024 293.496H49.7664V297.128H50.1344ZM59.7457 299.192C58.3484 299.192 57.3511 298.835 56.7537 298.12C56.1564 297.395 55.8577 296.328 55.8577 294.92V290.104C55.8577 288.696 56.1564 287.64 56.7537 286.936C57.3511 286.221 58.3484 285.864 59.7457 285.864C61.1537 285.864 62.1564 286.221 62.7537 286.936C63.3617 287.651 63.6657 288.707 63.6657 290.104V294.92C63.6657 296.328 63.3617 297.395 62.7537 298.12C62.1564 298.835 61.1537 299.192 59.7457 299.192ZM59.7457 297.16C60.1511 297.16 60.4177 297.027 60.5457 296.76C60.6737 296.483 60.7377 296.109 60.7377 295.64V289.4C60.7377 288.92 60.6737 288.547 60.5457 288.28C60.4177 288.013 60.1511 287.88 59.7457 287.88C59.3617 287.88 59.1057 288.019 58.9777 288.296C58.8497 288.563 58.7857 288.931 58.7857 289.4V295.64C58.7857 296.109 58.8444 296.483 58.9617 296.76C59.0791 297.027 59.3404 297.16 59.7457 297.16ZM66.8968 288.168H64.9448V286.04H71.7128V288.168H69.7768V299H66.8968V288.168ZM73.2217 286.04H76.0857V291.176H76.3737L78.2777 286.04H81.1257L78.7577 292.12L81.2057 299H78.2617L76.3737 293.352H76.0857V299H73.2217V286.04ZM84.474 286.04H87.738L90.154 299H87.514L87.082 296.264H85.178L84.73 299H82.026L84.474 286.04ZM86.81 294.552L86.122 289.496L85.434 294.552H86.81Z" fill="#333333"/>
<mask id="path-3-inside-1" fill="white">
<path d="M188.907 314.778L184.423 298.339V274.65C184.421 273.974 184.151 273.327 183.673 272.849C183.194 272.371 182.546 272.102 181.87 272.1H174.39L171.224 268.929C171.075 268.781 170.875 268.694 170.664 268.685C170.453 268.675 170.247 268.744 170.084 268.878L167.702 270.816L167.404 267.765C167.38 267.556 167.28 267.362 167.123 267.221C166.967 267.081 166.764 267.002 166.553 267H161.447C161.236 267.002 161.033 267.081 160.877 267.221C160.72 267.362 160.62 267.556 160.596 267.765L160.298 270.816L157.916 268.878C157.753 268.744 157.547 268.675 157.336 268.685C157.125 268.694 156.925 268.781 156.776 268.929L153.61 272.1H146.13C145.454 272.102 144.806 272.371 144.327 272.849C143.849 273.327 143.579 273.974 143.577 274.65V298.339L139.093 314.778C138.988 315.157 138.972 315.554 139.046 315.939C139.12 316.325 139.283 316.688 139.521 317C139.759 317.312 140.067 317.565 140.419 317.738C140.771 317.912 141.159 318.001 141.552 318H186.448C186.841 318.001 187.229 317.912 187.581 317.738C187.933 317.565 188.241 317.312 188.479 317C188.717 316.688 188.88 316.325 188.954 315.939C189.028 315.554 189.012 315.157 188.907 314.778ZM157.439 270.68L160.443 273.137C160.563 273.233 160.707 273.296 160.86 273.318C161.012 273.341 161.168 273.322 161.311 273.264C161.453 273.204 161.576 273.107 161.668 272.983C161.759 272.859 161.815 272.712 161.83 272.559L162.213 268.7H165.787L166.17 272.559C166.185 272.712 166.241 272.859 166.332 272.983C166.424 273.107 166.547 273.204 166.689 273.264C166.832 273.322 166.988 273.341 167.14 273.318C167.293 273.296 167.437 273.233 167.557 273.137L170.561 270.68L173.08 273.196L170.62 276.197C170.524 276.317 170.461 276.461 170.439 276.613C170.416 276.766 170.435 276.921 170.493 277.064C170.553 277.206 170.65 277.329 170.774 277.42C170.899 277.512 171.045 277.568 171.199 277.582L175.062 277.965V281.535L171.199 281.917C171.045 281.932 170.899 281.988 170.774 282.08C170.65 282.171 170.553 282.294 170.493 282.436C170.435 282.579 170.416 282.734 170.439 282.887C170.461 283.039 170.524 283.183 170.62 283.303L173.08 286.303L170.561 288.819L167.557 286.363C167.437 286.267 167.293 286.204 167.14 286.182C166.988 286.159 166.832 286.178 166.689 286.235C166.547 286.296 166.424 286.393 166.332 286.517C166.241 286.641 166.185 286.788 166.17 286.941L165.787 290.8H162.213L161.83 286.941C161.815 286.788 161.759 286.641 161.668 286.517C161.576 286.393 161.453 286.296 161.311 286.235C161.168 286.178 161.012 286.159 160.86 286.182C160.707 286.204 160.563 286.267 160.443 286.363L157.439 288.819L154.92 286.303L157.38 283.303C157.476 283.183 157.539 283.039 157.561 282.887C157.584 282.734 157.565 282.579 157.507 282.436C157.447 282.294 157.35 282.171 157.226 282.08C157.101 281.988 156.955 281.932 156.801 281.917L152.938 281.535V277.965L156.801 277.582C156.955 277.568 157.101 277.512 157.226 277.42C157.35 277.329 157.447 277.206 157.507 277.064C157.565 276.921 157.584 276.766 157.561 276.613C157.539 276.461 157.476 276.317 157.38 276.197L154.92 273.196L157.439 270.68ZM145.279 274.65C145.279 274.425 145.369 274.208 145.529 274.049C145.688 273.89 145.905 273.8 146.13 273.8H153.21L155.057 276.052L152.002 276.35C151.792 276.374 151.599 276.473 151.458 276.63C151.317 276.787 151.238 276.989 151.236 277.2V282.3C151.238 282.511 151.317 282.713 151.458 282.87C151.599 283.027 151.792 283.126 152.002 283.15L155.057 283.447L153.116 285.827C152.982 285.99 152.913 286.196 152.922 286.407C152.932 286.617 153.019 286.817 153.168 286.966L156.776 290.57C156.925 290.719 157.125 290.806 157.336 290.815C157.547 290.825 157.753 290.756 157.916 290.621L160.298 288.683L160.596 291.735C160.62 291.944 160.72 292.138 160.877 292.279C161.033 292.419 161.236 292.498 161.447 292.5H166.553C166.764 292.498 166.967 292.419 167.123 292.279C167.28 292.138 167.38 291.944 167.404 291.735L167.702 288.683L170.084 290.621C170.247 290.756 170.453 290.825 170.664 290.815C170.875 290.806 171.075 290.719 171.224 290.57L174.832 286.966C174.981 286.817 175.068 286.617 175.078 286.407C175.087 286.196 175.018 285.99 174.884 285.827L172.943 283.447L175.998 283.15C176.208 283.126 176.401 283.027 176.542 282.87C176.683 282.713 176.762 282.511 176.764 282.3V277.2C176.762 276.989 176.683 276.787 176.542 276.63C176.401 276.473 176.208 276.374 175.998 276.35L172.943 276.052L174.79 273.8H181.87C182.095 273.8 182.312 273.89 182.471 274.049C182.631 274.208 182.721 274.425 182.721 274.65V297.6H145.279V274.65ZM187.129 315.968C187.049 316.073 186.946 316.157 186.828 316.215C186.709 316.273 186.579 316.302 186.448 316.3H141.552C141.421 316.302 141.291 316.273 141.172 316.215C141.054 316.157 140.951 316.073 140.871 315.968C140.792 315.863 140.738 315.741 140.713 315.611C140.687 315.482 140.692 315.348 140.727 315.22L145.075 299.3H182.925L187.273 315.22C187.308 315.348 187.313 315.482 187.287 315.611C187.262 315.741 187.208 315.863 187.129 315.968Z"/>
</mask>
<path d="M188.907 314.778L184.423 298.339V274.65C184.421 273.974 184.151 273.327 183.673 272.849C183.194 272.371 182.546 272.102 181.87 272.1H174.39L171.224 268.929C171.075 268.781 170.875 268.694 170.664 268.685C170.453 268.675 170.247 268.744 170.084 268.878L167.702 270.816L167.404 267.765C167.38 267.556 167.28 267.362 167.123 267.221C166.967 267.081 166.764 267.002 166.553 267H161.447C161.236 267.002 161.033 267.081 160.877 267.221C160.72 267.362 160.62 267.556 160.596 267.765L160.298 270.816L157.916 268.878C157.753 268.744 157.547 268.675 157.336 268.685C157.125 268.694 156.925 268.781 156.776 268.929L153.61 272.1H146.13C145.454 272.102 144.806 272.371 144.327 272.849C143.849 273.327 143.579 273.974 143.577 274.65V298.339L139.093 314.778C138.988 315.157 138.972 315.554 139.046 315.939C139.12 316.325 139.283 316.688 139.521 317C139.759 317.312 140.067 317.565 140.419 317.738C140.771 317.912 141.159 318.001 141.552 318H186.448C186.841 318.001 187.229 317.912 187.581 317.738C187.933 317.565 188.241 317.312 188.479 317C188.717 316.688 188.88 316.325 188.954 315.939C189.028 315.554 189.012 315.157 188.907 314.778ZM157.439 270.68L160.443 273.137C160.563 273.233 160.707 273.296 160.86 273.318C161.012 273.341 161.168 273.322 161.311 273.264C161.453 273.204 161.576 273.107 161.668 272.983C161.759 272.859 161.815 272.712 161.83 272.559L162.213 268.7H165.787L166.17 272.559C166.185 272.712 166.241 272.859 166.332 272.983C166.424 273.107 166.547 273.204 166.689 273.264C166.832 273.322 166.988 273.341 167.14 273.318C167.293 273.296 167.437 273.233 167.557 273.137L170.561 270.68L173.08 273.196L170.62 276.197C170.524 276.317 170.461 276.461 170.439 276.613C170.416 276.766 170.435 276.921 170.493 277.064C170.553 277.206 170.65 277.329 170.774 277.42C170.899 277.512 171.045 277.568 171.199 277.582L175.062 277.965V281.535L171.199 281.917C171.045 281.932 170.899 281.988 170.774 282.08C170.65 282.171 170.553 282.294 170.493 282.436C170.435 282.579 170.416 282.734 170.439 282.887C170.461 283.039 170.524 283.183 170.62 283.303L173.08 286.303L170.561 288.819L167.557 286.363C167.437 286.267 167.293 286.204 167.14 286.182C166.988 286.159 166.832 286.178 166.689 286.235C166.547 286.296 166.424 286.393 166.332 286.517C166.241 286.641 166.185 286.788 166.17 286.941L165.787 290.8H162.213L161.83 286.941C161.815 286.788 161.759 286.641 161.668 286.517C161.576 286.393 161.453 286.296 161.311 286.235C161.168 286.178 161.012 286.159 160.86 286.182C160.707 286.204 160.563 286.267 160.443 286.363L157.439 288.819L154.92 286.303L157.38 283.303C157.476 283.183 157.539 283.039 157.561 282.887C157.584 282.734 157.565 282.579 157.507 282.436C157.447 282.294 157.35 282.171 157.226 282.08C157.101 281.988 156.955 281.932 156.801 281.917L152.938 281.535V277.965L156.801 277.582C156.955 277.568 157.101 277.512 157.226 277.42C157.35 277.329 157.447 277.206 157.507 277.064C157.565 276.921 157.584 276.766 157.561 276.613C157.539 276.461 157.476 276.317 157.38 276.197L154.92 273.196L157.439 270.68ZM145.279 274.65C145.279 274.425 145.369 274.208 145.529 274.049C145.688 273.89 145.905 273.8 146.13 273.8H153.21L155.057 276.052L152.002 276.35C151.792 276.374 151.599 276.473 151.458 276.63C151.317 276.787 151.238 276.989 151.236 277.2V282.3C151.238 282.511 151.317 282.713 151.458 282.87C151.599 283.027 151.792 283.126 152.002 283.15L155.057 283.447L153.116 285.827C152.982 285.99 152.913 286.196 152.922 286.407C152.932 286.617 153.019 286.817 153.168 286.966L156.776 290.57C156.925 290.719 157.125 290.806 157.336 290.815C157.547 290.825 157.753 290.756 157.916 290.621L160.298 288.683L160.596 291.735C160.62 291.944 160.72 292.138 160.877 292.279C161.033 292.419 161.236 292.498 161.447 292.5H166.553C166.764 292.498 166.967 292.419 167.123 292.279C167.28 292.138 167.38 291.944 167.404 291.735L167.702 288.683L170.084 290.621C170.247 290.756 170.453 290.825 170.664 290.815C170.875 290.806 171.075 290.719 171.224 290.57L174.832 286.966C174.981 286.817 175.068 286.617 175.078 286.407C175.087 286.196 175.018 285.99 174.884 285.827L172.943 283.447L175.998 283.15C176.208 283.126 176.401 283.027 176.542 282.87C176.683 282.713 176.762 282.511 176.764 282.3V277.2C176.762 276.989 176.683 276.787 176.542 276.63C176.401 276.473 176.208 276.374 175.998 276.35L172.943 276.052L174.79 273.8H181.87C182.095 273.8 182.312 273.89 182.471 274.049C182.631 274.208 182.721 274.425 182.721 274.65V297.6H145.279V274.65ZM187.129 315.968C187.049 316.073 186.946 316.157 186.828 316.215C186.709 316.273 186.579 316.302 186.448 316.3H141.552C141.421 316.302 141.291 316.273 141.172 316.215C141.054 316.157 140.951 316.073 140.871 315.968C140.792 315.863 140.738 315.741 140.713 315.611C140.687 315.482 140.692 315.348 140.727 315.22L145.075 299.3H182.925L187.273 315.22C187.308 315.348 187.313 315.482 187.287 315.611C187.262 315.741 187.208 315.863 187.129 315.968Z" fill="white" stroke="#0288D1" stroke-width="0.8" mask="url(#path-3-inside-1)"/>
<path d="M155.71 313.592L155.71 313.592C155.686 313.688 155.684 313.788 155.704 313.884M155.71 313.592L155.704 313.884M155.71 313.592L156.561 310.192C156.596 310.051 156.677 309.927 156.792 309.837C156.906 309.748 157.047 309.7 157.192 309.7C157.192 309.7 157.192 309.7 157.192 309.7H170.807C170.952 309.7 171.093 309.748 171.208 309.837C171.322 309.927 171.403 310.051 171.439 310.192L172.289 313.592L172.289 313.592M155.71 313.592L172.289 313.592M155.704 313.884C155.725 313.981 155.767 314.072 155.828 314.15C155.889 314.227 155.967 314.29 156.056 314.334C156.145 314.377 156.242 314.4 156.341 314.4H171.658C171.757 314.4 171.855 314.377 171.944 314.334C172.033 314.29 172.11 314.227 172.171 314.15C172.232 314.072 172.274 313.981 172.295 313.884C172.315 313.788 172.313 313.688 172.289 313.592M155.704 313.884L172.289 313.592M157.237 312.851L157.175 313.1H157.431H170.568H170.824L170.762 312.851L170.337 311.151L170.299 311H170.143H157.857H157.701L157.663 311.151L157.237 312.851Z" fill="white" stroke="#0288D1" stroke-width="0.4"/>
<path d="M159.945 294.4H168.055V295.7H159.945V294.4Z" fill="white" stroke="#0288D1" stroke-width="0.4"/>
<path d="M147.181 301.2H150.185V302.5H147.181V301.2Z" fill="white" stroke="#0288D1" stroke-width="0.4"/>
<path d="M152.287 301.2H155.291V302.5H152.287V301.2Z" fill="white" stroke="#0288D1" stroke-width="0.4"/>
<path d="M157.392 301.2H160.396V302.5H157.392V301.2Z" fill="white" stroke="#0288D1" stroke-width="0.4"/>
<path d="M167.604 301.2H170.608V302.5H167.604V301.2Z" fill="white" stroke="#0288D1" stroke-width="0.4"/>
<path d="M172.71 301.2H175.714V302.5H172.71V301.2Z" fill="white" stroke="#0288D1" stroke-width="0.4"/>
<path d="M177.815 301.2H180.818V302.5H177.815V301.2Z" fill="white" stroke="#0288D1" stroke-width="0.4"/>
<path d="M162.498 301.2H165.502V302.5H162.498V301.2Z" fill="white" stroke="#0288D1" stroke-width="0.4"/>
<path d="M147.181 304.6H150.185V305.9H147.181V304.6Z" fill="white" stroke="#0288D1" stroke-width="0.4"/>
<path d="M152.287 304.6H155.291V305.9H152.287V304.6Z" fill="white" stroke="#0288D1" stroke-width="0.4"/>
<path d="M157.392 304.6H160.396V305.9H157.392V304.6Z" fill="white" stroke="#0288D1" stroke-width="0.4"/>
<path d="M167.604 304.6H170.608V305.9H167.604V304.6Z" fill="white" stroke="#0288D1" stroke-width="0.4"/>
<path d="M172.71 304.6H175.714V305.9H172.71V304.6Z" fill="white" stroke="#0288D1" stroke-width="0.4"/>
<path d="M177.815 304.6H180.818V305.9H177.815V304.6Z" fill="white" stroke="#0288D1" stroke-width="0.4"/>
<path d="M162.498 304.6H165.502V305.9H162.498V304.6Z" fill="white" stroke="#0288D1" stroke-width="0.4"/>
<path d="M166.726 283.824C165.919 284.362 164.971 284.65 164.001 284.65C162.7 284.649 161.453 284.132 160.533 283.213C159.614 282.294 159.096 281.049 159.095 279.75C159.095 278.781 159.383 277.833 159.922 277.028C160.461 276.222 161.227 275.594 162.123 275.223C163.02 274.852 164.006 274.755 164.958 274.944C165.909 275.133 166.783 275.6 167.47 276.285C168.156 276.97 168.623 277.844 168.812 278.794C169.001 279.744 168.904 280.73 168.533 281.625C168.162 282.52 167.533 283.286 166.726 283.824ZM166.003 276.757C165.41 276.361 164.713 276.15 164.001 276.15C163.045 276.15 162.128 276.529 161.452 277.204C160.777 277.879 160.397 278.795 160.397 279.75C160.397 280.462 160.608 281.158 161.004 281.75C161.4 282.342 161.963 282.803 162.622 283.076C163.28 283.348 164.005 283.42 164.704 283.281C165.403 283.142 166.045 282.799 166.549 282.296C167.053 281.792 167.396 281.151 167.535 280.452C167.674 279.754 167.603 279.03 167.33 278.372C167.057 277.714 166.595 277.152 166.003 276.757Z" fill="white" stroke="#0288D1" stroke-width="0.4"/>
<path d="M380.216 170.776L450.4 130.835C466.494 159.291 474.857 191.468 474.654 224.165C474.45 257.028 465.598 289.259 448.989 317.618C432.381 345.976 408.6 369.463 380.037 385.718C351.619 401.891 319.463 410.337 286.772 410.221L287.274 329.469C305.791 329.497 323.998 324.696 340.096 315.534C356.339 306.291 369.863 292.934 379.308 276.807C388.753 260.68 393.787 242.351 393.903 223.662C394.018 205.14 389.299 186.912 380.216 170.776Z" fill="#039BE5" stroke="#EEEEEE"/>
<path d="M493.96 274.04H498.312C499.453 274.04 500.307 274.365 500.872 275.016C501.437 275.656 501.72 276.584 501.72 277.8C501.72 279.187 501.389 280.152 500.728 280.696C500.077 281.229 499.16 281.496 497.976 281.496H496.824V287H493.96V274.04ZM497.784 279.496C498.285 279.496 498.616 279.363 498.776 279.096C498.947 278.829 499.032 278.381 499.032 277.752C499.032 277.176 498.952 276.749 498.792 276.472C498.632 276.195 498.291 276.056 497.768 276.056H496.824V279.496H497.784ZM503.421 274.04H509.245V275.992H506.285V279.208H508.541V281.192H506.285V285.064H509.277V287H503.421V274.04ZM510.945 274.04H513.809V279.176H514.097L516.001 274.04H518.849L516.481 280.12L518.929 287H515.985L514.097 281.352H513.809V287H510.945V274.04ZM519.525 284.984C520.133 284.995 520.549 284.915 520.773 284.744C520.997 284.573 521.152 284.221 521.237 283.688C521.333 283.144 521.44 282.077 521.557 280.488L521.605 279.832L522.021 274.04H528.885V287H526.037V276.232H524.613L524.357 280.376C524.218 282.371 524.069 283.779 523.909 284.6C523.749 285.411 523.408 286.019 522.885 286.424C522.373 286.819 521.525 287.016 520.341 287.016C519.989 287.016 519.717 287.011 519.525 287V284.984ZM533.017 274.04H536.281L538.697 287H536.057L535.625 284.264H533.721L533.273 287H530.569L533.017 274.04ZM535.353 282.552L534.665 277.496L533.977 282.552H535.353ZM540.502 274.04H543.574L544.998 281.576L546.534 274.04H549.494L549.718 287H547.686L547.446 278.376L545.942 287H544.134L542.534 278.312L542.342 287H540.278L540.502 274.04ZM551.959 274.04H554.823V279.288H556.823V274.04H559.703V287H556.823V281.336H554.823V287H551.959V274.04ZM562.045 274.04H564.909V279.512H565.549C568.098 279.512 569.373 280.76 569.373 283.256C569.373 284.259 569.197 285.037 568.845 285.592C568.504 286.136 568.04 286.509 567.453 286.712C566.866 286.904 566.146 287 565.293 287H562.045V274.04ZM570.461 274.04H573.325V287H570.461V274.04ZM565.309 285.128C565.81 285.128 566.173 284.984 566.397 284.696C566.621 284.408 566.733 283.955 566.733 283.336C566.733 282.749 566.632 282.296 566.429 281.976C566.226 281.656 565.842 281.496 565.277 281.496H564.909V285.128H565.309ZM575.662 274.04H577.918V281.464L581.23 274.04H583.086V287H580.782V279.448L577.406 287H575.662V274.04ZM579.582 273C578.814 273 578.2 272.787 577.742 272.36C577.294 271.923 577.07 271.304 577.07 270.504H578.542C578.542 270.909 578.622 271.208 578.782 271.4C578.942 271.581 579.208 271.672 579.582 271.672C579.944 271.672 580.206 271.576 580.366 271.384C580.536 271.192 580.622 270.899 580.622 270.504H582.094C582.094 271.293 581.864 271.907 581.406 272.344C580.958 272.781 580.35 273 579.582 273ZM494.008 298.04H500.44V300.216H496.872V303.512H497.48C500.04 303.512 501.32 304.76 501.32 307.256C501.32 308.259 501.144 309.037 500.792 309.592C500.451 310.136 499.981 310.509 499.384 310.712C498.797 310.904 498.077 311 497.224 311H494.008V298.04ZM497.24 309.128C497.752 309.128 498.115 308.989 498.328 308.712C498.552 308.424 498.664 307.971 498.664 307.352C498.664 306.755 498.563 306.296 498.36 305.976C498.157 305.656 497.773 305.496 497.208 305.496H496.872V309.128H497.24ZM511.011 311.192C509.699 311.192 508.771 310.813 508.227 310.056C507.694 309.299 507.427 308.2 507.427 306.76V305.496H506.019V311H503.187V298.04H506.019V303.384H507.427V302.264C507.427 300.835 507.694 299.747 508.227 299C508.771 298.243 509.699 297.864 511.011 297.864C512.313 297.864 513.235 298.243 513.779 299C514.323 299.747 514.595 300.835 514.595 302.264V306.76C514.595 308.189 514.323 309.288 513.779 310.056C513.235 310.813 512.313 311.192 511.011 311.192ZM511.011 309.16C511.395 309.16 511.641 309.027 511.747 308.76C511.865 308.483 511.923 308.109 511.923 307.64V301.4C511.923 300.92 511.865 300.547 511.747 300.28C511.641 300.013 511.395 299.88 511.011 299.88C510.627 299.88 510.377 300.013 510.259 300.28C510.153 300.547 510.099 300.92 510.099 301.4V307.64C510.099 308.109 510.153 308.483 510.259 308.76C510.377 309.027 510.627 309.16 511.011 309.16ZM515.99 308.952H516.358C516.998 308.749 517.505 308.163 517.878 307.192C518.252 306.221 518.513 304.68 518.662 302.568L519.014 298.04H525.047V308.952H526.502V313.8H524.615L524.47 311H518.118L517.958 313.8H515.99V308.952ZM522.374 308.952V300.072H521.174L521.03 302.856C520.945 304.285 520.801 305.405 520.598 306.216C520.406 307.016 520.193 307.592 519.958 307.944C519.724 308.296 519.425 308.632 519.062 308.952H522.374ZM529.932 304.488L527.276 298.04H529.948L532.204 304.104H532.332V298.04H534.604V304.104H534.748L537.004 298.04H539.676L537.02 304.488L539.74 311H537.18L534.748 304.712H534.604V311H532.332V304.712H532.204L529.772 311H527.212L529.932 304.488ZM541.115 298.04H546.939V299.992H543.979V303.208H546.235V305.192H543.979V309.064H546.971V311H541.115V298.04ZM549.759 300.168H547.807V298.04H554.575V300.168H552.639V311H549.759V300.168Z" fill="#333333"/>
<path d="M573.069 306.273C572.905 306.288 572.741 306.251 572.6 306.167C572.497 306.061 572.447 305.914 572.465 305.767C572.469 305.645 572.484 305.523 572.509 305.404C572.533 305.266 572.565 305.13 572.603 304.996L573.033 303.52C573.077 303.374 573.106 303.224 573.12 303.073C573.12 302.909 573.142 302.796 573.142 302.731C573.151 302.439 573.026 302.159 572.803 301.971C572.529 301.76 572.188 301.657 571.843 301.68C571.596 301.684 571.351 301.724 571.116 301.8C570.859 301.88 570.589 301.976 570.305 302.087L570.182 302.567C570.265 302.538 570.367 302.505 570.483 302.469C570.594 302.436 570.71 302.419 570.825 302.418C570.988 302.4 571.151 302.44 571.287 302.531C571.379 302.641 571.423 302.784 571.407 302.927C571.407 303.049 571.393 303.171 571.367 303.291C571.342 303.418 571.309 303.553 571.269 303.694L570.836 305.178C570.801 305.316 570.773 305.456 570.753 305.596C570.736 305.717 570.727 305.838 570.727 305.96C570.725 306.254 570.86 306.531 571.091 306.713C571.369 306.926 571.715 307.032 572.065 307.011C572.312 307.016 572.558 306.98 572.793 306.905C572.999 306.835 573.274 306.734 573.618 306.603L573.734 306.145C573.641 306.184 573.545 306.216 573.447 306.24C573.323 306.268 573.196 306.279 573.069 306.273Z" fill="#333333"/>
<path d="M573.524 299.273C573.326 299.091 573.065 298.993 572.796 299C572.528 298.994 572.267 299.091 572.069 299.273C571.706 299.586 571.665 300.135 571.979 300.498C572.006 300.531 572.037 300.561 572.069 300.589C572.483 300.959 573.11 300.959 573.524 300.589C573.887 300.272 573.925 299.721 573.609 299.358C573.582 299.327 573.554 299.299 573.524 299.273Z" fill="#333333"/>
<path d="M572 295C567.582 295 564 298.582 564 303C564 307.418 567.582 311 572 311C576.418 311 580 307.418 580 303C580 298.582 576.418 295 572 295ZM572 310.273C567.983 310.273 564.727 307.017 564.727 303C564.727 298.983 567.983 295.727 572 295.727C576.017 295.727 579.273 298.983 579.273 303C579.273 307.017 576.017 310.273 572 310.273Z" fill="#333333"/>
<path d="M433.432 286.412H440.268C440.589 286.412 440.85 286.672 440.85 286.994C440.85 287.316 440.589 287.577 440.268 287.577H433.432C433.11 287.577 432.849 287.316 432.849 286.994C432.849 286.672 433.11 286.412 433.432 286.412Z" fill="white" stroke="#039BE5" stroke-width="0.3"/>
<path d="M432.236 282.788L432.236 282.788C431.985 282.949 431.801 282.972 431.683 282.943C431.57 282.916 431.488 282.832 431.45 282.705C431.37 282.442 431.491 282.003 431.959 281.721L431.965 281.718L431.972 281.713L436.366 278.429L436.366 278.429C436.623 278.237 436.988 278.29 437.181 278.547C437.371 278.802 437.322 279.16 437.073 279.355C437.063 279.36 437.054 279.366 437.048 279.369L437.048 279.369C437.032 279.379 437.013 279.391 436.992 279.405C436.948 279.434 436.889 279.474 436.817 279.523C436.674 279.621 436.478 279.758 436.248 279.92C435.788 280.244 435.188 280.671 434.593 281.097C433.999 281.522 433.409 281.945 432.967 282.262L432.435 282.645L432.286 282.752L432.246 282.781L432.236 282.788Z" fill="white" stroke="#039BE5" stroke-width="0.3"/>
<path d="M436.276 295.679C436.597 295.92 437.058 295.857 437.301 295.531C437.543 295.207 437.477 294.748 437.153 294.506L432.759 291.222C432.435 290.98 431.976 291.046 431.734 291.37C431.492 291.694 431.558 292.153 431.882 292.395L436.276 295.679ZM436.366 295.559L431.972 292.275C431.972 292.275 431.972 292.275 431.972 292.275C431.714 292.083 431.661 291.718 431.854 291.46L431.854 291.46C432.046 291.202 432.411 291.15 432.669 291.342L432.669 291.342L437.063 294.626L437.063 294.626C437.321 294.818 437.373 295.183 437.181 295.441L437.181 295.441C436.987 295.7 436.621 295.75 436.366 295.559L436.366 295.559Z" fill="white" stroke="#039BE5" stroke-width="0.3"/>
<path d="M430.108 300.631V300.759L430.234 300.779C432.047 301.07 433.379 302.372 433.379 303.889C433.379 304.21 433.119 304.471 432.797 304.471C432.475 304.471 432.214 304.21 432.214 303.889C432.214 302.976 431.358 302.229 430.292 301.978L430.108 301.934V302.124V305.807V305.934L430.234 305.955C432.047 306.246 433.379 307.548 433.379 309.064C433.379 310.581 432.047 311.883 430.234 312.174L430.108 312.194V312.322V313.459C430.108 313.781 429.847 314.041 429.525 314.041C429.204 314.041 428.943 313.781 428.943 313.459V312.337V312.206L428.814 312.188C426.953 311.928 425.574 310.607 425.574 309.064C425.574 308.743 425.835 308.482 426.156 308.482C426.478 308.482 426.739 308.743 426.739 309.064C426.739 310.006 427.648 310.77 428.763 310.998L428.943 311.034V310.851V307.161V307.03L428.814 307.012C426.953 306.752 425.574 305.431 425.574 303.889C425.574 302.346 426.953 301.025 428.814 300.765L428.943 300.747V300.617V299.494C428.943 299.172 429.204 298.912 429.525 298.912C429.847 298.912 430.108 299.172 430.108 299.494V300.631ZM428.943 302.102V301.919L428.763 301.955C427.648 302.183 426.739 302.947 426.739 303.889C426.739 304.83 427.648 305.594 428.763 305.822L428.943 305.859V305.675V302.102ZM430.108 310.829V311.019L430.292 310.975C431.358 310.724 432.214 309.977 432.214 309.064C432.214 308.152 431.358 307.405 430.292 307.153L430.108 307.11V307.299V310.829Z" fill="white" stroke="#039BE5" stroke-width="0.3"/>
<path d="M419.189 303.15L419.267 303.022C419.264 303.02 419.262 303.018 419.259 303.017C419.258 303.016 419.257 303.016 419.256 303.015L419.254 303.014L414.043 299.796L411.221 298.053L411.217 298.05L411.217 298.05L402.834 292.872L402.798 292.85H402.755H401.742H401.592V293V294.957C401.592 297.678 402.025 300.369 402.88 302.953L402.879 302.953L402.881 302.957C403.342 304.223 402.287 305.683 400.94 305.643L400.94 305.643H400.936H396.615C396.293 305.643 396.033 305.382 396.033 305.061V302.668V299.348V292.877V292.755L395.913 292.73C393.199 292.177 391.15 289.771 391.15 286.896C391.15 283.614 393.821 280.943 397.104 280.943H402.755H402.798L402.834 280.921L418.939 270.973L419 270.935L419.009 270.865C419.209 269.335 420.521 268.15 422.103 268.15C423.824 268.15 425.225 269.55 425.225 271.271V280.838V280.971L425.357 280.987C426.634 281.14 427.824 281.698 428.764 282.601C428.876 282.718 428.98 282.83 429.078 282.94C429.804 283.76 430.157 284.448 430.487 285.785L430.509 285.877C430.567 286.211 430.596 286.554 430.596 286.896C430.596 289.937 428.304 292.451 425.357 292.806L425.225 292.821V292.954V296.654V296.88L425.433 296.793C426.678 296.271 428.044 295.982 429.477 295.982C435.263 295.982 439.971 300.69 439.971 306.477C439.971 312.263 435.263 316.971 429.477 316.971C423.69 316.971 418.982 312.263 418.982 306.477C418.982 305.357 419.159 304.278 419.485 303.265L419.531 303.122L419.387 303.076C419.37 303.071 419.353 303.064 419.335 303.056L419.333 303.056L419.326 303.052C419.326 303.052 419.326 303.052 419.326 303.052C419.326 303.052 419.326 303.052 419.326 303.052C419.306 303.043 419.286 303.033 419.267 303.021L419.189 303.15ZM419.189 303.15C419.214 303.164 419.239 303.178 419.265 303.189L411.139 298.178L411.143 298.18L413.964 299.923L419.179 303.145M419.189 303.15C419.188 303.149 419.186 303.148 419.184 303.147L419.179 303.145M419.179 303.145L419.258 303.017L419.257 303.016L419.179 303.145ZM419.251 303.013C419.25 303.012 419.25 303.012 419.251 303.013L419.251 303.013ZM425.225 291.477V291.653L425.399 291.625C427.681 291.261 429.431 289.28 429.431 286.896C429.431 286.621 429.408 286.345 429.361 286.076C429.36 286.065 429.359 286.054 429.358 286.043C429.356 286.024 429.354 286.005 429.352 285.987C429.288 285.432 429.18 284.995 428.962 284.593C428.745 284.193 428.426 283.839 427.956 283.44C427.245 282.758 426.356 282.32 425.398 282.168L425.225 282.141V282.316V291.477ZM397.348 292.85H397.198V293V299.348V302.668V304.328V304.478H397.348H400.934C401.522 304.494 401.973 303.87 401.773 303.317C400.88 300.615 400.427 297.802 400.427 294.957V293V292.85H400.277H397.348ZM407.94 294.573V294.657L408.011 294.701L411.83 297.059L414.655 298.805L414.734 298.677L414.655 298.805L418.753 301.336L418.982 301.477V301.208V272.585V272.316L418.753 272.457L408.011 279.092L407.94 279.136V279.22V294.573ZM402.23 291.685H402.38V291.535V282.258V282.108H402.23H397.104C394.463 282.108 392.315 284.256 392.315 286.896C392.315 289.537 394.463 291.685 397.104 291.685H402.23ZM403.545 291.859V291.943L403.616 291.987L406.546 293.796L406.775 293.938V293.669V280.124V279.855L406.546 279.997L403.616 281.806L403.545 281.85V281.934V291.859ZM420.147 301.094V301.644L420.426 301.17C421.299 299.687 422.525 298.436 423.989 297.535L424.06 297.491V297.407V271.271C424.06 270.192 423.183 269.315 422.104 269.315C421.024 269.315 420.147 270.192 420.147 271.271V301.094ZM420.147 306.477C420.147 311.621 424.332 315.806 429.477 315.806C434.621 315.806 438.806 311.621 438.806 306.477C438.806 301.332 434.621 297.147 429.477 297.147C424.332 297.147 420.147 301.332 420.147 306.477Z" fill="white" stroke="#039BE5" stroke-width="0.3"/>
<path d="M195.397 168.731L125.731 127.899C142.337 99.7388 166.029 76.4152 194.453 60.2521C223.021 44.0067 255.362 35.5674 288.226 35.7826C321.089 35.9977 353.317 44.8597 381.67 61.4778C409.88 78.0116 433.264 101.643 449.5 130.018L379.306 169.935C370.077 153.881 356.819 140.51 340.839 131.143C324.714 121.693 306.387 116.653 287.697 116.53C269.008 116.408 250.616 121.207 234.369 130.446C218.267 139.603 204.835 152.8 195.397 168.731Z" fill="#0277BD" stroke="#EEEEEE"/>
<path d="M201.96 6.04H207.784V7.992H204.824V11.208H207.08V13.192H204.824V17.064H207.816V19H201.96V6.04ZM211.292 12.488L208.636 6.04H211.308L213.564 12.104H213.692V6.04H215.964V12.104H216.108L218.364 6.04H221.036L218.38 12.488L221.1 19H218.54L216.108 12.712H215.964V19H213.692V12.712H213.564L211.132 19H208.572L211.292 12.488ZM222.475 6.04H228.299V7.992H225.339V11.208H227.595V13.192H225.339V17.064H228.331V19H222.475V6.04ZM230.127 6.04H233.199L234.623 13.576L236.159 6.04H239.119L239.343 19H237.311L237.071 10.376L235.567 19H233.759L232.159 10.312L231.967 19H229.903L230.127 6.04ZM241.537 6.04H247.361V7.992H244.401V11.208H246.657V13.192H244.401V17.064H247.393V19H241.537V6.04ZM252.725 19.192C251.317 19.192 250.314 18.824 249.717 18.088C249.13 17.3413 248.837 16.2693 248.837 14.872V10.2C248.837 8.77067 249.13 7.69333 249.717 6.968C250.304 6.232 251.306 5.864 252.725 5.864C254.08 5.864 255.04 6.18933 255.605 6.84C256.17 7.49067 256.453 8.41333 256.453 9.608V10.728H253.653V9.432C253.653 8.93067 253.6 8.54667 253.493 8.28C253.386 8.01333 253.13 7.88 252.725 7.88C252.32 7.88 252.053 8.024 251.925 8.312C251.797 8.58933 251.733 8.97867 251.733 9.48V15.576C251.733 16.088 251.797 16.4827 251.925 16.76C252.064 17.0267 252.33 17.16 252.725 17.16C253.12 17.16 253.37 17.0267 253.477 16.76C253.594 16.4827 253.653 16.088 253.653 15.576V14.216H256.453V15.336C256.453 16.552 256.17 17.5013 255.605 18.184C255.04 18.856 254.08 19.192 252.725 19.192ZM260.013 13.24C259.501 12.9307 259.09 12.488 258.781 11.912C258.482 11.3253 258.333 10.6587 258.333 9.912C258.333 8.48267 258.695 7.48 259.421 6.904C260.157 6.328 261.261 6.04 262.733 6.04H266.061V19H263.213V13.88H262.701H262.525L260.637 19H257.549L260.013 13.24ZM263.213 11.864V8.008H262.765C261.591 8.008 261.005 8.648 261.005 9.928C261.005 11.2187 261.602 11.864 262.797 11.864H263.213ZM273.284 13.672C272.751 13.7467 272.228 13.784 271.716 13.784C271.076 13.784 270.484 13.6613 269.94 13.416C269.396 13.1707 268.953 12.8133 268.612 12.344C268.281 11.8747 268.116 11.3147 268.116 10.664V6.04H270.98V10.648C270.98 10.9573 271.012 11.208 271.076 11.4C271.14 11.592 271.284 11.7467 271.508 11.864C271.732 11.9707 272.068 12.024 272.516 12.024C272.772 12.024 273.028 12.0027 273.284 11.96V6.04H276.148V19H273.284V13.672ZM278.49 6.04H281.354V11.288H283.354V6.04H286.234V19H283.354V13.336H281.354V19H278.49V6.04ZM292.239 19.192C290.842 19.192 289.845 18.8347 289.247 18.12C288.65 17.3947 288.351 16.328 288.351 14.92V10.104C288.351 8.696 288.65 7.64 289.247 6.936C289.845 6.22133 290.842 5.864 292.239 5.864C293.647 5.864 294.65 6.22133 295.247 6.936C295.855 7.65067 296.159 8.70667 296.159 10.104V14.92C296.159 16.328 295.855 17.3947 295.247 18.12C294.65 18.8347 293.647 19.192 292.239 19.192ZM292.239 17.16C292.645 17.16 292.911 17.0267 293.039 16.76C293.167 16.4827 293.231 16.1093 293.231 15.64V9.4C293.231 8.92 293.167 8.54667 293.039 8.28C292.911 8.01333 292.645 7.88 292.239 7.88C291.855 7.88 291.599 8.01867 291.471 8.296C291.343 8.56267 291.279 8.93067 291.279 9.4V15.64C291.279 16.1093 291.338 16.4827 291.455 16.76C291.573 17.0267 291.834 17.16 292.239 17.16ZM298.222 6.04H304.046V7.992H301.086V11.208H303.342V13.192H301.086V17.064H304.078V19H298.222V6.04ZM310.112 6.04H313.488C314.331 6.04 315.046 6.13067 315.632 6.312C316.23 6.48267 316.71 6.81867 317.072 7.32C317.435 7.82133 317.616 8.52533 317.616 9.432C317.616 10.2 317.451 10.7973 317.12 11.224C316.79 11.6507 316.32 11.9227 315.712 12.04C316.459 12.136 317.03 12.4507 317.424 12.984C317.819 13.5173 318.016 14.2427 318.016 15.16C318.016 17.72 316.71 19 314.096 19H310.112V6.04ZM313.536 11.224C314.144 11.224 314.555 11.0853 314.768 10.808C314.992 10.5307 315.104 10.0987 315.104 9.512C315.104 9 314.966 8.616 314.688 8.36C314.411 8.09333 314.006 7.96 313.472 7.96H312.976V11.224H313.536ZM313.584 17C314.192 17 314.619 16.8507 314.864 16.552C315.12 16.2427 315.248 15.7627 315.248 15.112C315.248 14.376 315.12 13.8587 314.864 13.56C314.619 13.2613 314.187 13.112 313.568 13.112H312.976V17H313.584ZM319.839 6.04H325.663V7.992H322.703V11.208H324.959V13.192H322.703V17.064H325.695V19H319.839V6.04ZM326.643 16.952H327.011C327.651 16.7493 328.158 16.1627 328.531 15.192C328.904 14.2213 329.166 12.68 329.315 10.568L329.667 6.04H335.699V16.952H337.155V21.8H335.267L335.123 19H328.771L328.611 21.8H326.643V16.952ZM333.027 16.952V8.072H331.827L331.683 10.856C331.598 12.2853 331.454 13.4053 331.251 14.216C331.059 15.016 330.846 15.592 330.611 15.944C330.376 16.296 330.078 16.632 329.715 16.952H333.027ZM338.729 6.04H344.553V7.992H341.593V11.208H343.849V13.192H341.593V17.064H344.585V19H338.729V6.04ZM346.253 6.04H349.117V11.288H351.117V6.04H353.997V19H351.117V13.336H349.117V19H346.253V6.04ZM356.339 6.04H358.595V13.464L361.907 6.04H363.763V19H361.459V11.448L358.083 19H356.339V6.04ZM366.048 6.04H371.872V7.992H368.912V11.208H371.168V13.192H368.912V17.064H371.904V19H366.048V6.04Z" fill="#333333"/>
<path d="M307.058 55.7046H304.579V53.0221C304.579 52.2071 304.265 51.4516 303.696 50.8913C303.127 50.3141 302.372 50 301.557 50C299.893 50 298.535 51.3582 298.535 53.0221V55.7046H289.961V53.0221C289.961 52.2071 289.647 51.4516 289.078 50.8913C288.509 50.3141 287.754 50 286.939 50C285.275 50 283.917 51.3582 283.917 53.0221V55.7046H275.343V53.0221C275.343 52.2071 275.029 51.4516 274.46 50.8913C273.891 50.3141 273.136 50 272.321 50C270.657 50 269.299 51.3582 269.299 53.0221V55.7046H266.82C264.715 55.7046 263 57.4194 263 59.5331V96.18C263 98.2852 264.715 100 266.82 100H307.058C309.163 100 310.878 98.2852 310.878 96.18V59.5331C310.878 57.4194 309.163 55.7046 307.058 55.7046ZM299.384 55.7046V53.0221C299.384 51.8251 300.36 50.8489 301.557 50.8489C302.143 50.8489 302.686 51.0781 303.093 51.4941C303.501 51.9015 303.73 52.4448 303.73 53.0221V55.7046V59.236C303.73 60.4329 302.754 61.4092 301.557 61.4092C300.36 61.4092 299.384 60.4329 299.384 59.236V55.7046ZM284.766 55.7046V53.0221C284.766 51.8251 285.742 50.8489 286.939 50.8489C287.525 50.8489 288.068 51.0781 288.475 51.4941C288.883 51.9015 289.112 52.4448 289.112 53.0221V55.7046V59.236C289.112 60.4329 288.136 61.4092 286.939 61.4092C285.742 61.4092 284.766 60.4329 284.766 59.236V55.7046ZM270.148 55.7046V53.0221C270.148 51.8251 271.124 50.8489 272.321 50.8489C272.907 50.8489 273.45 51.0781 273.857 51.4941C274.265 51.893 274.494 52.4448 274.494 53.0221V55.7046V59.236C274.494 60.4329 273.518 61.4092 272.321 61.4092C271.124 61.4092 270.148 60.4329 270.148 59.236V55.7046ZM310.029 96.18C310.029 97.8183 308.696 99.1511 307.058 99.1511H266.82C265.182 99.1511 263.849 97.8183 263.849 96.18V66.0272H310.029V96.18ZM310.029 65.1783H263.849V59.5331C263.849 57.8862 265.182 56.5535 266.82 56.5535H269.299V59.236C269.299 60.8998 270.657 62.2581 272.321 62.2581C273.985 62.2581 275.343 60.8998 275.343 59.236V56.5535H283.917V59.236C283.917 60.8998 285.275 62.2581 286.939 62.2581C288.603 62.2581 289.961 60.8998 289.961 59.236V56.5535H298.535V59.236C298.535 60.8998 299.893 62.2581 301.557 62.2581C303.221 62.2581 304.579 60.8998 304.579 59.236V56.5535H307.058C308.696 56.5535 310.029 57.8862 310.029 59.5331V65.1783Z" fill="white"/>
<path d="M269.876 76.8675H273.459C274.707 76.8675 275.725 75.8489 275.725 74.601V70.8913C275.725 69.6434 274.707 68.6248 273.459 68.6248H269.876C268.629 68.6248 267.61 69.6434 267.61 70.8913V74.601C267.61 75.8489 268.629 76.8675 269.876 76.8675ZM268.459 70.8913C268.459 70.1103 269.095 69.4737 269.876 69.4737H273.459C274.24 69.4737 274.876 70.1103 274.876 70.8913V74.601C274.876 75.382 274.24 76.0186 273.459 76.0186H269.876C269.095 76.0186 268.459 75.382 268.459 74.601V70.8913Z" fill="white"/>
<path d="M280.063 76.8675H283.645C284.893 76.8675 285.912 75.8489 285.912 74.601V70.8913C285.912 69.6434 284.893 68.6248 283.645 68.6248H280.063C278.815 68.6248 277.796 69.6434 277.796 70.8913V74.601C277.788 75.8489 278.807 76.8675 280.063 76.8675ZM278.637 70.8913C278.637 70.1103 279.274 69.4737 280.055 69.4737H283.637C284.418 69.4737 285.055 70.1103 285.055 70.8913V74.601C285.055 75.382 284.418 76.0186 283.637 76.0186H280.063C279.282 76.0186 278.645 75.382 278.645 74.601V70.8913H278.637Z" fill="white"/>
<path d="M290.242 76.8675H293.824C295.072 76.8675 296.091 75.8489 296.091 74.601V70.8913C296.091 69.6434 295.072 68.6248 293.824 68.6248H290.242C288.994 68.6248 287.975 69.6434 287.975 70.8913V74.601C287.975 75.8489 288.994 76.8675 290.242 76.8675ZM288.824 70.8913C288.824 70.1103 289.461 69.4737 290.242 69.4737H293.824C294.605 69.4737 295.242 70.1103 295.242 70.8913V74.601C295.242 75.382 294.605 76.0186 293.824 76.0186H290.242C289.461 76.0186 288.824 75.382 288.824 74.601V70.8913Z" fill="white"/>
<path d="M300.419 76.8675H304.002C305.25 76.8675 306.268 75.8489 306.268 74.601V70.8913C306.268 69.6434 305.25 68.6248 304.002 68.6248H300.419C299.172 68.6248 298.153 69.6434 298.153 70.8913V74.601C298.153 75.8489 299.172 76.8675 300.419 76.8675ZM299.002 70.8913C299.002 70.1103 299.638 69.4737 300.419 69.4737H304.002C304.783 69.4737 305.419 70.1103 305.419 70.8913V74.601C305.419 75.382 304.783 76.0186 304.002 76.0186H300.419C299.638 76.0186 299.002 75.382 299.002 74.601V70.8913Z" fill="white"/>
<path d="M269.876 86.2989H273.459C274.707 86.2989 275.725 85.2803 275.725 84.0324V80.3227C275.725 79.0748 274.707 78.0562 273.459 78.0562H269.876C268.629 78.0562 267.61 79.0748 267.61 80.3227V84.0324C267.61 85.2803 268.629 86.2989 269.876 86.2989ZM268.459 80.3227C268.459 79.5417 269.095 78.905 269.876 78.905H273.459C274.24 78.905 274.876 79.5417 274.876 80.3227V84.0324C274.876 84.8134 274.24 85.45 273.459 85.45H269.876C269.095 85.45 268.459 84.8134 268.459 84.0324V80.3227Z" fill="white"/>
<path d="M280.063 86.2989H283.645C284.893 86.2989 285.912 85.2803 285.912 84.0324V80.3227C285.912 79.0748 284.893 78.0562 283.645 78.0562H280.063C278.815 78.0562 277.796 79.0748 277.796 80.3227V84.0324C277.788 85.2803 278.807 86.2989 280.063 86.2989ZM278.637 80.3227C278.637 79.5417 279.274 78.905 280.055 78.905H283.637C284.418 78.905 285.055 79.5417 285.055 80.3227V84.0324C285.055 84.8134 284.418 85.45 283.637 85.45H280.063C279.282 85.45 278.645 84.8134 278.645 84.0324V80.3227H278.637Z" fill="white"/>
<path d="M290.242 86.2989H293.824C295.072 86.2989 296.091 85.2803 296.091 84.0324V80.3227C296.091 79.0748 295.072 78.0562 293.824 78.0562H290.242C288.994 78.0562 287.975 79.0748 287.975 80.3227V84.0324C287.975 85.2803 288.994 86.2989 290.242 86.2989ZM288.824 80.3227C288.824 79.5417 289.461 78.905 290.242 78.905H293.824C294.605 78.905 295.242 79.5417 295.242 80.3227V84.0324C295.242 84.8134 294.605 85.45 293.824 85.45H290.242C289.461 85.45 288.824 84.8134 288.824 84.0324V80.3227Z" fill="white"/>
<path d="M300.419 86.2989H304.002C305.25 86.2989 306.268 85.2803 306.268 84.0324V80.3227C306.268 79.0748 305.25 78.0562 304.002 78.0562H300.419C299.172 78.0562 298.153 79.0748 298.153 80.3227V84.0324C298.153 85.2803 299.172 86.2989 300.419 86.2989ZM299.002 80.3227C299.002 79.5417 299.638 78.905 300.419 78.905H304.002C304.783 78.905 305.419 79.5417 305.419 80.3227V84.0324C305.419 84.8134 304.783 85.45 304.002 85.45H300.419C299.638 85.45 299.002 84.8134 299.002 84.0324V80.3227Z" fill="white"/>
<path d="M269.876 95.7301H273.459C274.707 95.7301 275.725 94.7114 275.725 93.4635V89.7539C275.725 88.506 274.707 87.4873 273.459 87.4873H269.876C268.629 87.4873 267.61 88.506 267.61 89.7539V93.4635C267.61 94.7199 268.629 95.7301 269.876 95.7301ZM268.459 89.7623C268.459 88.9814 269.095 88.3447 269.876 88.3447H273.459C274.24 88.3447 274.876 88.9814 274.876 89.7623V93.472C274.876 94.253 274.24 94.8897 273.459 94.8897H269.876C269.095 94.8897 268.459 94.253 268.459 93.472V89.7623Z" fill="white"/>
<path d="M280.063 95.7301H283.645C284.893 95.7301 285.912 94.7114 285.912 93.4635V89.7539C285.912 88.506 284.893 87.4873 283.645 87.4873H280.063C278.815 87.4873 277.796 88.506 277.796 89.7539V93.4635C277.788 94.7199 278.807 95.7301 280.063 95.7301ZM278.637 89.7623C278.637 88.9814 279.274 88.3447 280.055 88.3447H283.637C284.418 88.3447 285.055 88.9814 285.055 89.7623V93.472C285.055 94.253 284.418 94.8897 283.637 94.8897H280.063C279.282 94.8897 278.645 94.253 278.645 93.472V89.7623H278.637Z" fill="white"/>
<path d="M290.242 95.7301H293.824C295.072 95.7301 296.091 94.7114 296.091 93.4635V89.7539C296.091 88.506 295.072 87.4873 293.824 87.4873H290.242C288.994 87.4873 287.975 88.506 287.975 89.7539V93.4635C287.975 94.7199 288.994 95.7301 290.242 95.7301ZM288.824 89.7623C288.824 88.9814 289.461 88.3447 290.242 88.3447H293.824C294.605 88.3447 295.242 88.9814 295.242 89.7623V93.472C295.242 94.253 294.605 94.8897 293.824 94.8897H290.242C289.461 94.8897 288.824 94.253 288.824 93.472V89.7623Z" fill="white"/>
<path d="M300.419 95.7301H304.002C305.25 95.7301 306.268 94.7114 306.268 93.4635V89.7539C306.268 88.506 305.25 87.4873 304.002 87.4873H300.419C299.172 87.4873 298.153 88.506 298.153 89.7539V93.4635C298.153 94.7199 299.172 95.7301 300.419 95.7301ZM299.002 89.7623C299.002 88.9814 299.638 88.3447 300.419 88.3447H304.002C304.783 88.3447 305.419 88.9814 305.419 89.7623V93.472C305.419 94.253 304.783 94.8897 304.002 94.8897H300.419C299.638 94.8897 299.002 94.253 299.002 93.472V89.7623Z" fill="white"/>
<path d="M231.379 198.288C229.267 198.288 227.763 197.736 226.867 196.632C225.987 195.512 225.547 193.904 225.547 191.808V184.8C225.547 182.656 225.987 181.04 226.867 179.952C227.747 178.848 229.251 178.296 231.379 178.296C233.411 178.296 234.851 178.784 235.699 179.76C236.547 180.736 236.971 182.12 236.971 183.912V185.592H232.771V183.648C232.771 182.896 232.691 182.32 232.531 181.92C232.371 181.52 231.987 181.32 231.379 181.32C230.771 181.32 230.371 181.536 230.179 181.968C229.987 182.384 229.891 182.968 229.891 183.72V192.864C229.891 193.632 229.987 194.224 230.179 194.64C230.387 195.04 230.787 195.24 231.379 195.24C231.971 195.24 232.347 195.04 232.507 194.64C232.683 194.224 232.771 193.632 232.771 192.864V190.824H236.971V192.504C236.971 194.328 236.547 195.752 235.699 196.776C234.851 197.784 233.411 198.288 231.379 198.288ZM241.567 181.752H238.639V178.56H248.791V181.752H245.887V198H241.567V181.752ZM256.55 198.288C254.454 198.288 252.958 197.752 252.062 196.68C251.166 195.592 250.718 193.992 250.718 191.88V184.656C250.718 182.544 251.166 180.96 252.062 179.904C252.958 178.832 254.454 178.296 256.55 178.296C258.662 178.296 260.166 178.832 261.062 179.904C261.974 180.976 262.43 182.56 262.43 184.656V191.88C262.43 193.992 261.974 195.592 261.062 196.68C260.166 197.752 258.662 198.288 256.55 198.288ZM256.55 195.24C257.158 195.24 257.558 195.04 257.75 194.64C257.942 194.224 258.038 193.664 258.038 192.96V183.6C258.038 182.88 257.942 182.32 257.75 181.92C257.558 181.52 257.158 181.32 256.55 181.32C255.974 181.32 255.59 181.528 255.398 181.944C255.206 182.344 255.11 182.896 255.11 183.6V192.96C255.11 193.664 255.198 194.224 255.374 194.64C255.55 195.04 255.942 195.24 256.55 195.24ZM265.597 178.56H268.981V189.696L273.949 178.56H276.733V198H273.277V186.672L268.213 198H265.597V178.56ZM280.425 178.56H285.033L287.169 189.864L289.473 178.56H293.913L294.249 198H291.201L290.841 185.064L288.585 198H285.873L283.473 184.968L283.185 198H280.089L280.425 178.56ZM303.107 198.288C301.011 198.288 299.515 197.752 298.619 196.68C297.723 195.592 297.275 193.992 297.275 191.88V184.656C297.275 182.544 297.723 180.96 298.619 179.904C299.515 178.832 301.011 178.296 303.107 178.296C305.219 178.296 306.723 178.832 307.619 179.904C308.531 180.976 308.987 182.56 308.987 184.656V191.88C308.987 193.992 308.531 195.592 307.619 196.68C306.723 197.752 305.219 198.288 303.107 198.288ZM303.107 195.24C303.715 195.24 304.115 195.04 304.307 194.64C304.499 194.224 304.595 193.664 304.595 192.96V183.6C304.595 182.88 304.499 182.32 304.307 181.92C304.115 181.52 303.715 181.32 303.107 181.32C302.531 181.32 302.147 181.528 301.955 181.944C301.763 182.344 301.667 182.896 301.667 183.6V192.96C301.667 193.664 301.755 194.224 301.931 194.64C302.107 195.04 302.499 195.24 303.107 195.24ZM317.65 198.288C315.538 198.288 314.034 197.736 313.138 196.632C312.258 195.512 311.818 193.904 311.818 191.808V184.8C311.818 182.656 312.258 181.04 313.138 179.952C314.018 178.848 315.522 178.296 317.65 178.296C319.682 178.296 321.122 178.784 321.97 179.76C322.818 180.736 323.242 182.12 323.242 183.912V185.592H319.042V183.648C319.042 182.896 318.962 182.32 318.802 181.92C318.642 181.52 318.258 181.32 317.65 181.32C317.042 181.32 316.642 181.536 316.45 181.968C316.258 182.384 316.162 182.968 316.162 183.72V192.864C316.162 193.632 316.258 194.224 316.45 194.64C316.658 195.04 317.058 195.24 317.65 195.24C318.242 195.24 318.618 195.04 318.778 194.64C318.954 194.224 319.042 193.632 319.042 192.864V190.824H323.242V192.504C323.242 194.328 322.818 195.752 321.97 196.776C321.122 197.784 319.682 198.288 317.65 198.288ZM327.837 181.752H324.909V178.56H335.061V181.752H332.157V198H327.837V181.752ZM337.325 178.56H341.621V186.768H342.581C346.389 186.768 348.293 188.64 348.293 192.384C348.293 193.888 348.029 195.056 347.501 195.888C346.989 196.704 346.285 197.264 345.389 197.568C344.509 197.856 343.437 198 342.173 198H337.325V178.56ZM342.197 195.192C342.949 195.192 343.493 194.976 343.829 194.544C344.165 194.112 344.333 193.432 344.333 192.504C344.333 191.624 344.181 190.944 343.877 190.464C343.573 189.984 342.997 189.744 342.149 189.744H341.621V195.192H342.197ZM222.823 214.56H229.351C231.063 214.56 232.343 215.048 233.191 216.024C234.039 216.984 234.463 218.376 234.463 220.2C234.463 222.28 233.967 223.728 232.975 224.544C231.999 225.344 230.623 225.744 228.847 225.744H227.119V234H222.823V214.56ZM228.559 222.744C229.311 222.744 229.807 222.544 230.047 222.144C230.303 221.744 230.431 221.072 230.431 220.128C230.431 219.264 230.311 218.624 230.071 218.208C229.831 217.792 229.319 217.584 228.535 217.584H227.119V222.744H228.559ZM237.014 214.56H245.75V217.488H241.31V222.312H244.694V225.288H241.31V231.096H245.798V234H237.014V214.56ZM248.3 214.56H252.596V222.264H253.028L255.884 214.56H260.156L256.604 223.68L260.276 234H255.86L253.028 225.528H252.596V234H248.3V214.56ZM261.171 230.976C262.083 230.992 262.707 230.872 263.043 230.616C263.379 230.36 263.611 229.832 263.739 229.032C263.883 228.216 264.043 226.616 264.219 224.232L264.291 223.248L264.915 214.56H275.211V234H270.939V217.848H268.803L268.419 224.064C268.211 227.056 267.987 229.168 267.747 230.4C267.507 231.616 266.995 232.528 266.211 233.136C265.443 233.728 264.171 234.024 262.395 234.024C261.867 234.024 261.459 234.016 261.171 234V230.976ZM281.409 214.56H286.305L289.929 234H285.969L285.321 229.896H282.465L281.793 234H277.737L281.409 214.56ZM284.913 227.328L283.881 219.744L282.849 227.328H284.913ZM292.635 214.56H297.243L299.379 225.864L301.683 214.56H306.123L306.459 234H303.411L303.051 221.064L300.795 234H298.083L295.683 220.968L295.395 234H292.299L292.635 214.56ZM309.822 214.56H314.118V222.432H317.118V214.56H321.438V234H317.118V225.504H314.118V234H309.822V214.56ZM330.446 234.288C328.35 234.288 326.854 233.752 325.958 232.68C325.062 231.592 324.614 229.992 324.614 227.88V220.656C324.614 218.544 325.062 216.96 325.958 215.904C326.854 214.832 328.35 214.296 330.446 214.296C332.558 214.296 334.062 214.832 334.958 215.904C335.87 216.976 336.326 218.56 336.326 220.656V227.88C336.326 229.992 335.87 231.592 334.958 232.68C334.062 233.752 332.558 234.288 330.446 234.288ZM330.446 231.24C331.054 231.24 331.454 231.04 331.646 230.64C331.838 230.224 331.934 229.664 331.934 228.96V219.6C331.934 218.88 331.838 218.32 331.646 217.92C331.454 217.52 331.054 217.32 330.446 217.32C329.87 217.32 329.486 217.528 329.294 217.944C329.102 218.344 329.006 218.896 329.006 219.6V228.96C329.006 229.664 329.094 230.224 329.27 230.64C329.446 231.04 329.838 231.24 330.446 231.24ZM339.493 214.56H342.877V225.696L347.845 214.56H350.629V234H347.173V222.672L342.109 234H339.493V214.56ZM345.373 213C344.221 213 343.301 212.68 342.613 212.04C341.941 211.384 341.605 210.456 341.605 209.256H343.813C343.813 209.864 343.933 210.312 344.173 210.6C344.413 210.872 344.813 211.008 345.373 211.008C345.917 211.008 346.309 210.864 346.549 210.576C346.805 210.288 346.933 209.848 346.933 209.256H349.141C349.141 210.44 348.797 211.36 348.109 212.016C347.437 212.672 346.525 213 345.373 213ZM229.551 250.56H233.847V258.264H234.279L237.135 250.56H241.407L237.855 259.68L241.527 270H237.111L234.279 261.528H233.847V270H229.551V250.56ZM246.429 250.56H251.325L254.949 270H250.989L250.341 265.896H247.485L246.813 270H242.757L246.429 250.56ZM249.933 263.328L248.901 255.744L247.869 263.328H249.933ZM257.656 250.56H262.264L264.4 261.864L266.704 250.56H271.144L271.48 270H268.432L268.072 257.064L265.816 270H263.104L260.704 256.968L260.416 270H257.32L257.656 250.56ZM274.77 250.56H286.41V270H282.186V253.632H278.994V270H274.77V250.56ZM292.518 250.56H297.414L301.038 270H297.078L296.43 265.896H293.574L292.902 270H288.846L292.518 250.56ZM296.022 263.328L294.99 255.744L293.958 263.328H296.022ZM303.552 250.56H307.848V258.432H310.848V250.56H315.168V270H310.848V261.504H307.848V270H303.552V250.56ZM318.681 250.56H322.065V261.696L327.033 250.56H329.817V270H326.361V258.672L321.297 270H318.681V250.56ZM333.317 250.56H336.701V261.696L341.669 250.56H344.453V270H340.997V258.672L335.933 270H333.317V250.56Z" fill="#333333"/>
</svg>
