<svg width="282" height="96" viewBox="0 0 282 96" fill="none" xmlns="http://www.w3.org/2000/svg">
<path d="M119.506 49.2313C119.506 62.2738 109.379 71.8756 96.9376 71.8756C84.4965 71.8756 74.3696 62.2738 74.3696 49.2313C74.3696 36.0961 84.4951 26.5869 96.9376 26.5869C109.38 26.5869 119.506 36.0961 119.506 49.2313ZM110.408 49.2313C110.408 40.6466 104.199 34.7069 96.9376 34.7069C89.6764 34.7069 83.4677 40.6466 83.4677 49.2313C83.4677 57.7304 89.6744 63.7556 96.9376 63.7556C104.201 63.7556 110.408 57.7197 110.408 49.2313Z" stroke="#039BE5"/>
<path d="M169.27 49.2313C169.27 62.2738 159.143 71.8756 146.702 71.8756C134.261 71.8756 124.134 62.2738 124.134 49.2313C124.134 36.1064 134.26 26.5869 146.702 26.5869C159.145 26.5869 169.27 36.0961 169.27 49.2313ZM160.172 49.2313C160.172 40.6466 153.964 34.7069 146.702 34.7069C139.441 34.7069 133.232 40.6466 133.232 49.2313C133.232 57.7304 139.439 63.7556 146.702 63.7556C153.966 63.7556 160.172 57.7197 160.172 49.2313Z" stroke="#039BE5"/>
<path d="M183.754 76.4393C185.48 80.2122 189.395 84.5 195.596 84.5C199.491 84.5 202.705 83.2877 204.942 80.8798C207.174 78.4768 208.371 74.9489 208.371 70.4347V67.106V66.606H207.871H207.519H207.279L207.129 66.7925C204.968 69.4767 200.759 71.8652 195.409 71.8652C184.196 71.8652 173.878 62.0172 173.878 49.3147C173.878 36.5146 184.199 26.5869 195.409 26.5869C200.748 26.5869 204.961 28.9755 207.135 31.5827L207.284 31.7626H207.519H207.871H208.371V31.2626V27.9956H216.961V69.0365C216.961 77.4836 214.489 83.3592 210.625 87.1245C206.757 90.8934 201.431 92.6095 195.606 92.6095C184.994 92.6095 178.495 85.6511 175.881 79.7379L183.754 76.4393ZM209.086 49.3147C209.086 40.9505 203.519 34.7069 196.311 34.7069C189.034 34.7069 183.007 40.9244 183.007 49.3147C183.007 57.6277 189.04 63.7556 196.311 63.7556C203.513 63.7556 209.086 57.6017 209.086 49.3147Z" stroke="#039BE5"/>
<path d="M232.772 3.63037V70.4565H223.923V3.63037H232.772Z" stroke="#039BE5"/>
<path d="M278.792 62.241C276.157 65.9748 270.259 71.8651 260.331 71.8651C247.555 71.8651 238.012 61.936 238.012 49.2208C238.012 35.7186 247.642 26.5764 259.201 26.5764C270.815 26.5764 276.528 35.8761 278.41 40.9731L278.41 40.9732L278.415 40.9849L279.28 43.1573L248.994 55.7819L248.497 55.9891L248.74 56.4694C249.949 58.8545 251.508 60.6831 253.449 61.9131C255.392 63.144 257.686 63.7555 260.331 63.7555C265.492 63.7555 269.125 61.2743 271.783 57.5381L278.792 62.241ZM247.028 48.5361L247.049 49.2636L247.72 48.983L268.269 40.3951L268.72 40.2068L268.542 39.7517C267.316 36.6172 263.689 34.5295 259.543 34.5295C254.173 34.5295 246.759 39.2809 247.028 48.5361Z" stroke="#039BE5"/>
<path d="M59.9038 42.7001L37.0872 42.7103V33.8914H69.0442C69.3113 35.4776 69.4503 37.3237 69.4503 39.3183C69.4503 46.6131 67.4665 55.5714 61.146 61.9329L61.1459 61.9328L61.1389 61.9401C54.9673 68.4084 47.087 71.8653 36.5976 71.8653C17.1896 71.8653 0.873047 55.9507 0.873047 36.4279C0.873047 16.9051 17.1896 0.990479 36.5976 0.990479C47.1045 0.990479 54.6426 5.04528 60.3502 10.4034L54.1672 16.6264C49.9481 12.7708 44.272 9.80961 36.5872 9.80961C21.9299 9.80961 10.4791 21.7009 10.4791 36.4279C10.4791 51.1548 21.9299 63.0461 36.5872 63.0461C46.0714 63.0461 51.5007 59.202 54.9713 55.709C57.8256 52.8361 59.6742 48.7587 60.3998 43.2655L60.4745 42.6998L59.9038 42.7001Z" stroke="#039BE5"/>
</svg>
