<svg width="977" height="560" viewBox="0 0 977 560" fill="none" xmlns="http://www.w3.org/2000/svg">
<g opacity="0.45" filter="url(#filter0_d)">
<path d="M939.229 37L431 166.004L524.089 219.008L939.229 37Z" fill="url(#paint0_linear)"/>
</g>
<path opacity="0.45" d="M939.229 37L524.09 219.008L506.145 329.928L939.229 37Z" fill="url(#paint1_linear)"/>
<path d="M559.292 264.348L506.145 329.928L584.075 307.113L559.292 264.348Z" fill="url(#paint2_linear)"/>
<path style="mix-blend-mode:multiply" d="M559.292 264.348L552.273 316.428L584.075 307.113L559.292 264.348Z" fill="url(#paint3_linear)"/>
<g filter="url(#filter1_d)">
<path d="M631.833 390.706L559.293 264.347L939.23 37L631.833 390.706Z" fill="white"/>
</g>
<path d="M477.59 359C414.91 422.424 330.051 464.229 240.019 461.638C225.547 461.221 210.515 458.575 198.413 450.421C186.311 442.266 177.881 427.661 180.323 413.291C181.29 407.851 183.682 402.767 187.255 398.558C190.827 394.349 195.452 391.166 200.656 389.335C221.784 382.177 250.836 402.509 262.902 418.999C274.552 434.909 277.374 454.589 273.087 473.598C264.042 513.881 226.777 549.127 186.256 556.158C121.767 567.356 53.2791 542.295 1 505.074" stroke="#039BE5" stroke-linecap="round" stroke-linejoin="round" stroke-dasharray="2.98 2.98"/>
<path d="M649.469 314.341L650.115 313.577L649.351 312.931L648.705 313.695L649.469 314.341ZM639.182 326.512L638.537 327.276L639.301 327.921L639.946 327.157L639.182 326.512ZM633.17 321.431L632.28 321.886L632.371 322.065L632.525 322.194L633.17 321.431ZM617.202 290.254L616.438 289.609L616.008 290.117L616.312 290.71L617.202 290.254ZM625.217 280.771L625.862 280.008L625.098 279.362L624.453 280.126L625.217 280.771ZM649.852 301.593L649.207 302.356L649.971 303.002L650.616 302.238L649.852 301.593ZM652.951 297.927L653.596 297.163L652.833 296.517L652.187 297.281L652.951 297.927ZM659.012 303.049L659.776 303.695L660.421 302.931L659.658 302.285L659.012 303.049ZM655.914 306.715L655.15 306.07L654.504 306.833L655.268 307.479L655.914 306.715ZM664.81 314.234L665.574 314.88L666.219 314.116L665.455 313.47L664.81 314.234ZM658.365 321.859L657.72 322.623L658.484 323.269L659.129 322.505L658.365 321.859ZM643.408 309.218L644.172 309.863L644.817 309.1L644.053 308.454L643.408 309.218ZM626.935 295.296L627.581 294.532L626.068 295.794L626.935 295.296ZM638.368 315.181L637.501 315.68L638.211 316.916L639.132 315.827L638.368 315.181ZM648.705 313.695L638.419 325.866L639.946 327.157L650.233 314.986L648.705 313.695ZM639.828 325.748L633.816 320.667L632.525 322.194L638.537 327.276L639.828 325.748ZM634.06 320.975L618.092 289.798L616.312 290.71L632.28 321.886L634.06 320.975ZM617.966 290.9L625.98 281.417L624.453 280.126L616.438 289.609L617.966 290.9ZM624.571 281.535L649.207 302.356L650.498 300.829L625.862 280.008L624.571 281.535ZM650.616 302.238L653.715 298.572L652.187 297.281L649.089 300.947L650.616 302.238ZM652.305 298.69L658.367 303.813L659.658 302.285L653.596 297.163L652.305 298.69ZM658.248 302.404L655.15 306.07L656.677 307.361L659.776 303.695L658.248 302.404ZM655.268 307.479L664.164 314.998L665.455 313.47L656.559 305.951L655.268 307.479ZM664.046 313.589L657.602 321.214L659.129 322.505L665.574 314.88L664.046 313.589ZM659.011 321.096L650.115 313.577L648.824 315.104L657.72 322.623L659.011 321.096ZM644.053 308.454L627.581 294.532L626.29 296.06L642.762 309.982L644.053 308.454ZM626.068 295.794L637.501 315.68L639.235 314.683L627.802 294.797L626.068 295.794ZM639.132 315.827L644.172 309.863L642.644 308.572L637.604 314.536L639.132 315.827ZM671.776 301.233L671.81 302.232L671.776 301.233ZM636.988 271.999L635.999 272.149L635.999 272.15L636.988 271.999ZM650.662 255.819L650.671 256.819L650.678 256.819L650.662 255.819ZM685.244 285.298L684.252 285.43L684.253 285.431L685.244 285.298ZM674.729 286.634L673.852 287.115L673.861 287.13L673.869 287.145L674.729 286.634ZM651.014 266.508L650.612 267.423L650.633 267.432L650.654 267.44L651.014 266.508ZM647.536 270.523L646.677 271.034L646.686 271.049L646.695 271.063L647.536 270.523ZM680.867 295.173C678.052 298.504 675.013 300.123 671.742 300.233L671.81 302.232C675.785 302.098 679.316 300.107 682.394 296.464L680.867 295.173ZM671.742 300.233C668.424 300.345 665.12 299.074 661.806 296.273L660.515 297.801C664.11 300.839 667.882 302.365 671.81 302.232L671.742 300.233ZM661.806 296.273L643.867 281.112L642.576 282.639L660.515 297.801L661.806 296.273ZM643.867 281.112C640.373 278.159 638.468 275.067 637.977 271.848L635.999 272.15C636.585 275.985 638.835 279.478 642.576 282.639L643.867 281.112ZM637.977 271.849C637.489 268.625 638.58 265.32 641.481 261.886L639.954 260.595C636.796 264.331 635.401 268.197 635.999 272.149L637.977 271.849ZM641.481 261.886C644.384 258.452 647.444 256.846 650.671 256.819L650.654 254.819C646.679 254.852 643.11 256.86 639.954 260.595L641.481 261.886ZM650.678 256.819C653.935 256.767 657.3 258.13 660.794 261.083L662.085 259.555C658.345 256.394 654.526 254.757 650.646 254.82L650.678 256.819ZM660.794 261.083L678.733 276.244L680.024 274.717L662.085 259.555L660.794 261.083ZM678.733 276.244C682.008 279.012 683.804 282.074 684.252 285.43L686.235 285.165C685.707 281.216 683.593 277.733 680.024 274.717L678.733 276.244ZM684.253 285.431C684.689 288.679 683.623 291.913 680.867 295.173L682.394 296.464C685.422 292.882 686.764 289.101 686.235 285.164L684.253 285.431ZM675.111 290.309C675.626 289.7 675.981 289.02 676.075 288.273C676.171 287.515 675.984 286.789 675.589 286.123L673.869 287.145C674.074 287.489 674.123 287.772 674.091 288.023C674.058 288.287 673.923 288.617 673.584 289.018L675.111 290.309ZM675.606 286.153C674.962 284.98 674.017 283.885 672.806 282.861L671.515 284.389C672.585 285.293 673.353 286.204 673.852 287.115L675.606 286.153ZM672.806 282.861L655.258 268.03L653.967 269.558L671.515 284.389L672.806 282.861ZM655.258 268.03C653.904 266.887 652.609 266.051 651.374 265.575L650.654 267.44C651.61 267.809 652.713 268.499 653.967 269.558L655.258 268.03ZM651.416 265.592C650.684 265.27 649.914 265.184 649.153 265.408C648.409 265.628 647.775 266.114 647.237 266.751L648.764 268.042C649.135 267.603 649.458 267.403 649.719 267.327C649.962 267.255 650.245 267.262 650.612 267.423L651.416 265.592ZM647.237 266.751C646.702 267.384 646.326 268.081 646.214 268.838C646.099 269.613 646.274 270.355 646.677 271.034L648.396 270.013C648.2 269.682 648.152 269.399 648.192 269.131C648.234 268.846 648.391 268.484 648.764 268.042L647.237 266.751ZM646.695 271.063C647.396 272.155 648.458 273.282 649.836 274.446L651.127 272.919C649.832 271.825 648.931 270.845 648.378 269.983L646.695 271.063ZM649.836 274.446L667.384 289.277L668.675 287.75L651.127 272.919L649.836 274.446ZM667.384 289.277C668.849 290.516 670.247 291.343 671.556 291.582C672.96 291.837 674.191 291.398 675.111 290.309L673.584 289.018C673.127 289.558 672.617 289.742 671.914 289.614C671.117 289.469 670.044 288.907 668.675 287.75L667.384 289.277ZM695.5 259.877L696.145 259.113L695.381 258.468L694.736 259.231L695.5 259.877ZM685.213 272.048L684.567 272.812L685.331 273.457L685.977 272.694L685.213 272.048ZM679.201 266.967L678.31 267.423L678.402 267.601L678.555 267.731L679.201 266.967ZM663.233 235.79L662.469 235.145L662.039 235.654L662.343 236.246L663.233 235.79ZM671.247 226.308L671.893 225.544L671.129 224.898L670.483 225.662L671.247 226.308ZM695.883 247.129L695.237 247.892L696.001 248.538L696.647 247.774L695.883 247.129ZM698.981 243.463L699.627 242.699L698.863 242.053L698.218 242.817L698.981 243.463ZM705.043 248.585L705.806 249.231L706.452 248.467L705.688 247.822L705.043 248.585ZM701.944 252.251L701.18 251.606L700.535 252.37L701.299 253.015L701.944 252.251ZM710.841 259.77L711.604 260.416L712.25 259.652L711.486 259.006L710.841 259.77ZM704.396 267.396L703.75 268.159L704.514 268.805L705.16 268.041L704.396 267.396ZM689.438 254.754L690.202 255.4L690.848 254.636L690.084 253.99L689.438 254.754ZM672.966 240.832L673.611 240.068L672.099 241.33L672.966 240.832ZM684.398 260.718L683.531 261.216L684.242 262.452L685.162 261.363L684.398 260.718ZM694.736 259.231L684.449 271.403L685.977 272.694L696.263 260.522L694.736 259.231ZM685.858 271.284L679.846 266.203L678.555 267.731L684.567 272.812L685.858 271.284ZM680.091 266.511L664.123 235.335L662.343 236.246L678.31 267.423L680.091 266.511ZM663.996 236.436L672.011 226.953L670.483 225.662L662.469 235.145L663.996 236.436ZM670.602 227.071L695.237 247.892L696.528 246.365L671.893 225.544L670.602 227.071ZM696.647 247.774L699.745 244.108L698.218 242.817L695.119 246.483L696.647 247.774ZM698.336 244.226L704.397 249.349L705.688 247.822L699.627 242.699L698.336 244.226ZM704.279 247.94L701.18 251.606L702.708 252.897L705.806 249.231L704.279 247.94ZM701.299 253.015L710.195 260.534L711.486 259.006L702.59 251.488L701.299 253.015ZM710.077 259.125L703.632 266.75L705.16 268.041L711.604 260.416L710.077 259.125ZM705.041 266.632L696.145 259.113L694.854 260.641L703.75 268.159L705.041 266.632ZM690.084 253.99L673.611 240.068L672.32 241.596L688.793 255.518L690.084 253.99ZM672.099 241.33L683.531 261.216L685.265 260.219L673.832 240.334L672.099 241.33ZM685.162 261.363L690.202 255.4L688.675 254.109L683.635 260.072L685.162 261.363Z" fill="#039BE5"/>
<defs>
<filter id="filter0_d" x="394" y="0" width="582.229" height="256.008" filterUnits="userSpaceOnUse" color-interpolation-filters="sRGB">
<feFlood flood-opacity="0" result="BackgroundImageFix"/>
<feColorMatrix in="SourceAlpha" type="matrix" values="0 0 0 0 0 0 0 0 0 0 0 0 0 0 0 0 0 0 127 0"/>
<feOffset/>
<feGaussianBlur stdDeviation="18.5"/>
<feColorMatrix type="matrix" values="0 0 0 0 0 0 0 0 0 0 0 0 0 0 0 0 0 0 0.14 0"/>
<feBlend mode="normal" in2="BackgroundImageFix" result="effect1_dropShadow"/>
<feBlend mode="normal" in="SourceGraphic" in2="effect1_dropShadow" result="shape"/>
</filter>
<filter id="filter1_d" x="522.293" y="0" width="453.937" height="427.706" filterUnits="userSpaceOnUse" color-interpolation-filters="sRGB">
<feFlood flood-opacity="0" result="BackgroundImageFix"/>
<feColorMatrix in="SourceAlpha" type="matrix" values="0 0 0 0 0 0 0 0 0 0 0 0 0 0 0 0 0 0 127 0"/>
<feOffset/>
<feGaussianBlur stdDeviation="18.5"/>
<feColorMatrix type="matrix" values="0 0 0 0 0 0 0 0 0 0 0 0 0 0 0 0 0 0 0.14 0"/>
<feBlend mode="normal" in2="BackgroundImageFix" result="effect1_dropShadow"/>
<feBlend mode="normal" in="SourceGraphic" in2="effect1_dropShadow" result="shape"/>
</filter>
<linearGradient id="paint0_linear" x1="431" y1="128.004" x2="939.229" y2="128.004" gradientUnits="userSpaceOnUse">
<stop stop-color="white"/>
<stop offset="0.294274" stop-color="#FAFDFF" stop-opacity="0.69"/>
<stop offset="0.569974" stop-color="#EBF8FF"/>
<stop offset="0.75" stop-color="#E7F7FF"/>
<stop offset="1" stop-color="#84D7FF"/>
</linearGradient>
<linearGradient id="paint1_linear" x1="721.936" y1="224.427" x2="723.37" y2="145.999" gradientUnits="userSpaceOnUse">
<stop stop-color="#DEF4FF"/>
<stop offset="0.244792" stop-color="#CDEFFF"/>
<stop offset="0.453125" stop-color="#AFE5FF"/>
<stop offset="0.567708" stop-color="#9CDFFF"/>
<stop offset="0.723958" stop-color="#87D8FF"/>
<stop offset="0.869792" stop-color="#7DD3FD"/>
<stop offset="1" stop-color="#72D1FF"/>
</linearGradient>
<linearGradient id="paint2_linear" x1="572.66" y1="284.661" x2="516.803" y2="345.307" gradientUnits="userSpaceOnUse">
<stop stop-color="#A0E0FF"/>
<stop offset="1" stop-color="#D2F0FF"/>
</linearGradient>
<linearGradient id="paint3_linear" x1="574.614" y1="282.541" x2="546.051" y2="313.533" gradientUnits="userSpaceOnUse">
<stop stop-color="#3FC0FF"/>
<stop offset="0.02" stop-color="#039BE5" stop-opacity="0.7"/>
<stop offset="0.15" stop-color="#2EACEA" stop-opacity="0.7"/>
<stop offset="0.29" stop-color="#039BE5" stop-opacity="0.5"/>
<stop offset="0.43" stop-color="#039BE5" stop-opacity="0.32"/>
<stop offset="0.57" stop-color="#039BE5" stop-opacity="0.18"/>
<stop offset="0.71" stop-color="#039BE5" stop-opacity="0.08"/>
<stop offset="0.85" stop-color="#039BE5" stop-opacity="0.02"/>
<stop offset="0.99" stop-color="#039BE5" stop-opacity="0"/>
</linearGradient>
</defs>
</svg>
