<svg width="316" height="253" viewBox="0 0 316 253" fill="none" xmlns="http://www.w3.org/2000/svg">
<g filter="url(#filter0_d)">
<path d="M279 37L23 101.981L69.89 128.679L279 37Z" fill="url(#paint0_linear)"/>
</g>
<path opacity="0.45" d="M279 37L69.8901 128.679L60.8511 184.55L279 37Z" fill="url(#paint1_linear)"/>
<path d="M87.6219 151.517L60.8511 184.55L100.105 173.058L87.6219 151.517Z" fill="url(#paint2_linear)"/>
<path style="mix-blend-mode:multiply" d="M87.6219 151.517L84.0864 177.75L100.105 173.058L87.6219 151.517Z" fill="url(#paint3_linear)"/>
<g filter="url(#filter1_d)">
<path d="M124.161 215.165L87.6226 151.517L279 37L124.161 215.165Z" fill="white"/>
</g>
<path d="M135.701 180.769L136.352 180.01L135.593 179.359L134.942 180.118L135.701 180.769ZM129.866 187.574L129.215 188.333L129.974 188.984L130.625 188.225L129.866 187.574ZM126.505 184.692L125.611 185.142L125.702 185.321L125.854 185.451L126.505 184.692ZM117.648 167.092L116.889 166.441L116.455 166.946L116.754 167.541L117.648 167.092ZM122.194 161.79L122.845 161.031L122.086 160.38L121.435 161.139L122.194 161.79ZM135.968 173.6L135.317 174.359L136.076 175.01L136.727 174.251L135.968 173.6ZM137.725 171.551L138.376 170.791L137.617 170.14L136.966 170.9L137.725 171.551ZM141.114 174.456L141.873 175.107L142.524 174.348L141.765 173.697L141.114 174.456ZM139.357 176.506L138.597 175.855L137.946 176.614L138.706 177.265L139.357 176.506ZM144.33 180.771L145.09 181.422L145.741 180.663L144.981 180.012L144.33 180.771ZM140.675 185.034L140.024 185.793L140.783 186.444L141.434 185.685L140.675 185.034ZM132.312 177.864L133.071 178.515L133.722 177.755L132.963 177.104L132.312 177.864ZM123.102 169.967L123.753 169.207L122.232 170.459L123.102 169.967ZM129.453 181.198L128.583 181.69L129.285 182.931L130.212 181.849L129.453 181.198ZM134.942 180.118L129.107 186.923L130.625 188.225L136.46 181.42L134.942 180.118ZM130.517 186.815L127.156 183.933L125.854 185.451L129.215 188.333L130.517 186.815ZM127.398 184.243L118.541 166.642L116.754 167.541L125.611 185.142L127.398 184.243ZM118.407 167.743L122.953 162.441L121.435 161.139L116.889 166.441L118.407 167.743ZM121.543 162.549L135.317 174.359L136.619 172.841L122.845 161.031L121.543 162.549ZM136.727 174.251L138.484 172.201L136.966 170.9L135.209 172.949L136.727 174.251ZM137.074 172.31L140.463 175.215L141.765 173.697L138.376 170.791L137.074 172.31ZM140.355 173.805L138.597 175.855L140.116 177.157L141.873 175.107L140.355 173.805ZM138.706 177.265L143.68 181.53L144.981 180.012L140.007 175.747L138.706 177.265ZM143.571 180.12L139.916 184.383L141.434 185.685L145.09 181.422L143.571 180.12ZM141.326 184.275L136.352 180.01L135.05 181.528L140.024 185.793L141.326 184.275ZM132.963 177.104L123.753 169.207L122.451 170.726L131.661 178.623L132.963 177.104ZM122.232 170.459L128.583 181.69L130.324 180.706L123.973 169.474L122.232 170.459ZM130.212 181.849L133.071 178.515L131.553 177.213L128.694 180.547L130.212 181.849ZM148.301 173.486L148.327 174.485L148.301 173.486ZM128.85 156.903L127.86 157.045L127.861 157.047L128.85 156.903ZM136.607 147.857L136.608 148.857L136.615 148.857L136.607 147.857ZM155.94 164.576L154.948 164.702L154.948 164.702L155.94 164.576ZM150.02 165.286L149.14 165.761L149.148 165.776L149.157 165.79L150.02 165.286ZM136.762 153.87L136.353 154.783L136.374 154.792L136.395 154.8L136.762 153.87ZM134.789 156.115L133.926 156.619L133.935 156.634L133.944 156.649L134.789 156.115ZM153.106 169.829C151.568 171.623 149.96 172.441 148.274 172.486L148.327 174.485C150.718 174.421 152.82 173.235 154.625 171.131L153.106 169.829ZM148.274 172.486C146.541 172.532 144.789 171.86 142.997 170.324L141.696 171.842C143.767 173.618 145.984 174.548 148.327 174.485L148.274 172.486ZM142.997 170.324L132.968 161.724L131.666 163.242L141.696 171.842L142.997 170.324ZM132.968 161.724C131.068 160.095 130.084 158.437 129.84 156.759L127.861 157.047C128.194 159.341 129.521 161.403 131.666 163.242L132.968 161.724ZM129.84 156.76C129.601 155.104 130.161 153.371 131.75 151.517L130.232 150.215C128.384 152.37 127.517 154.661 127.86 157.045L129.84 156.76ZM131.75 151.517C133.34 149.663 134.957 148.859 136.608 148.857L136.605 146.857C134.206 146.859 132.079 148.062 130.232 150.215L131.75 151.517ZM136.615 148.857C138.311 148.842 140.1 149.561 142 151.19L143.302 149.672C141.157 147.833 138.916 146.836 136.598 146.857L136.615 148.857ZM142 151.19L152.03 159.79L153.331 158.272L143.302 149.672L142 151.19ZM152.03 159.79C153.797 161.305 154.725 162.942 154.948 164.702L156.932 164.451C156.635 162.097 155.39 160.037 153.331 158.272L152.03 159.79ZM154.948 164.702C155.162 166.381 154.61 168.076 153.106 169.829L154.625 171.131C156.402 169.058 157.233 166.817 156.932 164.45L154.948 164.702ZM150.553 167.639C150.884 167.253 151.135 166.796 151.205 166.271C151.276 165.734 151.144 165.228 150.884 164.781L149.157 165.79C149.229 165.914 149.226 165.977 149.222 166.007C149.217 166.049 149.188 166.158 149.034 166.337L150.553 167.639ZM150.9 164.811C150.512 164.091 149.946 163.431 149.238 162.824L147.937 164.342C148.504 164.829 148.894 165.304 149.14 165.761L150.9 164.811ZM149.238 162.824L139.427 154.412L138.125 155.93L147.937 164.342L149.238 162.824ZM139.427 154.412C138.649 153.744 137.882 153.237 137.128 152.94L136.395 154.8C136.87 154.988 137.446 155.348 138.125 155.93L139.427 154.412ZM137.17 152.957C136.68 152.738 136.141 152.668 135.598 152.824C135.073 152.975 134.646 153.308 134.304 153.707L135.822 155.009C135.995 154.807 136.11 154.758 136.15 154.746C136.174 154.739 136.227 154.726 136.353 154.783L137.17 152.957ZM134.304 153.707C133.965 154.103 133.702 154.566 133.62 155.094C133.535 155.64 133.657 156.16 133.926 156.619L135.653 155.61C135.588 155.5 135.59 155.441 135.596 155.402C135.605 155.345 135.646 155.214 135.822 155.009L134.304 153.707ZM133.944 156.649C134.366 157.316 134.994 157.987 135.782 158.663L137.084 157.144C136.378 156.539 135.911 156.017 135.635 155.581L133.944 156.649ZM135.782 158.663L145.593 167.075L146.895 165.557L137.084 157.144L135.782 158.663ZM145.593 167.075C146.434 167.796 147.287 168.326 148.134 168.486C149.076 168.664 149.928 168.368 150.553 167.639L149.034 166.337C148.878 166.52 148.748 166.567 148.506 166.521C148.171 166.457 147.64 166.195 146.895 165.557L145.593 167.075ZM161.811 150.318L162.461 149.559L161.702 148.908L161.051 149.668L161.811 150.318ZM155.976 157.123L155.325 157.883L156.084 158.534L156.735 157.774L155.976 157.123ZM152.614 154.241L151.721 154.691L151.811 154.87L151.963 155L152.614 154.241ZM143.757 136.641L142.998 135.99L142.565 136.496L142.864 137.091L143.757 136.641ZM148.303 131.339L148.954 130.58L148.195 129.929L147.544 130.688L148.303 131.339ZM162.077 143.149L161.426 143.909L162.186 144.559L162.836 143.8L162.077 143.149ZM163.835 141.1L164.486 140.341L163.727 139.69L163.076 140.449L163.835 141.1ZM167.224 144.005L167.983 144.656L168.634 143.897L167.875 143.246L167.224 144.005ZM165.466 146.055L164.707 145.404L164.056 146.163L164.815 146.814L165.466 146.055ZM170.44 150.32L171.199 150.971L171.85 150.212L171.091 149.561L170.44 150.32ZM166.785 154.583L166.134 155.342L166.893 155.993L167.544 155.234L166.785 154.583ZM158.422 147.413L159.181 148.064L159.832 147.305L159.073 146.654L158.422 147.413ZM149.212 139.516L149.863 138.757L148.341 140.008L149.212 139.516ZM155.563 150.747L154.692 151.239L155.394 152.48L156.322 151.398L155.563 150.747ZM161.051 149.668L155.217 156.473L156.735 157.774L162.57 150.969L161.051 149.668ZM156.627 156.364L153.265 153.482L151.963 155L155.325 157.883L156.627 156.364ZM153.508 153.792L144.651 136.191L142.864 137.091L151.721 154.691L153.508 153.792ZM144.516 137.292L149.062 131.99L147.544 130.688L142.998 135.99L144.516 137.292ZM147.652 132.098L161.426 143.909L162.728 142.39L148.954 130.58L147.652 132.098ZM162.836 143.8L164.594 141.751L163.076 140.449L161.318 142.498L162.836 143.8ZM163.184 141.859L166.573 144.765L167.875 143.246L164.486 140.341L163.184 141.859ZM166.464 143.354L164.707 145.404L166.225 146.706L167.983 144.656L166.464 143.354ZM164.815 146.814L169.789 151.079L171.091 149.561L166.117 145.296L164.815 146.814ZM169.681 149.669L166.025 153.932L167.544 155.234L171.199 150.971L169.681 149.669ZM167.435 153.824L162.461 149.559L161.16 151.078L166.134 155.342L167.435 153.824ZM159.073 146.654L149.863 138.757L148.561 140.275L157.771 148.172L159.073 146.654ZM148.341 140.008L154.692 151.239L156.433 150.255L150.082 139.024L148.341 140.008ZM156.322 151.398L159.181 148.064L157.663 146.762L154.804 150.096L156.322 151.398Z" fill="#039BE5"/>
<defs>
<filter id="filter0_d" x="-14" y="0" width="330" height="165.679" filterUnits="userSpaceOnUse" color-interpolation-filters="sRGB">
<feFlood flood-opacity="0" result="BackgroundImageFix"/>
<feColorMatrix in="SourceAlpha" type="matrix" values="0 0 0 0 0 0 0 0 0 0 0 0 0 0 0 0 0 0 127 0"/>
<feOffset/>
<feGaussianBlur stdDeviation="18.5"/>
<feColorMatrix type="matrix" values="0 0 0 0 0 0 0 0 0 0 0 0 0 0 0 0 0 0 0.14 0"/>
<feBlend mode="normal" in2="BackgroundImageFix" result="effect1_dropShadow"/>
<feBlend mode="normal" in="SourceGraphic" in2="effect1_dropShadow" result="shape"/>
</filter>
<filter id="filter1_d" x="50.6226" y="0" width="265.378" height="252.165" filterUnits="userSpaceOnUse" color-interpolation-filters="sRGB">
<feFlood flood-opacity="0" result="BackgroundImageFix"/>
<feColorMatrix in="SourceAlpha" type="matrix" values="0 0 0 0 0 0 0 0 0 0 0 0 0 0 0 0 0 0 127 0"/>
<feOffset/>
<feGaussianBlur stdDeviation="18.5"/>
<feColorMatrix type="matrix" values="0 0 0 0 0 0 0 0 0 0 0 0 0 0 0 0 0 0 0.14 0"/>
<feBlend mode="normal" in2="BackgroundImageFix" result="effect1_dropShadow"/>
<feBlend mode="normal" in="SourceGraphic" in2="effect1_dropShadow" result="shape"/>
</filter>
<linearGradient id="paint0_linear" x1="23" y1="82.8396" x2="279" y2="82.8396" gradientUnits="userSpaceOnUse">
<stop stop-color="white"/>
<stop offset="0.294274" stop-color="#FAFDFF" stop-opacity="0.69"/>
<stop offset="0.569974" stop-color="#EBF8FF"/>
<stop offset="0.75" stop-color="#E7F7FF"/>
<stop offset="1" stop-color="#84D7FF"/>
</linearGradient>
<linearGradient id="paint1_linear" x1="169.547" y1="131.409" x2="170.27" y2="91.9036" gradientUnits="userSpaceOnUse">
<stop stop-color="#DEF4FF"/>
<stop offset="0.244792" stop-color="#CDEFFF"/>
<stop offset="0.453125" stop-color="#AFE5FF"/>
<stop offset="0.567708" stop-color="#9CDFFF"/>
<stop offset="0.723958" stop-color="#87D8FF"/>
<stop offset="0.869792" stop-color="#7DD3FD"/>
<stop offset="1" stop-color="#72D1FF"/>
</linearGradient>
<linearGradient id="paint2_linear" x1="94.3557" y1="161.749" x2="66.2198" y2="192.296" gradientUnits="userSpaceOnUse">
<stop stop-color="#A0E0FF"/>
<stop offset="1" stop-color="#D2F0FF"/>
</linearGradient>
<linearGradient id="paint3_linear" x1="95.3397" y1="160.681" x2="80.9522" y2="176.292" gradientUnits="userSpaceOnUse">
<stop stop-color="#3FC0FF"/>
<stop offset="0.02" stop-color="#039BE5" stop-opacity="0.7"/>
<stop offset="0.15" stop-color="#2EACEA" stop-opacity="0.7"/>
<stop offset="0.29" stop-color="#039BE5" stop-opacity="0.5"/>
<stop offset="0.43" stop-color="#039BE5" stop-opacity="0.32"/>
<stop offset="0.57" stop-color="#039BE5" stop-opacity="0.18"/>
<stop offset="0.71" stop-color="#039BE5" stop-opacity="0.08"/>
<stop offset="0.85" stop-color="#039BE5" stop-opacity="0.02"/>
<stop offset="0.99" stop-color="#039BE5" stop-opacity="0"/>
</linearGradient>
</defs>
</svg>
