<svg width="306" height="279" viewBox="0 0 306 279" fill="none" xmlns="http://www.w3.org/2000/svg">
<path d="M110.427 207.979C102.455 178.228 71.9255 160.595 42.1668 168.57C-5.67861 181.39 -13.9861 246.011 28.7252 270.672C71.3382 295.274 123.317 256.084 110.427 207.979V207.979Z" stroke="#039BE5"/>
<path d="M297.245 194.539L201.645 28.9547C194.202 16.0619 182.183 6.83994 167.803 2.98657C119.96 -9.83542 80.4504 41.9763 105.111 84.6882L200.711 250.273C216.108 276.942 250.161 286.08 276.845 270.673C303.459 255.307 312.611 221.153 297.245 194.539V194.539Z" stroke="#039BE5"/>
<path d="M130.155 206.46L141.508 186.796L88.1948 94.4558C83.919 87.05 81.0527 79.212 79.5046 71.2532L33.6206 150.727C75.8203 137.253 120.632 162.753 130.155 206.46Z" stroke="#039BE5"/>
</svg>
