<svg width="68" height="68" viewBox="0 0 68 68" fill="none" xmlns="http://www.w3.org/2000/svg">
<path d="M29.0879 56.7311L36.7695 39.76H40.1635V56.7311H44.9861V11.2672H36.4459C31.0098 11.2672 24.533 16.984 24.533 26.2724C24.533 35.5626 32.6606 39.3134 32.6606 39.3134L23.0142 56.7311H29.0879ZM32.0664 33.516C30.8796 32.0248 29.8462 29.5435 29.8462 25.4251C29.8462 16.4033 35.0336 15.238 35.749 15.1207C35.8003 15.1123 35.8505 15.1094 35.9018 15.1094H40.0287V35.7407H36.818C34.9823 35.7407 33.2097 34.952 32.0664 33.516Z" fill="#039BE5" stroke="white" stroke-width="3"/>
<path fill-rule="evenodd" clip-rule="evenodd" d="M0.5 67.5V0.5H67.5V67.5H0.5ZM66.1701 1.8299H1.8299V66.1701H66.1701V1.8299Z" fill="#039BE5"/>
</svg>
