<svg width="287" height="287" viewBox="0 0 287 287" fill="none" xmlns="http://www.w3.org/2000/svg">
<path d="M122.459 240.871L155.363 168.174H169.902V240.871H190.56V46.1226H153.977C130.691 46.1226 102.948 70.611 102.948 110.399C102.948 150.194 137.763 166.261 137.763 166.261L96.4414 240.871H122.459ZM135.217 141.427C130.134 135.039 125.707 124.411 125.707 106.769C125.707 68.1235 147.928 63.1316 150.992 62.6293C151.212 62.5931 151.427 62.581 151.647 62.581H169.325V150.957H155.571C147.708 150.957 140.115 147.578 135.217 141.427Z" fill="#039BE5" stroke="white" stroke-width="14"/>
<path fill-rule="evenodd" clip-rule="evenodd" d="M0 287V0H287V287H0ZM281.303 5.69672H5.69672V281.303H281.303V5.69672Z" fill="#039BE5"/>
</svg>
