<svg width="370" height="370" viewBox="0 0 370 370" fill="none" xmlns="http://www.w3.org/2000/svg">
<path d="M157.876 310.53L200.297 216.808H219.04V310.53H245.673V59.4604H198.51C168.49 59.4604 132.723 91.0309 132.723 142.325C132.723 193.629 177.606 214.343 177.606 214.343L124.335 310.53H157.876ZM174.325 182.327C167.771 174.092 162.064 160.389 162.064 137.646C162.064 87.8241 190.711 81.3885 194.662 80.7409C194.945 80.6942 195.222 80.6787 195.506 80.6787H218.296V194.613H200.565C190.427 194.613 180.639 190.257 174.325 182.327Z" fill="#039BE5" stroke="white" stroke-width="19"/>
<path fill-rule="evenodd" clip-rule="evenodd" d="M0 370V0H370V370H0ZM362.656 7.34421H7.34421V362.656H362.656V7.34421Z" fill="#039BE5"/>
</svg>
