<svg width="58" height="58" viewBox="0 0 58 58" fill="none" xmlns="http://www.w3.org/2000/svg">
<path fill-rule="evenodd" clip-rule="evenodd" d="M37.0832 43.1748L25.852 31.0969L25.5725 5.57031H32.4165V28.7938L41.9406 38.3174L37.0832 43.1748ZM31.4165 29.208V6.57031H26.5835L26.8477 30.6992L37.1093 41.7344L40.5264 38.3174L31.4165 29.208ZM1.01761 30C1.53429 44.6458 13.3542 56.4657 28 56.9824V55H30V56.9824C44.6458 56.4657 56.4657 44.6458 56.9824 30H55V28H56.9824C56.4657 13.3542 44.6458 1.53429 30 1.01761V3H28V1.01761C13.3542 1.53429 1.53429 13.3542 1.01761 28H3V30H1.01761ZM0.0170014 30C0.534506 45.1981 12.8019 57.4655 28 57.983C28.332 57.9943 28.6653 58 29 58C29.3347 58 29.668 57.9943 30 57.983C45.1981 57.4655 57.4655 45.1981 57.983 30C57.9943 29.668 58 29.3347 58 29C58 28.6653 57.9943 28.332 57.983 28C57.4655 12.8019 45.1981 0.534506 30 0.0170014C29.668 0.00569778 29.3347 0 29 0C28.6653 0 28.332 0.00569778 28 0.0170014C12.8019 0.534506 0.534506 12.8019 0.0170014 28C0.00569778 28.332 0 28.6653 0 29C0 29.3347 0.00569778 29.668 0.0170014 30Z" fill="white"/>
</svg>
