<svg width="109" height="95" viewBox="0 0 109 95" fill="none" xmlns="http://www.w3.org/2000/svg">
<path d="M28.0684 11.5455L28.0684 11.5452C28.0706 9.98556 29.3405 8.71027 30.9215 8.69604H30.928C32.5118 8.7162 33.7762 9.99366 33.7742 11.5524C33.7709 13.112 32.5011 14.3865 30.9196 14.4019H30.9135C29.3291 14.3806 28.0651 13.1026 28.0684 11.5455Z" stroke="white"/>
<path d="M48.1076 76.5449L47.6183 76.4418L55.3743 39.6195C55.6491 38.3092 56.9353 37.4709 58.2443 37.7467L48.1076 76.5449ZM48.1076 76.5449L47.6183 76.4419C47.3425 77.7517 48.1807 79.0368 49.4897 79.3127L49.4898 79.3127C50.7998 79.5886 52.0838 78.7511 52.3606 77.4416L52.3607 77.4412L60.1158 40.6177C60.3916 39.3089 59.5546 38.0227 58.2444 37.7468L48.1076 76.5449ZM27.0664 57.4324L28.1005 56.5517L40.5433 45.9557L40.5433 45.9556C41.5631 45.0873 43.0927 45.2102 43.9595 46.2286L43.9597 46.2287C44.8265 47.248 44.7061 48.7776 43.6855 49.6457L33.4096 58.3979L43.6874 67.1495L43.6878 67.1499C44.7055 68.0183 44.8278 69.5467 43.9603 70.5656C43.0936 71.5838 41.563 71.707 40.544 70.8384L28.1017 60.2427L27.0664 57.4324ZM27.0664 57.4324H27.4496M27.0664 57.4324H27.4496M27.4496 57.4324C27.3188 57.7336 27.249 58.0616 27.249 58.3979C27.249 59.1074 27.5604 59.7824 28.1014 60.2424L27.4496 57.4324ZM64.8349 46.2286L64.8348 46.2287C63.968 47.2479 64.0883 48.7774 65.1087 49.6454C65.1088 49.6455 65.1089 49.6456 65.109 49.6457L75.3849 58.3979L65.1087 67.1495C65.1087 67.1495 65.1087 67.1496 65.1087 67.1496C64.0886 68.0182 63.9677 69.5469 64.835 70.5656C65.7018 71.5839 67.2314 71.7068 68.2511 70.8385L67.9269 70.4578L68.2511 70.8385L80.6936 60.2427C81.2348 59.7827 81.5463 59.1076 81.5463 58.3979C81.5463 57.6871 81.2346 57.0135 80.6945 56.5522L80.6939 56.5517L68.2511 45.9557L67.9269 46.3363L68.2511 45.9556C67.2314 45.0873 65.7018 45.2102 64.8349 46.2286Z" stroke="white"/>
<path d="M18.3828 11.5455C18.3839 10.0129 19.6393 8.73981 21.2398 8.69609C22.8385 8.74564 24.0896 10.0216 24.0887 11.5546C24.0852 13.0852 22.8306 14.3582 21.2303 14.4019C19.6303 14.3536 18.3806 13.0776 18.3828 11.5459L18.3828 11.5455ZM21.2456 8.19604V8.6208V8.19604Z" stroke="white"/>
<path d="M0.5 9.06643C0.505006 4.33795 4.33795 0.505006 9.06643 0.5H99.7277C104.456 0.505006 108.289 4.33809 108.294 9.06669V20.4902V87.9216C108.294 89.3985 107.379 91.0381 105.775 92.3285C104.181 93.6103 101.96 94.5 99.4706 94.5H8.94118C3.888 94.5 0.5 91.6421 0.5 87.9216V20.4902V9.06643Z" stroke="white"/>
<path d="M8.6963 11.5436L8.6963 11.5433C8.69851 10.0028 9.95856 8.72934 11.5529 8.69604H11.5538C13.1493 8.73527 14.4042 10.0118 14.4022 11.5518C14.3988 13.0931 13.1407 14.3656 11.5438 14.4019C9.94702 14.3609 8.69297 13.0842 8.6963 11.5436Z" stroke="white"/>
</svg>
