<svg width="59" height="58" viewBox="0 0 59 58" fill="none" xmlns="http://www.w3.org/2000/svg">
<path d="M27.5438 26.1181V19.7857H33.1292C34.8747 19.7857 36.2954 21.2066 36.2954 22.952C36.2954 24.6973 34.8746 26.1181 33.1292 26.1181H27.5438Z" stroke="white" stroke-width="1.00108"/>
<path d="M9.35257 8.85245L9.35258 8.85245C20.4892 -2.28426 38.5126 -2.2826 49.6476 8.85245C60.7844 19.989 60.7827 38.0127 49.6476 49.1476C38.511 60.2843 20.4876 60.2826 9.35257 49.1476C-1.78436 38.011 -1.78259 19.9874 9.35257 8.85245ZM21.7794 16.9035V26.118H19.8229C18.2312 26.118 16.9409 27.4083 16.9409 29C16.9409 30.5917 18.2312 31.882 19.8229 31.882H21.7794V33.3758H19.8229C18.2312 33.3758 16.9409 34.6661 16.9409 36.2578C16.9409 37.8495 18.2312 39.1398 19.8229 39.1398H21.7794V41.0964C21.7794 42.6881 23.0697 43.9784 24.6614 43.9784C26.2531 43.9784 27.5434 42.6881 27.5434 41.0964V39.1398H31.9192C33.5109 39.1398 34.8012 37.8495 34.8012 36.2578C34.8012 34.6661 33.5109 33.3758 31.9192 33.3758H27.5434V31.882H33.1289C38.0535 31.882 42.0591 27.8764 42.0591 22.9517C42.0591 18.0272 38.0534 14.0215 33.1289 14.0215H24.6614C23.0697 14.0215 21.7794 15.3118 21.7794 16.9035Z" stroke="white" stroke-width="1.00108"/>
</svg>
