<svg width="99" height="96" viewBox="0 0 99 96" fill="none" xmlns="http://www.w3.org/2000/svg">
<path d="M72.411 64.1261L97.1281 89.5296C97.4271 89.8369 97.5974 90.2566 97.5974 90.697C97.5974 91.1374 97.4271 91.5571 97.1281 91.8645C96.8295 92.1713 96.4275 92.3411 96.0113 92.3411C95.5952 92.3411 95.1932 92.1713 94.8946 91.8645L70.1586 66.4404L72.411 64.1261Z" stroke="white"/>
<path d="M2.88752 0.5H2.88754H95.2887C96.0414 0.500029 96.6297 0.748719 97.0286 1.14763C97.4276 1.54654 97.6763 2.13486 97.6763 2.88754V10.625V59.4833V72.1884C97.6763 72.9411 97.4276 73.5294 97.0286 73.9283C96.6297 74.3272 96.0414 74.5759 95.2887 74.5759H56.8845H41.2918H2.88754C2.1349 74.5759 1.54655 74.3272 1.14762 73.9283C0.748696 73.5294 0.5 72.9411 0.5 72.1884V59.4833V10.625V2.88762C0.5 2.88759 0.5 2.88756 0.5 2.88754C0.50014 2.13485 0.748803 1.54649 1.14765 1.14758C1.5465 0.74867 2.13475 0.499973 2.88752 0.5Z" stroke="white"/>
<path d="M41.2914 87.2038V74.7874H56.8841V87.2038M41.2914 87.2038H56.8841M41.2914 87.2038H36.6713C32.34 87.2038 29.7412 91.2463 29.7412 95.0001H68.4342C68.4342 90.3801 65.5467 87.2038 61.5041 87.2038C57.4616 87.2038 56.8841 87.2038 56.8841 87.2038" stroke="white"/>
<path d="M41.291 66.991H53.1299M60.3488 66.991H61.5038" stroke="white"/>
<rect x="31.5059" y="17.5" width="32.5" height="32.5" stroke="white" stroke-linecap="round" stroke-linejoin="round" stroke-dasharray="3 5"/>
<path d="M4.00586 8.25C3.6103 8.25 3.22362 8.1327 2.89472 7.91294C2.56582 7.69318 2.30948 7.38082 2.1581 7.01537C2.00673 6.64992 1.96712 6.24778 2.04429 5.85982C2.12146 5.47186 2.31194 5.11549 2.59165 4.83579C2.87135 4.55608 3.22772 4.3656 3.61568 4.28843C4.00364 4.21126 4.40577 4.25087 4.77123 4.40224C5.13668 4.55362 5.44904 4.80996 5.6688 5.13886C5.88856 5.46776 6.00586 5.85444 6.00586 6.25C6.00586 6.78043 5.79515 7.28914 5.42007 7.66421C5.045 8.03929 4.53629 8.25 4.00586 8.25ZM14.0059 8.25C13.6103 8.25 13.2236 8.1327 12.8947 7.91294C12.5658 7.69318 12.3095 7.38082 12.1581 7.01537C12.0067 6.64991 11.9671 6.24778 12.0443 5.85982C12.1215 5.47186 12.3119 5.11549 12.5916 4.83579C12.8714 4.55608 13.2277 4.3656 13.6157 4.28843C14.0036 4.21126 14.4058 4.25087 14.7712 4.40224C15.1367 4.55362 15.449 4.80996 15.6688 5.13886C15.8886 5.46776 16.0059 5.85444 16.0059 6.25C16.0059 6.78043 15.7951 7.28914 15.4201 7.66421C15.045 8.03929 14.5363 8.25 14.0059 8.25ZM24.0059 8.25C23.6103 8.25 23.2236 8.1327 22.8947 7.91294C22.5658 7.69318 22.3095 7.38082 22.1581 7.01537C22.0067 6.64991 21.9671 6.24778 22.0443 5.85982C22.1215 5.47186 22.3119 5.11549 22.5916 4.83579C22.8714 4.55608 23.2277 4.3656 23.6157 4.28843C24.0036 4.21126 24.4058 4.25087 24.7712 4.40224C25.1367 4.55362 25.449 4.80996 25.6688 5.13886C25.8886 5.46776 26.0059 5.85444 26.0059 6.25C26.0059 6.78043 25.7951 7.28914 25.4201 7.66421C25.045 8.03929 24.5363 8.25 24.0059 8.25Z" stroke="white"/>
<path d="M55.1381 41.8322L55.1394 41.8325C56.2053 42.0754 57.1828 42.6097 57.9628 43.3757C58.7428 44.1417 59.2947 45.1094 59.5569 46.1707L59.5573 46.1721L60.9522 51.7518L57.0076 55.6963L51.4279 54.3014L51.4266 54.3011C50.3652 54.0389 49.3976 53.487 48.6316 52.707C47.8655 51.927 47.3313 50.9495 47.0883 49.8836L47.088 49.8822L44.6729 39.4171L55.1381 41.8322Z" fill="#0277BD" stroke="white"/>
<path d="M59.3936 57.2268L62.7781 53.8424L69.4821 60.5464L66.0977 63.9309L59.3936 57.2268Z" fill="#0277BD" stroke="white"/>
</svg>
