<svg width="105" height="96" viewBox="0 0 105 96" fill="none" xmlns="http://www.w3.org/2000/svg">
<path d="M2.88752 0.5H2.88754H95.2887C96.0414 0.500029 96.6297 0.748719 97.0287 1.14763C97.4276 1.54654 97.6763 2.13487 97.6763 2.88754V59.4833V72.1884C97.6763 72.9411 97.4276 73.5294 97.0286 73.9283C96.6297 74.3273 96.0414 74.576 95.2887 74.576H56.8845H41.2918H2.88754C2.1349 74.576 1.54655 74.3273 1.14763 73.9283C0.748697 73.5294 0.5 72.9411 0.5 72.1884V59.4833V2.88762C0.5 2.88759 0.5 2.88756 0.5 2.88754C0.50014 2.13485 0.748803 1.54649 1.14765 1.14758C1.5465 0.74867 2.13475 0.499973 2.88752 0.5Z" stroke="white"/>
<path d="M41.2914 87.2038V74.7874H56.8841V87.2038M41.2914 87.2038H56.8841M41.2914 87.2038H36.6713C32.34 87.2038 29.7412 91.2463 29.7412 95.0001H68.4342C68.4342 90.3801 65.5467 87.2038 61.5041 87.2038C57.4616 87.2038 56.8841 87.2038 56.8841 87.2038" stroke="white"/>
<path d="M41.292 66.991H53.1309M60.3497 66.991H61.5048" stroke="white"/>
<path d="M77.4043 47.238C77.4043 46.4096 78.0759 45.738 78.9043 45.738H102.047C102.876 45.738 103.547 46.4096 103.547 47.238V85.9523V92.9999C103.547 93.8284 102.876 94.4999 102.047 94.4999H78.9043C78.0759 94.4999 77.4043 93.8284 77.4043 92.9999V85.9523V47.238Z" fill="#0277BD" stroke="white"/>
<rect x="86.583" y="88.8452" width="7.78571" height="3.2619" rx="1.5" stroke="white"/>
</svg>
