<svg width="80" height="79" viewBox="0 0 80 79" fill="none" xmlns="http://www.w3.org/2000/svg">
<path d="M39.5189 22.791C33.4161 22.791 28.4503 17.8252 28.4503 11.7224C28.4503 5.60188 33.4146 0.499583 39.5189 0.499583C45.6221 0.499583 50.5875 5.60101 50.5875 11.7224C50.5875 17.8252 45.6216 22.791 39.5189 22.791Z" stroke="white" stroke-width="0.999167"/>
<path d="M23.8228 41.3V39.486C23.8228 30.8317 30.8644 23.7901 39.5187 23.7901C48.1729 23.7901 55.2146 30.8317 55.2146 39.486V41.3H23.8228Z" stroke="white" stroke-width="0.999167"/>
<path d="M46.4598 65.7442H53.5007L39.5189 78.328L25.5371 65.7443H32.578H33.0776V65.2448V60.309V59.8094H32.578H14.8401H14.3405V60.309V67.0021L0.706516 53.3679L14.3405 39.7339V46.427V46.9266H14.8401H64.1977H64.6973V46.427V39.7339L78.3313 53.3679L64.6973 67.002V60.3089V59.8093H64.1977H46.4598H45.9602V60.3089V65.2446V65.7442H46.4598Z" stroke="white" stroke-width="0.999167"/>
</svg>
