<svg width="88" height="96" viewBox="0 0 88 96" fill="none" xmlns="http://www.w3.org/2000/svg">
<path d="M12.6943 19.9806C12.6943 15.5024 16.3381 11.8587 20.8162 11.8587C25.2944 11.8587 28.9381 15.5024 28.9381 19.9806C28.9381 24.4587 25.2944 28.1025 20.8162 28.1025C16.3381 28.1025 12.6943 24.4587 12.6943 19.9806Z" stroke="white"/>
<path d="M64.4255 23.3022C64.4255 20.4097 66.781 18.0543 69.6735 18.0543C72.566 18.0543 74.9214 20.4097 74.9214 23.3022C74.9214 26.1947 72.566 28.5502 69.6735 28.5502C66.781 28.5502 64.4255 26.1947 64.4255 23.3022Z" stroke="white"/>
<path d="M35.686 11.4958C35.686 5.43183 40.6179 0.5 46.6819 0.5C52.7459 0.5 57.6777 5.43183 57.6777 11.4958C57.6777 17.5598 52.7459 22.4917 46.6819 22.4917C40.6179 22.4917 35.686 17.5598 35.686 11.4958Z" stroke="white"/>
<path d="M34.6865 71.3167H35.1865H52.4302H52.9302V71.8167V92.126C52.9302 93.2961 52.3239 94.3799 51.3299 94.9955L34.6865 71.3167ZM34.6865 71.3167V71.8167M34.6865 71.3167V71.8167M34.6865 71.8167V86.3781C34.6865 87.6568 35.4083 88.823 36.5509 89.3959L36.5514 89.3962M34.6865 71.8167L36.5514 89.3962M36.5514 89.3962L48.0472 95.1441L48.0484 95.1447M36.5514 89.3962L48.0484 95.1447M48.0484 95.1447C48.5246 95.3812 49.0386 95.5 49.5563 95.5M48.0484 95.1447L49.5563 95.5M49.5563 95.5C50.1713 95.5 50.7879 95.3324 51.3295 94.9957L49.5563 95.5Z" stroke="white"/>
</svg>
