<svg width="67" height="55" viewBox="0 0 67 55" fill="none" xmlns="http://www.w3.org/2000/svg">
<path d="M33.9764 0.581591L33.9765 0.581625L65.014 11.5325C65.5858 11.7342 65.9686 12.2745 65.9694 12.881C65.9701 13.4876 65.5886 14.0287 65.0172 14.2318L65.1846 14.7029L65.0172 14.2318L33.9796 25.2658L33.9795 25.2658C33.8244 25.321 33.6623 25.3486 33.5001 25.3486C33.338 25.3486 33.1757 25.321 33.0206 25.2658L33.0205 25.2658L1.98302 14.2318L1.98299 14.2318C1.41149 14.0286 1.03 13.4875 1.03076 12.8811C1.03153 12.2745 1.41432 11.7343 1.98627 11.5325L1.98628 11.5325L33.0238 0.581625L33.0239 0.581591C33.332 0.472803 33.6683 0.472803 33.9764 0.581591ZM32.8574 0.110112L32.8574 0.110136L32.8574 0.110112Z" stroke="white"/>
<path d="M61.3296 36.8465V37.1356L61.5802 37.2799C62.5956 37.8643 63.2775 38.9578 63.2775 40.2107C63.2775 41.4634 62.5955 42.5571 61.5802 43.1413L61.3296 43.2856V43.5747V53.0682C61.3296 53.8589 60.6885 54.5 59.8978 54.5C59.1071 54.5 58.466 53.8589 58.466 53.0682V43.5746V43.2855L58.2154 43.1412C57.2001 42.5568 56.5181 41.4632 56.5181 40.2105C56.5181 38.9578 57.2001 37.8643 58.2154 37.2799L58.466 37.1356V36.8465V21.7225L61.3296 20.7045V36.8465Z" stroke="white"/>
<path d="M31.3914 29.8484L31.3914 29.8484C32.0701 30.0897 32.7798 30.2122 33.5001 30.2122C34.2203 30.2122 34.93 30.0897 35.6088 29.8484L35.6089 29.8484L52.3896 23.8827V31.6753C52.3896 32.5172 51.9576 33.347 50.9551 34.1597C49.9458 34.9778 48.3992 35.7414 46.2866 36.4271C42.6144 37.619 38.0719 38.28 33.5001 38.28C28.9283 38.28 24.3856 37.619 20.7136 36.4271C18.6009 35.7414 17.0544 34.9778 16.0451 34.1597C15.0426 33.347 14.6105 32.5172 14.6105 31.6753V23.8827L31.3914 29.8484Z" stroke="white"/>
</svg>
