<svg width="79" height="61" viewBox="0 0 79 61" fill="none" xmlns="http://www.w3.org/2000/svg">
<path d="M61.6887 2.09333L61.3224 1.70945L60.961 2.09789L57.4111 5.9127C57.2947 5.87964 57.1491 5.8365 56.9869 5.7845C56.5733 5.65194 56.0741 5.46881 55.677 5.25715L55.6769 5.25711L49.793 2.12271L49.793 2.12269C48.9906 1.69528 48.025 1.5 47.0648 1.5C45.6883 1.5 44.2435 1.90311 43.2053 2.70657C43.205 2.7068 43.2047 2.70704 43.2044 2.70727L34.1052 9.69395L34.1052 9.69394L34.1035 9.69528C32.3042 11.0894 31.923 13.7831 33.2177 15.6961C33.2177 15.6962 33.2178 15.6963 33.2178 15.6963L33.7573 16.4942L33.7577 16.4948C34.5937 17.727 35.9612 18.4019 37.333 18.4019C38.1065 18.4019 38.8834 18.1886 39.5673 17.7367L39.5674 17.7369L39.5781 17.7294L43.8903 14.716C44.5569 14.2785 45.4242 14.0506 46.323 14.0506C47.372 14.0506 48.4093 14.3616 49.155 14.9381L55.4007 21.2032L55.4218 21.2244L55.4454 21.243C57.0019 22.4688 59.4331 24.6529 60.8408 26.0811L66.5323 31.8728L66.9302 32.2777L67.2816 31.8319L77.3199 19.0969L77.5885 18.7561L77.289 18.4422L61.6887 2.09333Z" stroke="white"/>
<path d="M53.2754 23.8484L53.2794 23.8517L53.3395 23.9022L53.5603 24.0879C53.7466 24.2446 54.0036 24.4614 54.2866 24.7012C54.8511 25.1796 55.5237 25.7538 55.9427 26.1263L55.9553 26.1375L55.9672 26.1496L65.4924 35.8427L53.2754 23.8484ZM53.2754 23.8484L47.321 17.8774L47.2503 17.8065L47.1579 17.7683C46.9709 17.691 46.6741 17.6176 46.323 17.6176C45.9614 17.6176 45.6892 17.6964 45.5629 17.7566L45.5258 17.7743L45.4921 17.7978L41.1678 20.8158C40.022 21.5718 38.6968 21.9688 37.3356 21.9688C34.9318 21.9688 32.6486 20.7361 31.2359 18.6507L31.2358 18.6506L30.6976 17.857C29.5359 16.1415 29.0626 14.036 29.3721 11.9227L29.3721 11.9224C29.6803 9.81155 30.7283 7.97922 32.3221 6.74598C32.3224 6.74576 32.3226 6.74554 32.3229 6.74532L33.3013 5.99508L34.2569 5.26222L33.0632 5.10271C31.5791 4.90441 29.9094 5.07145 28.6551 5.65872L28.6551 5.65869L28.6503 5.66097L28.8671 6.11155L28.6503 5.66098L28.6502 5.66101L28.65 5.66114L28.6489 5.66164L28.6448 5.66362L28.6286 5.6714L28.5666 5.70121L28.3406 5.80982C28.1508 5.90095 27.8914 6.02542 27.6127 6.15881C27.0541 6.42623 26.4222 6.72759 26.1171 6.86918L26.1169 6.86928C25.473 7.16844 24.6758 7.32417 24.0161 7.40236C23.6907 7.44092 23.408 7.45961 23.2073 7.46863C23.1684 7.47038 23.1326 7.47177 23.1003 7.47286L18.5484 2.83013L18.1797 2.45411L17.8233 2.84175L1.63194 20.4511L1.32269 20.7875L1.62986 21.1257L7.71851 27.8302L8.09625 28.2462L8.46551 27.8226L9.8486 26.2364L9.84885 26.2361C11.2014 24.6824 13.0973 23.7993 15.0427 23.7993C16.8894 23.7993 18.6475 24.565 19.9938 25.9703L19.9939 25.9704L20.6491 26.654L53.2754 23.8484ZM45.7192 52.8134C45.844 54.0178 45.5077 55.271 44.6941 56.2302L44.0776 56.9587L44.077 56.9594C42.569 58.7346 39.9869 58.8409 38.3593 57.1835L38.3588 57.1829L37.8591 56.6725L37.5959 56.4036L37.7814 56.0762C39.5584 52.9406 39.1485 48.755 36.6287 46.1226L45.7192 52.8134ZM45.7192 52.8134L48.4123 55.5484L48.4124 55.5485C50.0427 57.2025 52.6245 57.0946 54.1323 55.3165L54.7489 54.5907L54.7491 54.5904C55.6046 53.5819 55.9359 52.2437 55.7566 50.9786C57.3529 51.9805 59.4439 51.6858 60.7398 50.1589L61.3578 49.4315L61.3582 49.431C62.6259 47.9346 62.7444 45.7132 61.7536 44.0804C62.9599 44.201 64.2023 43.7367 65.0812 42.6998L65.7011 41.9717L65.7021 41.9706C67.1852 40.2183 67.0985 37.4728 65.4929 35.8432L45.7192 52.8134ZM35.9617 45.4288L36.628 46.1218L20.6493 26.6542C21.4416 27.482 22.0272 28.4581 22.4026 29.5142L22.4893 29.758L22.7383 29.8281C23.9068 30.1568 24.9887 30.8075 25.8927 31.7508C25.8928 31.751 25.893 31.7511 25.8931 31.7513L26.5442 32.4331L26.5451 32.4341C27.94 33.8872 28.742 35.8581 28.7896 37.9927L28.7954 38.2511L29.0095 38.3958C29.4307 38.6804 29.8308 39.0168 30.1962 39.3998L30.1969 39.4005L30.8561 40.0884C31.7229 40.9938 32.3417 42.0814 32.7064 43.2514L32.7838 43.4999L33.0318 43.579C34.1164 43.925 35.1206 44.5516 35.9612 45.4283L35.9617 45.4288Z" stroke="white"/>
<path d="M34.469 48.7348L34.4697 48.7355C36.05 50.3879 36.1114 53.1339 34.6034 54.8597L30.876 59.1367C30.0927 60.0377 29.0255 60.5001 27.9489 60.5001C26.9366 60.5001 25.9304 60.0917 25.1589 59.284C25.1588 59.2839 25.1587 59.2838 25.1585 59.2837L24.5001 58.598L24.4999 58.5978C23.6234 57.6838 23.2145 56.436 23.2784 55.2104L22.9317 55.6032C22.9312 55.6038 22.9307 55.6043 22.9303 55.6049C22.147 56.5048 21.0806 56.9666 20.0045 56.9666C18.9926 56.9666 17.9856 56.5585 17.2129 55.753L34.469 48.7348ZM34.469 48.7348L33.8099 48.0484C33.0361 47.2413 32.0303 46.8327 31.0177 46.8327C30.5947 46.8327 30.1731 46.9042 29.7695 47.0458C30.1639 45.5439 29.8026 43.8565 28.6975 42.7032L28.6975 42.7032L28.0394 42.0165L28.039 42.0161C27.2682 41.2139 26.2717 40.8078 25.2639 40.8078C25.1071 40.8078 24.9506 40.8176 24.7952 40.8372C26.0174 39.1049 25.8736 36.5984 24.3897 35.0524C24.3897 35.0524 24.3896 35.0523 24.3896 35.0523L23.7334 34.3663L23.7333 34.3662C22.9616 33.5597 21.9579 33.1544 20.9498 33.1544C20.49 33.1544 20.0322 33.2386 19.5974 33.4049C19.9145 31.9614 19.549 30.3775 18.4908 29.272C18.4908 29.2719 18.4908 29.2719 18.4907 29.2718L17.8354 28.5867L17.835 28.5863C17.061 27.7791 16.0527 27.3707 15.0418 27.3706M34.469 48.7348L9.98136 51.4589L9.32133 50.7729L9.3203 50.7718C7.73929 49.1187 7.68222 46.3734 9.18575 44.643L9.18634 44.6423L9.46261 44.3256C9.32879 44.34 9.1943 44.3472 9.05965 44.3472C8.05721 44.3472 7.05875 43.9465 6.28803 43.1428L6.28725 43.142L5.63434 42.4581C5.6341 42.4579 5.63386 42.4576 5.63362 42.4574C4.04695 40.8068 3.99015 38.0581 5.49536 36.3307C5.49538 36.3306 5.49539 36.3306 5.49541 36.3306L12.1133 28.7336C12.8973 27.8336 13.9627 27.3691 15.0418 27.3706M15.0418 27.3706C15.0419 27.3706 15.042 27.3706 15.0422 27.3706L15.0414 27.8706V27.3706C15.0415 27.3706 15.0417 27.3706 15.0418 27.3706ZM16.5522 55.0663L17.2123 55.7524L9.98196 51.4596C10.7557 52.2663 11.7626 52.6746 12.7723 52.6746C13.6926 52.6746 14.6037 52.3376 15.3387 51.6789C15.2703 52.9031 15.6743 54.1507 16.5516 55.0657L16.5522 55.0663Z" stroke="white"/>
</svg>
