<svg width="50" height="57" viewBox="0 0 50 57" fill="none" xmlns="http://www.w3.org/2000/svg">
<path d="M12.2793 23.5586C9.61375 23.5586 7.44533 25.727 7.44533 28.3926V41.498C7.44533 44.1636 9.61375 46.332 12.2793 46.332C14.9449 46.332 17.1133 44.1636 17.1133 41.498V28.3926C17.1133 25.727 14.9449 23.5586 12.2793 23.5586Z" stroke="white"/>
<path d="M4.22266 28.3926C4.22266 27.9278 4.28399 27.4787 4.35994 27.0354C2.41797 27.6631 1 29.4669 1 31.6152V38.2754C1 40.4237 2.41797 42.2275 4.35994 42.8552C4.28399 42.4119 4.22266 41.9629 4.22266 41.498V28.3926Z" stroke="white"/>
<path d="M38.0606 23.5586C35.395 23.5586 33.2266 25.727 33.2266 28.3926V41.498C33.2266 44.1636 35.395 46.332 38.0606 46.332C38.545 46.332 39.0039 46.2388 39.4454 46.1056C38.8456 48.0939 37.0191 49.5547 34.8379 49.5547H29.7071C29.0397 47.6832 27.2679 46.332 25.1699 46.332C22.5044 46.332 20.336 48.5004 20.336 51.166C20.336 53.8316 22.5044 56 25.1699 56C27.2679 56 29.0397 54.6488 29.7071 52.7773H34.8379C39.2801 52.7773 42.8945 49.1629 42.8945 44.7207V41.498V28.3926C42.8945 25.727 40.7261 23.5586 38.0606 23.5586Z" stroke="white"/>
<path d="M45.9799 27.0354C46.0558 27.4787 46.1172 27.9278 46.1172 28.3926V41.498C46.1172 41.9629 46.0558 42.4119 45.9799 42.8552C47.9219 42.2275 49.3398 40.4237 49.3398 38.2754V31.6152C49.3398 29.4669 47.9219 27.6631 45.9799 27.0354Z" stroke="white"/>
<path d="M25.1699 1C11.8419 1 1 11.8419 1 25.1699V25.2111C1.96003 24.4842 3.07077 23.9524 4.29646 23.7143C5.04959 12.8434 14.1113 4.22266 25.1699 4.22266C36.2286 4.22266 45.2903 12.8434 46.0434 23.7141C47.269 23.9523 48.3797 24.4843 49.3398 25.211V25.1699C49.3398 11.8419 38.498 1 25.1699 1Z" stroke="white"/>
</svg>
