<svg width="95" height="95" viewBox="0 0 95 95" fill="none" xmlns="http://www.w3.org/2000/svg">
<path d="M61.8033 0C43.5048 0.00111597 28.6178 14.887 28.6178 33.1844C28.6178 40.812 31.275 48.2365 36.1082 54.15L30.4123 59.8459L29.1814 58.615L0 87.7942L7.20468 95L36.3861 65.8219L35.1462 64.5821L40.8421 58.8862C46.7568 63.7172 54.1791 66.3732 61.8045 66.3732C70.6552 66.3732 78.9848 62.9171 85.2598 56.642C91.5349 50.3669 94.9899 42.0362 94.9888 33.1855C94.9888 14.8859 80.1018 0 61.8033 0ZM7.20468 93.422L1.57798 87.7942L29.1814 60.1941L34.8092 65.8219L7.20468 93.422ZM84.4708 55.8519C78.4056 61.916 70.3572 65.2561 61.8045 65.2561C54.2717 65.2561 46.9431 62.5745 41.1669 57.7044L40.7752 57.373L34.3584 63.7931L31.2013 60.6349L37.6192 54.217L37.2889 53.8253C32.4166 48.0502 29.7327 40.7194 29.7327 33.1844C29.7327 15.5019 44.1197 1.11708 61.8022 1.11597C79.4858 1.11597 93.8706 15.503 93.8706 33.1855C93.874 41.7383 90.5339 49.7888 84.4708 55.8519Z" fill="white"/>
<path d="M61.8034 5.57983C54.4402 5.57983 47.5123 8.45456 42.2941 13.6739C37.0747 18.8944 34.2 25.8235 34.2 33.1844C34.2 40.5475 37.0747 47.4766 42.2941 52.6948C47.3884 57.7903 54.1456 60.6651 61.328 60.7867L62.0667 60.79C77.1446 60.6517 89.4113 48.2667 89.4113 33.1844C89.4113 17.9626 77.0263 5.57983 61.8034 5.57983ZM62.0634 59.6741L61.3403 59.6707C54.4559 59.5535 47.9721 56.796 43.0842 51.9058C38.0757 46.8985 35.317 40.2496 35.317 33.1844C35.317 26.1203 38.0757 19.4725 43.0842 14.4629C48.0915 9.45447 54.7404 6.6958 61.8045 6.6958C76.4114 6.6958 88.2953 18.5786 88.2953 33.1844C88.2953 47.6573 76.5241 59.5413 62.0634 59.6741Z" fill="white"/>
</svg>
