<svg width="43" height="59" viewBox="0 0 43 59" fill="none" xmlns="http://www.w3.org/2000/svg">
<path d="M30.6067 40.9469L33.2132 36.7173L37.917 35.1131L38.4381 30.1727L41.9771 26.6887L40.2945 22.0123L41.9771 17.3357L38.4383 13.8517L37.9171 8.91141L33.2133 7.30717L30.6068 3.07749L25.6766 3.67276L21.4886 1L17.3005 3.67298L12.3705 3.07771L9.76396 7.30729L5.06013 8.91152L4.539 13.8518L1 17.3358L2.68261 22.0124L1 26.6889L4.53889 30.1728L5.06002 35.1132L9.76385 36.7175L12.3704 40.947L17.3005 40.3519L21.4886 43.0247L25.6766 40.3519L30.6067 40.9469ZM7.07951 22.0124C7.07951 14.0672 13.5434 7.60331 21.4886 7.60331C29.4337 7.60331 35.8976 14.0672 35.8976 22.0124C35.8976 29.9575 29.4337 36.4214 21.4886 36.4214C13.5434 36.4214 7.07951 29.9575 7.07951 22.0124V22.0124Z" stroke="white"/>
<path d="M15.1866 25.2503H14.6866V25.7503V27.2801V27.7801H15.1866H20.8551H21.3551V27.2801V25.7503V25.2503H20.8551H19.7161V17.3227V16.8227H19.2161H17.4677H17.2857L17.1463 16.9397L14.0457 19.5417L13.6822 19.8468L13.9678 20.2257L14.6371 21.1135L14.6371 21.1135L14.6401 21.1174C14.7363 21.2424 14.8601 21.3377 14.984 21.412L14.9964 21.4195L15.0093 21.4262C15.1832 21.5173 15.3711 21.5584 15.5623 21.5584C15.6867 21.5584 15.8076 21.5376 15.9231 21.5015L15.9365 21.4973L15.9495 21.4924C16.0822 21.4427 16.2014 21.369 16.3078 21.2826L16.3078 21.2826L16.3119 21.2792L16.5989 21.0409V25.2503H15.1866ZM21.4554 19.9003L21.4554 19.9003L21.4545 19.9034C21.2564 20.5969 21.1621 21.3989 21.1621 22.3014C21.1621 23.2039 21.2564 24.0058 21.4545 24.6993L21.4545 24.6993L21.4554 24.7025C21.6556 25.3861 21.938 25.9751 22.3133 26.4546C22.686 26.9309 23.1348 27.2955 23.6594 27.5364L23.6611 27.5372C24.1811 27.7736 24.7417 27.8894 25.3364 27.8894C25.9307 27.8894 26.491 27.7737 27.0108 27.5376C27.5439 27.2975 27.9981 26.9334 28.3722 26.4558C28.7525 25.9761 29.0374 25.3867 29.2378 24.7025C29.4413 24.0078 29.538 23.2048 29.538 22.3014C29.538 21.398 29.4413 20.5949 29.2378 19.9003C29.0375 19.2161 28.7525 18.6267 28.3722 18.147C27.998 17.6692 27.5432 17.3068 27.0089 17.0711C26.4897 16.8356 25.93 16.7202 25.3364 16.7202C24.7421 16.7202 24.1819 16.8358 23.6622 17.0719C23.136 17.3083 22.6864 17.6714 22.3133 18.1482C21.938 18.6277 21.6556 19.2166 21.4554 19.9003ZM26.2321 20.7106L26.2323 20.7116C26.31 21.1044 26.3525 21.631 26.3525 22.3014C26.3525 22.9766 26.31 23.5054 26.2323 23.898C26.1514 24.3066 26.0491 24.5948 25.9403 24.7851L25.9389 24.7877C25.829 24.9826 25.73 25.07 25.6609 25.1075C25.5438 25.1653 25.4371 25.1888 25.3364 25.1888C25.2364 25.1888 25.1306 25.1656 25.0146 25.1089C24.9491 25.0717 24.8526 24.9848 24.7434 24.7924C24.6403 24.5983 24.5422 24.3077 24.4614 23.9005C24.3877 23.5059 24.3475 22.9761 24.3475 22.3014C24.3475 21.6312 24.3877 21.1034 24.4615 20.7086C24.5427 20.295 24.641 20.006 24.7424 19.8188C24.8549 19.6202 24.9518 19.5396 25.0113 19.5091L25.0114 19.5091L25.0156 19.5069C25.1335 19.445 25.2387 19.4208 25.3364 19.4208C25.4341 19.4208 25.5393 19.445 25.6572 19.5069L25.6571 19.507L25.666 19.5114C25.7291 19.543 25.8273 19.624 25.9389 19.8219L25.9389 19.8219L25.9423 19.8278C26.0489 20.0111 26.1511 20.2968 26.2321 20.7106Z" stroke="white"/>
<path d="M16.5121 43.8132L10.6474 44.5213L7.54876 39.4929L6.49538 39.1338L1.95175 53.3355L10.1316 52.8856L16.5313 58L20.2973 46.2291L16.5121 43.8132Z" stroke="white"/>
<path d="M35.4284 39.493L32.3297 44.5213L26.4651 43.8132L22.6799 46.2291L26.4459 58L32.8456 52.8856L41.0254 53.3355L36.4818 39.1338L35.4284 39.493Z" stroke="white"/>
</svg>
