<svg width="67" height="55" viewBox="0 0 67 55" fill="none" xmlns="http://www.w3.org/2000/svg">
<path d="M53.2561 5.14198V42.9556L38.6951 33.9319V14.1656L53.2561 5.14198Z" stroke="white"/>
<path d="M19.5579 17.8645H20.0579V17.3645V14.6462H33.9405V32.9083V32.9825L33.9621 33.0536L37.5207 44.7682H27.5062L23.8565 32.2408L23.7516 31.8807H23.3765H20.0579V29.1621V28.6621H19.5579H18.9878C15.7863 28.6621 13.2317 26.2124 13.2317 23.2633C13.2317 20.3141 15.7863 17.8645 18.9878 17.8645H19.5579Z" stroke="white"/>
<mask id="path-3-outside-1" maskUnits="userSpaceOnUse" x="54.2107" y="34.2571" width="12" height="21" fill="black">
<rect fill="white" x="54.2107" y="34.2571" width="12" height="21"/>
<path fill-rule="evenodd" clip-rule="evenodd" d="M63.2299 53.865H65.2038V35.2571H61.7083C59.4834 35.2571 56.8326 37.597 56.8326 41.3986C56.8326 45.2008 60.159 46.7361 60.159 46.7361L56.2107 53.865H58.6968L61.8407 46.9189H63.2299V53.865ZM59.007 41.0517C59.007 37.3592 61.1301 36.8822 61.423 36.8344C61.4441 36.8308 61.4644 36.8296 61.4854 36.8296H63.1747V45.2738H61.8604C61.1092 45.2738 60.3837 44.951 59.9158 44.3633C59.43 43.7528 59.007 42.7374 59.007 41.0517Z"/>
</mask>
<path d="M65.2038 53.865V54.865H66.2038V53.865H65.2038ZM63.2299 53.865H62.2299V54.865H63.2299V53.865ZM65.2038 35.2571H66.2038V34.2571H65.2038V35.2571ZM60.159 46.7361L61.0338 47.2206L61.5553 46.2791L60.5781 45.8281L60.159 46.7361ZM56.2107 53.865L55.3359 53.3805L54.5137 54.865H56.2107V53.865ZM58.6968 53.865V54.865H59.3418L59.6078 54.2773L58.6968 53.865ZM61.8407 46.9189V45.9189H61.1956L60.9296 46.5066L61.8407 46.9189ZM63.2299 46.9189H64.2299V45.9189H63.2299V46.9189ZM61.423 36.8344L61.5842 37.8213L61.5892 37.8205L61.423 36.8344ZM63.1747 36.8296H64.1747V35.8296H63.1747V36.8296ZM63.1747 45.2738V46.2738H64.1747V45.2738H63.1747ZM59.9158 44.3633L59.1333 44.986L59.1335 44.9862L59.9158 44.3633ZM65.2038 52.865H63.2299V54.865H65.2038V52.865ZM64.2038 35.2571V53.865H66.2038V35.2571H64.2038ZM61.7083 36.2571H65.2038V34.2571H61.7083V36.2571ZM57.8326 41.3986C57.8326 38.0337 60.1446 36.2571 61.7083 36.2571V34.2571C58.8222 34.2571 55.8326 37.1603 55.8326 41.3986H57.8326ZM60.159 46.7361C60.5781 45.8281 60.5785 45.8283 60.5789 45.8285C60.579 45.8285 60.5794 45.8287 60.5796 45.8288C60.5801 45.829 60.5805 45.8292 60.5809 45.8294C60.5816 45.8297 60.5821 45.83 60.5824 45.8301C60.5831 45.8305 60.583 45.8304 60.5822 45.83C60.5806 45.8292 60.576 45.827 60.5686 45.8233C60.554 45.816 60.5284 45.8029 60.4934 45.7839C60.4234 45.7459 60.3167 45.6847 60.1855 45.5991C59.9216 45.4271 59.5673 45.1623 59.2143 44.7976C58.5144 44.0746 57.8326 42.9775 57.8326 41.3986H55.8326C55.8326 43.6219 56.814 45.1935 57.7773 46.1887C58.2559 46.6831 58.7332 47.0398 59.0931 47.2744C59.2737 47.3922 59.4269 47.4806 59.5388 47.5414C59.5948 47.5718 59.6407 47.5955 59.6747 47.6125C59.6918 47.621 59.7059 47.6278 59.7168 47.6331C59.7223 47.6357 59.727 47.6379 59.7308 47.6398C59.7328 47.6407 59.7345 47.6415 59.736 47.6422C59.7368 47.6426 59.7375 47.6429 59.7382 47.6432C59.7385 47.6433 59.739 47.6436 59.7391 47.6436C59.7396 47.6438 59.74 47.644 60.159 46.7361ZM57.0855 54.3495L61.0338 47.2206L59.2843 46.2516L55.3359 53.3805L57.0855 54.3495ZM58.6968 52.865H56.2107V54.865H58.6968V52.865ZM60.9296 46.5066L57.7857 53.4526L59.6078 54.2773L62.7517 47.3313L60.9296 46.5066ZM63.2299 45.9189H61.8407V47.9189H63.2299V45.9189ZM64.2299 53.865V46.9189H62.2299V53.865H64.2299ZM61.2618 35.8474C60.9865 35.8924 60.153 36.0882 59.3863 36.8812C58.6022 37.6921 58.007 39.0037 58.007 41.0517H60.007C60.007 39.4072 60.4734 38.634 60.8241 38.2714C61.1921 37.8908 61.5667 37.8242 61.5842 37.8213L61.2618 35.8474ZM61.4854 35.8296C61.4242 35.8296 61.3461 35.8332 61.2568 35.8483L61.5892 37.8205C61.542 37.8284 61.5047 37.8296 61.4854 37.8296V35.8296ZM63.1747 35.8296H61.4854V37.8296H63.1747V35.8296ZM64.1747 45.2738V36.8296H62.1747V45.2738H64.1747ZM61.8604 46.2738H63.1747V44.2738H61.8604V46.2738ZM59.1335 44.9862C59.8061 45.8309 60.8294 46.2738 61.8604 46.2738V44.2738C61.389 44.2738 60.9614 44.0711 60.6981 43.7404L59.1335 44.9862ZM58.007 41.0517C58.007 42.9078 58.4755 44.1593 59.1333 44.986L60.6983 43.7407C60.3845 43.3464 60.007 42.567 60.007 41.0517H58.007Z" fill="white" mask="url(#path-3-outside-1)"/>
<path d="M14.1342 2.83768L12.0279 4.94388L2.8396 2.83951C4.349 1.3302 6.35328 0.5 8.48781 0.5C10.6215 0.5 12.625 1.32952 14.1342 2.83768Z" stroke="white"/>
<path d="M14.055 14.216L11.9508 12.1118C12.3579 11.7228 12.7015 11.2627 12.9614 10.7457L13.3256 10.0211H12.5146H8.49049V7.04248H16.3452C16.4317 7.51573 16.4756 8.0022 16.4756 8.48791C16.4756 10.6225 15.6454 12.6268 14.1361 14.1362C14.1092 14.163 14.0822 14.1896 14.055 14.216Z" stroke="white"/>
<path d="M10.2117 13.1935C9.67059 13.3909 9.08899 13.497 8.48781 13.497C7.06502 13.497 5.7797 12.9005 4.86797 11.9468L2.7597 14.0551C2.78611 14.0822 2.81273 14.1092 2.83956 14.1361M10.2117 13.1935L2.83956 14.1361M10.2117 13.1935L12.4472 15.429M10.2117 13.1935L12.4472 15.429M2.83956 14.1361C4.34896 15.6454 6.35325 16.4757 8.48781 16.4757C9.9007 16.4757 11.2554 16.1116 12.4472 15.429M2.83956 14.1361L12.4472 15.429" stroke="white"/>
<path d="M3.47867 8.48783C3.47867 9.09212 3.58647 9.6724 3.78388 10.21L1.54666 12.4472C0.864054 11.2554 0.500008 9.90071 0.500008 8.48783C0.500008 7.07495 0.864054 5.72022 1.54666 4.52845L3.78388 6.76567C3.58647 7.30326 3.47867 7.88354 3.47867 8.48783Z" stroke="white"/>
</svg>
