<svg width="58" height="55" viewBox="0 0 58 55" fill="none" xmlns="http://www.w3.org/2000/svg">
<path d="M17.9179 47.3349H18.4258L22.3313 47.3349C25.4209 47.3351 27.9233 44.8002 27.9207 41.671V41.6704L27.9216 39.1459C26.9108 38.9579 25.8921 38.8165 24.8618 38.712L24.8597 41.6706C24.8597 41.671 24.8597 41.6713 24.8597 41.6716V41.6723L24.3597 41.6719L17.9179 47.3349ZM17.9179 47.3349L17.9259 47.8427M17.9179 47.3349L17.9259 47.8427M17.9259 47.8427L17.9735 50.8926C17.9714 52.8883 16.3693 54.5 14.4123 54.5C12.4506 54.5001 10.8501 52.8766 10.8526 50.8938H10.8527M17.9259 47.8427L10.8527 50.8938M10.8527 50.8938L10.8525 50.8854M10.8527 50.8938L10.8525 50.8854M10.8525 50.8854L10.6585 38.4112M10.8525 50.8854L10.6585 38.4112M10.6585 38.4112H17.7782H10.6585ZM57.4972 42.8073V42.8073C57.4974 44.8099 55.9011 46.417 53.9375 46.417C51.98 46.4169 50.3778 44.8039 50.3778 42.8073L50.3765 4.11286C50.3777 2.11712 51.9803 0.502894 53.9389 0.5C55.881 0.502807 57.4976 2.10759 57.5 4.11461L57.4972 42.8073ZM45.3166 6.29318L45.318 40.6263L45.2319 40.5681L45.2315 40.5678C39.1967 36.4964 32.0136 34.2349 24.8609 33.5929V13.4605C32.0206 12.8128 39.2025 10.4203 45.2315 6.35069L45.2317 6.35058L45.3166 6.29318ZM6.09085 13.7502C6.09087 13.7502 6.09089 13.7502 6.0909 13.7502L19.8012 13.7516L19.8013 33.3016L6.09092 33.3016C3.0016 33.3015 0.5 30.7654 0.5 27.6356L0.5 19.4162C0.5 16.2737 3.01398 13.7502 6.09085 13.7502ZM7.62076 23.5274C7.62076 24.933 8.74732 26.0823 10.1506 26.0823H14.2103C15.6136 26.0823 16.7402 24.933 16.7402 23.5274C16.7402 22.1219 15.6136 20.9726 14.2103 20.9726H10.1506C8.74732 20.9726 7.62076 22.1219 7.62076 23.5274Z" stroke="white"/>
</svg>
