<svg width="88" height="80" viewBox="0 0 88 80" fill="none" xmlns="http://www.w3.org/2000/svg">
<path d="M42.0438 26.1181V19.7857H47.6292C49.3747 19.7857 50.7954 21.2066 50.7954 22.952C50.7954 24.6973 49.3746 26.1181 47.6292 26.1181H42.0438Z" stroke="white" stroke-width="1.00108"/>
<path d="M23.8526 8.85245L23.8526 8.85245C34.9892 -2.28426 53.0126 -2.2826 64.1476 8.85245C75.2844 19.989 75.2827 38.0127 64.1476 49.1476C53.011 60.2843 34.9876 60.2826 23.8526 49.1476C12.7156 38.011 12.7174 19.9874 23.8526 8.85245ZM36.2794 16.9035V26.118H34.3229C32.7312 26.118 31.4409 27.4083 31.4409 29C31.4409 30.5917 32.7312 31.882 34.3229 31.882H36.2794V33.3758H34.3229C32.7312 33.3758 31.4409 34.6661 31.4409 36.2578C31.4409 37.8495 32.7312 39.1398 34.3229 39.1398H36.2794V41.0964C36.2794 42.6881 37.5697 43.9784 39.1614 43.9784C40.7531 43.9784 42.0434 42.6881 42.0434 41.0964V39.1398H46.4192C48.0109 39.1398 49.3012 37.8495 49.3012 36.2578C49.3012 34.6661 48.0109 33.3758 46.4192 33.3758H42.0434V31.882H47.6289C52.5535 31.882 56.5591 27.8764 56.5591 22.9517C56.5591 18.0272 52.5534 14.0215 47.6289 14.0215H39.1614C37.5697 14.0215 36.2794 15.3118 36.2794 16.9035Z" stroke="white" stroke-width="1.00108"/>
<rect x="0.5" y="45.5" width="87" height="26" fill="#0277BD" stroke="white"/>
<path d="M47.2572 70.746C48.5216 69.3793 49.9407 69.9146 51.8404 70.2036C53.4724 70.4546 55.0794 69.9967 54.9724 69.1152C54.8035 67.689 54.5656 67.0514 54.0243 65.2041C53.5925 63.735 52.773 61.0872 52.0271 58.5559C51.0279 55.1693 50.7389 53.5968 52.0688 53.2043C53.5021 52.7867 54.3241 54.8232 55.0687 57.6471C55.9168 60.8612 56.3629 62.2803 56.6127 62.2053C57.0528 62.0792 56.4509 60.7042 57.6024 60.3651C59.0417 59.9464 59.3201 61.0717 59.7233 60.9587C60.1265 60.8374 59.9898 59.6978 61.1376 59.3624C62.2915 59.0293 62.8708 60.4496 63.3466 60.308C63.8176 60.1689 63.8069 59.6562 64.5182 59.4528C65.2308 59.241 67.9119 60.4413 69.4464 65.6835C71.3722 72.2746 69.2026 73.4998 69.8604 75.7313L61.2637 79.0001C60.5679 77.3264 58.4125 77.2027 56.5057 76.1357C54.5846 75.0545 53.2797 72.9478 48.273 73.0501C46.39 73.0882 46.4792 71.587 47.2572 70.746Z" fill="#0277BD" stroke="white"/>
<path d="M49.3503 55.5355H46.7361M49.8731 53.1827L47.5203 51.3528M51.1802 51.8756L49.8731 49M54.0559 51.8756L55.6244 49.5228M55.6244 53.967L57.7158 53.1827" stroke="white"/>
</svg>
