<svg width="140" height="79" viewBox="0 0 140 79" fill="none" xmlns="http://www.w3.org/2000/svg">
<path d="M86.8513 50.067L86.8515 50.0671C94.3895 54.1802 99.5022 62.1749 99.5022 71.3654V78.5001H40.8157V71.3654C40.8157 62.2926 45.7999 54.381 53.1825 50.2251L53.1827 50.225C56.6921 48.2467 60.7449 47.1169 65.0641 47.1169H75.2537C79.4553 47.1169 83.4063 48.1852 86.8513 50.067Z" stroke="white"/>
<path d="M106.76 40.3347H115.231C128.56 40.3347 139.405 51.1803 139.405 64.5094V74.4558H108.7V71.3653C108.7 62.4313 105.221 54.03 98.9049 47.7143C97.4583 46.2676 95.9022 44.9683 94.2538 43.83C97.9054 41.6108 102.185 40.3347 106.76 40.3347Z" stroke="white"/>
<path d="M24.6747 40.3347H33.1455C37.8132 40.3347 42.1732 41.6641 45.8714 43.9653C44.2948 45.0713 42.8051 46.3249 41.4158 47.7143C35.1001 54.0299 31.6181 62.4312 31.6181 71.3653V74.4558H0.5V64.5094C0.5 51.1803 11.3456 40.3347 24.6747 40.3347Z" stroke="white"/>
<path d="M110.854 3.22566L110.856 3.22563C110.898 3.22511 110.941 3.22485 110.982 3.22485C119.795 3.22485 127.048 10.7521 127.125 20.122C127.162 24.6285 125.548 28.8849 122.586 32.1128C119.554 35.4166 115.489 37.2491 111.135 37.285L111.133 37.2851C111.092 37.2856 111.049 37.2858 111.007 37.2858C102.195 37.2858 94.9421 29.7586 94.8646 20.3887C94.7869 10.9739 101.985 3.29887 110.854 3.22566ZM94.3647 20.3928C94.4442 30.0126 101.897 37.7858 111.007 37.7858C111.051 37.7858 111.096 37.7856 111.14 37.785L94.3647 20.3928Z" stroke="white"/>
<path d="M28.7691 3.22566L28.7713 3.22563C28.8128 3.22511 28.8558 3.22485 28.8973 3.22485C37.7095 3.22485 44.9628 10.7521 45.0402 20.122C45.0775 24.6285 43.4634 28.8849 40.5011 32.1128C37.4693 35.4166 33.4038 37.2491 29.0505 37.285L29.0484 37.2851C29.0068 37.2856 28.9641 37.2858 28.9224 37.2858C20.1104 37.2858 12.8569 29.7586 12.7797 20.3887L12.2797 20.3928L12.7797 20.3887C12.702 10.9739 19.9 3.29887 28.7691 3.22566Z" stroke="white"/>
<path d="M62.1897 38.1173L62.1894 38.1171C55.8771 34.9517 51.4888 28.1421 51.4888 20.2562C51.4888 9.33549 59.8897 0.5 70.1601 0.5C80.4306 0.5 88.8315 9.33549 88.8315 20.2562C88.8315 28.1421 84.4432 34.9517 78.1308 38.1171L78.1306 38.1173C75.7114 39.3322 73.009 40.0096 70.1601 40.0096C67.3112 40.0096 64.6089 39.3322 62.1897 38.1173Z" stroke="white"/>
</svg>
