<svg width="79" height="79" viewBox="0 0 79 79" fill="none" xmlns="http://www.w3.org/2000/svg">
<path d="M36.6539 35.7557V26.7681H44.4429C46.9204 26.7681 48.9366 28.7846 48.9366 31.262C48.9366 33.7393 46.9202 35.7557 44.4429 35.7557H36.6539Z" stroke="white" stroke-width="1.00108"/>
<path d="M11.9297 11.9295L11.9297 11.9295C27.1692 -3.31025 51.8331 -3.30797 67.0705 11.9295L67.4245 11.5756L67.0705 11.9295C82.3104 27.1691 82.308 51.8332 67.0705 67.0705C51.831 82.3102 27.1671 82.308 11.9297 67.0705L11.5757 67.4245L11.9297 67.0705C-3.31038 51.8309 -3.30795 27.1668 11.9297 11.9295ZM29.1652 23.0238V35.7557H26.3191C24.2512 35.7557 22.5748 37.432 22.5748 39.4999C22.5748 41.5678 24.2512 43.2442 26.3191 43.2442H29.1652V45.6413H26.3191C24.2512 45.6413 22.5748 47.3177 22.5748 49.3856C22.5748 51.4535 24.2512 53.1299 26.3191 53.1299H29.1652V55.9761C29.1652 58.044 30.8415 59.7204 32.9095 59.7204C34.9774 59.7204 36.6537 58.044 36.6537 55.9761V53.1299H42.7951C44.863 53.1299 46.5394 51.4535 46.5394 49.3856C46.5394 47.3177 44.863 45.6413 42.7951 45.6413H36.6537V43.2442H44.4428C51.0504 43.2442 56.425 37.8695 56.425 31.2618C56.425 24.6543 51.0502 19.2795 44.4428 19.2795H32.9095C30.8415 19.2795 29.1652 20.9559 29.1652 23.0238Z" stroke="white" stroke-width="1.00108"/>
</svg>
