<svg width="62" height="57" viewBox="0 0 62 57" fill="none" xmlns="http://www.w3.org/2000/svg">
<path fill-rule="evenodd" clip-rule="evenodd" d="M21.2211 17.8524C16.1072 8.99505 24.2971 -1.74833 34.2206 0.91118C34.2206 0.911181 34.2206 0.911179 34.2206 0.91118C37.2014 1.70994 39.695 3.62321 41.2379 6.29579L60.2032 39.1449C63.3896 44.6638 61.4923 51.7451 55.9734 54.9316C50.4403 58.1262 43.3792 56.2312 40.1867 50.7015L21.2211 17.8524ZM33.9617 1.87709C24.9027 -0.550719 17.4166 9.26303 22.0872 17.3523L41.0527 50.2015C43.9692 55.2531 50.4188 56.9839 55.4733 54.0656C60.514 51.1552 62.2475 44.6855 59.3372 39.6449L40.3718 6.79577C38.9616 4.35293 36.6864 2.60722 33.9617 1.87709ZM16.8094 13.5293L17.0647 14.8418C17.3614 16.3673 17.9108 17.8699 18.7309 19.2903L29.4516 37.859L26.4086 43.1295L26.1334 41.8664C24.3074 33.4857 15.7161 28.5959 7.62333 31.1797L6.39192 31.5729L16.8094 13.5293ZM8.51446 29.8965C16.4035 28.0463 24.4414 32.629 26.7994 40.4527L28.2969 37.859L17.8648 19.7903C17.2118 18.6592 16.719 17.4786 16.3789 16.275L8.51446 29.8965ZM9.03738 33.7602C15.2078 32.1067 21.5385 35.7631 23.1914 41.9319C25.8653 51.9109 15.0847 60.0319 6.25021 54.9315C-2.60694 49.8175 -0.886609 36.4193 9.03738 33.7602ZM22.2255 42.1907C20.7155 36.5553 14.933 33.2156 9.29621 34.7261C0.236765 37.1535 -1.33901 49.3949 6.75021 54.0654C14.8231 58.7262 24.6658 51.2981 22.2255 42.1907Z" fill="white"/>
</svg>
