<svg width="58" height="56" viewBox="0 0 58 56" fill="none" xmlns="http://www.w3.org/2000/svg">
<path d="M34.1803 28.0371L28.8401 26.8047L30.0725 32.1449C30.1977 32.694 30.4729 33.1975 30.8675 33.5994C31.2621 34.0012 31.7606 34.2855 32.3073 34.4206L35.0876 35.1156L37.1511 33.0522L36.456 30.2719C36.3209 29.7251 36.0366 29.2267 35.6348 28.8321C35.233 28.4374 34.7294 28.1622 34.1803 28.0371V28.0371Z" stroke="white"/>
<path d="M36.8303 36.2429L38.2695 34.8037L42.5871 39.1212L41.1478 40.5605L36.8303 36.2429Z" stroke="white"/>
<path d="M42.5966 42.0005L54.8319 54.2358C55.0228 54.4267 55.2817 54.5339 55.5517 54.5339C55.8216 54.5339 56.0805 54.4267 56.2714 54.2358C56.4623 54.0449 56.5695 53.786 56.5695 53.5161C56.5695 53.2461 56.4623 52.9872 56.2714 52.7963L44.0361 40.5615L42.5966 42.0005Z" stroke="white"/>
<path d="M8.64291 16.7856H17.8215V25.9642H8.64291V16.7856Z" stroke="white"/>
<path d="M55.9813 44.2874C55.9812 44.2874 55.9811 44.2874 55.981 44.2874L51.3461 44.2874L44.2032 37.1445H56.4994V43.769C56.4992 43.9064 56.4446 44.0382 56.3474 44.1354C56.2503 44.2325 56.1186 44.2872 55.9813 44.2874Z" stroke="white"/>
<path d="M0.652012 0.652012C0.749144 0.55488 0.880819 0.500218 1.01818 0.5H55.9819C56.1192 0.500218 56.2509 0.55488 56.348 0.652011L56.7016 0.298458L56.348 0.652014C56.4452 0.749201 56.4999 0.880971 56.5 1.01842V5.60715H0.5V1.01818C0.500218 0.880819 0.55488 0.749144 0.652012 0.652012Z" stroke="white"/>
<path d="M26.4904 25.6771L26.0032 25.7896C25.9453 25.5387 25.9522 25.2773 26.0231 25.0298C26.0941 24.7824 26.2269 24.557 26.4089 24.375C26.5909 24.1929 26.8163 24.0602 27.0637 23.9892C27.3112 23.9183 27.5726 23.9114 27.8235 23.9693L34.7491 25.5675C34.7493 25.5676 34.7496 25.5676 34.7499 25.5677C35.755 25.7969 36.6768 26.3008 37.4125 27.0232C38.148 27.7454 38.6685 28.6577 38.9161 29.6584L26.4904 25.6771ZM26.4904 25.6771L26.0032 25.7896L27.6017 32.7162C27.6017 32.7162 27.6017 32.7163 27.6017 32.7163C27.7139 33.2032 27.8905 33.6714 28.1258 34.1088H0.5V8.64453H56.5V34.1088H41.1681L39.6489 32.5902L38.9164 29.6596L26.4904 25.6771Z" stroke="white"/>
<path d="M41.2957 44.2874L1.01842 44.2874C1.01831 44.2874 1.0182 44.2874 1.01809 44.2874C0.88076 44.2872 0.749121 44.2325 0.652012 44.1354C0.55488 44.0383 0.500218 43.9066 0.5 43.7692V37.1445H32.7425L34.6231 37.6146L41.2957 44.2874Z" stroke="white"/>
<path d="M23.25 27.3367V30.3367H19.5" stroke="white"/>
<path d="M3 27.3367V30.3367H6.37501" stroke="white"/>
<path d="M3 14.6636V11.6636H6.37501" stroke="white"/>
<path d="M23.25 14.6636V11.6636H19.5" stroke="white"/>
<path d="M18 11.6633H15" stroke="white"/>
<path d="M18 30.3359H15" stroke="white"/>
<path d="M11.25 11.6633H8.25001" stroke="white"/>
<path d="M11.25 30.3359H8.25" stroke="white"/>
<path d="M2.99995 19.5L2.99995 16.5" stroke="white"/>
<path d="M2.99995 25.0867L2.99995 22.0867" stroke="white"/>
<path d="M23.25 25.0867L23.25 22.0867" stroke="white"/>
<path d="M23.25 19.5L23.25 16.5" stroke="white"/>
<circle cx="3" cy="3" r="1" fill="white"/>
<circle cx="6" cy="3" r="1" fill="white"/>
<circle cx="9" cy="3" r="1" fill="white"/>
</svg>
