<svg width="109" height="81" viewBox="0 0 109 81" fill="none" xmlns="http://www.w3.org/2000/svg">
<path d="M68.2342 80C90.0494 80 107.734 62.3152 107.734 40.5C107.734 18.6848 90.0494 1 68.2342 1M68.2342 80C62.4785 80 57.0103 78.769 52.0786 76.5558C46.2537 73.9418 41.1772 69.9577 37.2592 65.0138M68.2342 80H22.4096M68.2342 1H22.8304M68.2342 1C55.5842 1 44.323 6.94649 37.0936 16.1966M37.0936 16.1966H6.62819M37.0936 16.1966C34.5583 19.4405 32.5189 23.0907 31.0893 27.0332M31.0893 27.0332H16.4127M31.0893 27.0332C30.1752 29.5539 29.5104 32.194 29.1247 34.9239M29.1247 34.9239C28.8673 36.7456 28.7342 38.6073 28.7342 40.5C28.7342 42.3928 28.8673 44.2544 29.1247 46.0761M29.1247 34.9239H0M29.1247 46.0761H0M29.1247 46.0761C29.5104 48.806 30.1752 51.4461 31.0893 53.9668M31.0893 53.9668H16.4127M31.0893 53.9668C32.5499 57.9948 34.647 61.7176 37.2592 65.0138M37.2592 65.0138H6.83861" stroke="white"/>
<path d="M98.065 40.5C98.065 56.975 84.7094 70.3306 68.2344 70.3306C51.7594 70.3306 38.4038 56.975 38.4038 40.5C38.4038 24.025 51.7594 10.6694 68.2344 10.6694C84.7094 10.6694 98.065 24.025 98.065 40.5Z" stroke="white"/>
<path d="M68.2345 20.7445C67.626 20.7445 67.1328 20.2514 67.1328 19.643V17.1982C67.1328 16.5898 67.6258 16.0967 68.2345 16.0967C68.8431 16.0967 69.336 16.5897 69.336 17.1982V19.6428C69.336 20.2514 68.8429 20.7445 68.2345 20.7445Z" fill="white" stroke="#0277BD"/>
<path d="M82.2033 26.5306C82.4187 26.7458 82.7 26.8533 82.9826 26.8533C83.2653 26.8533 83.5464 26.7458 83.7615 26.5307L85.49 24.8022C85.49 24.8021 85.49 24.8021 85.4901 24.8021C85.9201 24.3718 85.9202 23.6745 85.4902 23.2442C85.0599 22.8142 84.3624 22.8141 83.932 23.244L83.9319 23.2442M82.2033 26.5306L83.5785 22.8905L83.9319 23.2442M82.2033 26.5306C81.7733 26.1002 81.7734 25.4029 82.2034 24.9726M82.2033 26.5306L82.2034 24.9726M83.9319 23.2442L82.2035 24.9726M83.9319 23.2442L82.2035 24.9726M82.2035 24.9726C82.2035 24.9726 82.2035 24.9726 82.2034 24.9726M82.2035 24.9726L82.2034 24.9726" fill="white" stroke="#0277BD"/>
<path d="M91.5364 41.6016H89.0919C88.4834 41.6016 87.9902 41.1086 87.9902 40.4999C87.9902 39.8914 88.4832 39.3984 89.0919 39.3984H91.5364C92.1449 39.3984 92.6381 39.8916 92.6381 40.4999C92.6381 41.1084 92.1448 41.6016 91.5364 41.6016Z" fill="white" stroke="#0277BD"/>
<path d="M83.932 57.7558C84.1474 57.9709 84.4287 58.0784 84.7112 58.0784C84.9939 58.0784 85.2749 57.9709 85.49 57.7559C85.9202 57.3255 85.9202 56.6281 85.4901 56.1977L85.49 56.1977M83.932 57.7558L81.8499 54.1156C82.4755 53.4904 83.4895 53.4904 84.115 54.1156L85.8436 55.8442L85.49 56.1977M83.932 57.7558C83.932 57.7558 83.9319 57.7557 83.9319 57.7557L82.2035 56.0273L83.932 57.7558ZM85.49 56.1977L83.7616 54.4693C83.7616 54.4692 83.7615 54.4692 83.7615 54.4691C83.3312 54.0393 82.6338 54.0393 82.2035 54.4691C82.2035 54.4691 82.2034 54.4692 82.2034 54.4692L85.49 56.1977ZM82.2034 56.0272C81.7734 55.5969 81.7733 54.8996 82.2033 54.4693L82.2034 56.0272Z" fill="white" stroke="#0277BD"/>
<path d="M68.2345 64.9033C67.626 64.9033 67.1328 64.4102 67.1328 63.8015V61.3571C67.1328 60.7487 67.6258 60.2556 68.2345 60.2556C68.8431 60.2556 69.336 60.7486 69.336 61.3571V63.8015C69.336 64.4103 68.8429 64.9033 68.2345 64.9033Z" fill="white" stroke="#0277BD"/>
<path d="M50.9785 57.7558C51.1936 57.9709 51.4747 58.0784 51.7574 58.0784C52.0402 58.0784 52.3212 57.9709 52.5363 57.7558L54.2649 56.0272C54.6952 55.5969 54.6953 54.8995 54.265 54.4692L50.9785 57.7558ZM50.9785 57.7558L50.6322 58.1021L50.9785 57.7558C50.5482 57.3255 50.5482 56.628 50.9785 56.1977L52.707 54.4692C52.7071 54.4692 52.7071 54.4692 52.7071 54.4691C53.1372 54.0393 53.8348 54.0393 54.2649 54.4691L50.9785 57.7558Z" fill="white" stroke="#0277BD"/>
<path d="M47.3772 41.6016H44.9326C44.3241 41.6016 43.8311 41.1086 43.8311 40.4999C43.8311 39.8914 44.3242 39.3984 44.9326 39.3984H47.3772C47.9857 39.3984 48.4787 39.8915 48.4787 40.4999C48.4787 41.1084 47.9854 41.6016 47.3772 41.6016Z" fill="white" stroke="#0277BD"/>
<path d="M52.7071 26.5307C52.9222 26.7458 53.2033 26.8533 53.486 26.8533C53.7688 26.8533 54.0498 26.7458 54.2649 26.5307C54.6953 26.1004 54.6953 25.4029 54.2649 24.9726L52.5364 23.2441C52.5364 23.2441 52.5364 23.2441 52.5363 23.2441C52.1062 22.8142 51.4086 22.8142 50.9785 23.244L52.7071 26.5307ZM52.7071 26.5307L50.9785 24.8021M52.7071 26.5307L50.9785 24.8021M50.9785 24.8021C50.5482 24.3718 50.5482 23.6744 50.9784 23.2441L50.9785 24.8021Z" fill="white" stroke="#0277BD"/>
<path d="M69.336 38.8985V39.3985H69.836H75.2452C75.8538 39.3985 76.347 39.8916 76.347 40.5C76.347 41.1085 75.8536 41.6019 75.2452 41.6019H68.2345C67.626 41.6019 67.1328 41.1088 67.1328 40.5002V27.0075C67.1328 26.3991 67.6258 25.906 68.2345 25.906C68.8431 25.906 69.336 26.399 69.336 27.0075V38.8985Z" fill="white" stroke="#0277BD"/>
</svg>
