<svg width="44" height="58" viewBox="0 0 44 58" fill="none" xmlns="http://www.w3.org/2000/svg">
<path d="M27.3097 4.89503L27.3175 4.89527H27.3252H31.069V11.3405H12.7117V4.89541H16.2983C17.0428 4.91781 17.7069 4.42833 17.9053 3.70947L17.9107 3.6897L17.9146 3.66956C18.2676 1.80677 19.9115 0.469436 21.8071 0.502648L21.8203 0.502879L21.8335 0.502413C23.7136 0.43601 25.3618 1.74908 25.7174 3.59642L25.7203 3.61169L25.7242 3.62675C25.912 4.35486 26.5579 4.87176 27.3097 4.89503Z" stroke="white"/>
<path d="M42.9813 11.9134V11.9148V54.5752L42.9813 54.5846C42.9814 54.5877 42.9815 54.5919 42.9817 54.5969C43.0113 56.1649 41.7681 57.4627 40.1999 57.5H3.57968C2.00848 57.4619 0.764206 56.1586 0.799566 54.5866H0.799693V54.5753L0.799696 11.9149L0.799689 11.9131C0.799452 11.8487 0.801706 11.7844 0.806454 11.7202L0.806477 11.7199C0.909551 10.3139 2.13298 9.2578 3.53883 9.36099L3.55711 9.36233H3.57543H9.47828V12.6592C9.47828 13.0269 9.56754 13.4635 9.76039 13.8252C9.94961 14.18 10.3077 14.5738 10.8716 14.5738H32.8346C33.3855 14.5738 33.7614 14.1959 33.9707 13.8471C34.1854 13.4893 34.3025 13.0466 34.3025 12.6592V9.36219H40.2054H40.2234L40.2413 9.36089C40.3061 9.35623 40.3709 9.35395 40.4358 9.35406C41.8454 9.35798 42.9851 10.5038 42.9813 11.9134ZM16.2015 45.1127L16.2233 45.0923L16.2425 45.0695C16.7112 44.5121 16.7496 43.71 16.3357 43.1104C15.8285 42.3755 14.8216 42.1912 14.0868 42.6982L14.0557 42.7197L14.0281 42.7456L9.33021 47.1672L7.43939 45.1503L7.43217 45.1426L7.42464 45.1352C6.7977 44.5206 5.79524 44.519 5.16628 45.1303C4.52432 45.7296 4.47815 46.7328 5.06389 47.3887L5.07128 47.397L5.07903 47.4049L8.12888 50.5293C8.4322 50.8485 8.84822 51.0371 9.28854 51.0545L9.31156 51.0554L9.33457 51.0542C9.75108 51.0322 10.1406 50.8424 10.4145 50.5288L16.2015 45.1127ZM16.2015 33.2006L16.2233 33.1801L16.2425 33.1573C16.7112 32.5999 16.7496 31.7978 16.3357 31.1982C15.8285 30.4633 14.8216 30.279 14.0868 30.786L14.0557 30.8075L14.0281 30.8335L9.33022 35.255L7.43939 33.2381L7.43217 33.2304L7.42464 33.223C6.79771 32.6084 5.79528 32.6068 5.16631 33.218C4.52432 33.8174 4.47814 34.8206 5.06388 35.4765L5.07128 35.4848L5.07903 35.4928L8.12893 38.6171C8.43225 38.9364 8.84825 39.1249 9.28854 39.1423L9.31156 39.1432L9.33457 39.142C9.75108 39.12 10.1406 38.9302 10.4145 38.6166L16.2015 33.2006ZM16.2015 21.2884L16.2233 21.2679L16.2425 21.2451C16.7112 20.6877 16.7496 19.8856 16.3357 19.286C15.8285 18.5511 14.8216 18.3668 14.0868 18.8738L14.0557 18.8953L14.0281 18.9213L9.33022 23.3428L7.43939 21.3259L7.43217 21.3182L7.42464 21.3108C6.79772 20.6963 5.79532 20.6946 5.16635 21.3058C4.52432 21.9051 4.47813 22.9084 5.06388 23.5643L5.07128 23.5726L5.07903 23.5806L8.12893 26.7049C8.43225 27.0242 8.84825 27.2127 9.28854 27.2301L9.31156 27.231L9.33457 27.2298C9.75108 27.2078 10.1406 27.018 10.4145 26.7044L16.2015 21.2884ZM20.4013 49.5658H37.5252C38.4181 49.5658 39.1418 48.8419 39.1418 47.949C39.1418 47.0561 38.4179 46.3322 37.525 46.3322H20.4013C19.5084 46.3322 18.7845 47.0561 18.7845 47.949C18.7845 48.8419 19.5084 49.5658 20.4013 49.5658ZM20.4013 37.6537H37.5252C38.4181 37.6537 39.1418 36.9297 39.1418 36.0368C39.1418 35.144 38.4179 34.42 37.525 34.42H20.4013C19.5084 34.42 18.7845 35.1439 18.7845 36.0368C18.7845 36.9297 19.5084 37.6537 20.4013 37.6537ZM20.4013 25.7415H37.5252C38.4181 25.7415 39.1418 25.0177 39.1418 24.1247C39.1418 23.2318 38.4179 22.5078 37.525 22.5078H20.4013C19.5084 22.5078 18.7845 23.2318 18.7845 24.1247C18.7845 25.0176 19.5084 25.7415 20.4013 25.7415Z" stroke="white"/>
</svg>
