<svg width="71" height="95" viewBox="0 0 71 95" fill="none" xmlns="http://www.w3.org/2000/svg">
<path d="M44.2517 7.69891L44.2594 7.69915H44.2672H50.7182V18.894H20.0122V7.69938H26.2108C27.2853 7.73381 28.2443 7.02812 28.5305 5.99099L28.536 5.97122L28.5398 5.95108C29.1471 2.74731 31.9742 0.447265 35.2345 0.504386L35.2477 0.504618L35.2609 0.504151C38.4974 0.38984 41.3348 2.65026 41.9469 5.8304L41.9499 5.84567L41.9537 5.86073C42.2258 6.91601 43.1621 7.66519 44.2517 7.69891Z" stroke="white"/>
<path d="M70.2298 19.5144V19.5158V89.3906V89.3913L70.2299 89.3929L70.2299 89.3992C70.23 89.4031 70.2301 89.4087 70.2304 89.4156C70.2847 92.1627 68.1064 94.4369 65.3589 94.5002H5.37017C2.61886 94.4356 0.439383 92.1541 0.501289 89.4021H0.501416V89.3908L0.501419 19.516L0.501412 19.5141C0.500993 19.4006 0.504975 19.287 0.513359 19.1736L0.513382 19.1733C0.695091 16.6947 2.85187 14.8328 5.33025 15.0147L5.34853 15.0161H5.36685H15.3543V20.7351C15.3543 21.2928 15.491 21.955 15.7788 22.4948C16.063 23.0277 16.5636 23.5522 17.3175 23.5522H53.2914C54.0323 23.5522 54.5626 23.0436 54.8787 22.5168C55.2002 21.9808 55.3768 21.3125 55.3768 20.7351V15.0158H65.3642H65.3822L65.4001 15.0146C65.5141 15.0063 65.6282 15.0023 65.7423 15.0025C68.2274 15.0094 70.2366 17.0294 70.2298 19.5144ZM0.0014158 19.516V89.3908V19.516ZM25.8295 73.6589L25.8513 73.6385L25.8706 73.6156C26.5458 72.8126 26.6011 71.6571 26.0049 70.7933C25.2742 69.7346 23.8235 69.469 22.765 70.1995L22.7338 70.221L22.7063 70.2469L14.7787 77.7081L11.463 74.1714L11.4558 74.1637L11.4483 74.1563C10.5444 73.2702 9.09865 73.2686 8.19268 74.1513C7.26554 75.0144 7.19817 76.4615 8.04274 77.4072L8.05013 77.4155L8.05788 77.4234L13.052 82.5394C13.053 82.5404 13.054 82.5415 13.055 82.5425C13.4948 83.0061 14.0983 83.28 14.7371 83.3052L14.7601 83.3061L14.7831 83.3049C15.3843 83.2732 15.9462 82.9971 16.3387 82.5414L25.8295 73.6589ZM25.8295 54.1475L25.8513 54.1271L25.8706 54.1043C26.5458 53.3013 26.6011 52.1457 26.0049 51.2819C25.2742 50.2232 23.8235 49.9576 22.765 50.6881L22.7338 50.7096L22.7063 50.7355L14.7787 58.1968L11.463 54.6601L11.4558 54.6524L11.4483 54.645C10.5444 53.7589 9.09865 53.7572 8.19268 54.6399C7.26554 55.5031 7.19817 56.9501 8.04274 57.8959L8.05013 57.9041L8.05788 57.9121L13.0549 63.0311C13.4947 63.4948 14.0983 63.7687 14.7371 63.7938L14.7601 63.7948L14.7831 63.7935C15.3843 63.7618 15.9462 63.4858 16.3387 63.03L25.8295 54.1475ZM25.8295 34.6362L25.8513 34.6158L25.8706 34.5929C26.5458 33.7899 26.6011 32.6344 26.0049 31.7706C25.2742 30.7118 23.8235 30.4463 22.765 31.1768L22.7338 31.1982L22.7063 31.2242L14.7787 38.6854L11.463 35.1487L11.4558 35.141L11.4483 35.1336C10.5444 34.2475 9.0986 34.2458 8.19263 35.1286C7.26554 35.9918 7.19818 37.4388 8.04274 38.3845L8.05013 38.3928L8.05788 38.4007L13.0549 43.5198C13.4947 43.9834 14.0983 44.2573 14.7371 44.2825L14.7601 44.2834L14.7831 44.2822C15.3843 44.2505 15.9462 43.9744 16.3387 43.5187L25.8295 34.6362ZM32.9265 80.8667H60.9742C62.2606 80.8667 63.3032 79.8237 63.3032 78.5374C63.3032 77.2511 62.2603 76.2082 60.9739 76.2082H32.9265C31.6401 76.2082 30.5972 77.2511 30.5972 78.5374C30.5972 79.8238 31.6401 80.8667 32.9265 80.8667ZM32.9265 61.3553H60.9742C62.2606 61.3553 63.3032 60.3123 63.3032 59.0261C63.3032 57.7397 62.2603 56.6968 60.9739 56.6968H32.9265C31.6401 56.6968 30.5972 57.7397 30.5972 59.0261C30.5972 60.3124 31.6401 61.3553 32.9265 61.3553ZM32.9265 41.844H60.9742C62.2606 41.844 63.3032 40.8012 63.3032 39.5147C63.3032 38.2284 62.2603 37.1855 60.9739 37.1855H32.9265C31.6401 37.1855 30.5972 38.2284 30.5972 39.5147C30.5972 40.8011 31.6401 41.844 32.9265 41.844Z" stroke="white"/>
</svg>
