<svg width="74" height="79" viewBox="0 0 74 79" fill="none" xmlns="http://www.w3.org/2000/svg">
<path d="M47.1982 19.3774C47.1982 28.1415 40.0661 35.2736 31.302 35.2736C22.5379 35.2736 15.4058 28.1415 15.4058 19.3774V16.3962C15.4058 7.63209 22.5379 0.5 31.302 0.5C40.0661 0.5 47.1982 7.63209 47.1982 16.3962V19.3774Z" stroke="white"/>
<path fill-rule="evenodd" clip-rule="evenodd" d="M52.3826 45.924C47.4425 44.5582 40.0989 43.0977 31.3019 43.0977C21.6942 43.0977 13.82 44.8398 8.9174 46.298C4.39414 47.6436 1.36207 51.7081 1.36207 56.4266V67.0752C1.36207 67.1458 1.42002 67.2037 1.49057 67.2037H39.0216C38.9301 66.4279 38.8831 65.6389 38.8831 64.8394C38.8831 56.0701 44.5278 48.6204 52.3826 45.924ZM54.7357 46.6692C46.4388 48.5524 40.2452 55.9726 40.2452 64.8394C40.2452 65.6403 40.2957 66.4294 40.3938 67.2037C40.452 67.6632 40.5269 68.1174 40.6179 68.5658H1.49057C0.667774 68.5658 0 67.898 0 67.0752V56.4266C0 51.1053 3.4283 46.5099 8.52902 44.9925C13.5254 43.5064 21.5327 41.7356 31.3019 41.7356C41.0711 41.7356 49.0784 43.5064 54.0748 44.9925C54.3376 45.0707 54.596 45.157 54.8497 45.2513C55.6099 45.5336 56.3281 45.8863 56.9978 46.3009C56.229 46.3779 55.474 46.5017 54.7357 46.6692Z" fill="white"/>
<mask id="path-3-inside-1" fill="white">
<path fill-rule="evenodd" clip-rule="evenodd" d="M58.8772 79C66.6977 79 73.0376 72.6601 73.0376 64.8396C73.0376 57.019 66.6977 50.6792 58.8772 50.6792C51.0566 50.6792 44.7168 57.019 44.7168 64.8396C44.7168 72.6601 51.0566 79 58.8772 79ZM66.3612 61.7441C66.7096 61.3155 66.6446 60.6857 66.2161 60.3373C65.7876 59.9889 65.1578 60.0539 64.8094 60.4824L58.3142 68.4714L54.4367 63.702C54.0883 63.2735 53.4584 63.2085 53.0299 63.5569C52.6014 63.9053 52.5364 64.5351 52.8848 64.9637L57.5383 70.6875C57.7282 70.921 58.0132 71.0566 58.3142 71.0566C58.6152 71.0566 58.9002 70.921 59.0901 70.6875L66.3612 61.7441Z"/>
</mask>
<path d="M66.2161 60.3373L65.5853 61.1132L65.5853 61.1132L66.2161 60.3373ZM66.3612 61.7441L65.5853 61.1132V61.1132L66.3612 61.7441ZM64.8094 60.4824L64.0334 59.8516L64.8094 60.4824ZM58.3142 68.4714L57.5383 69.1022L58.3142 70.0566L59.0901 69.1022L58.3142 68.4714ZM54.4367 63.702L53.6607 64.3328L53.6607 64.3328L54.4367 63.702ZM53.0299 63.5569L52.3991 62.781H52.3991L53.0299 63.5569ZM52.8848 64.9637L53.6607 64.3328L53.6607 64.3328L52.8848 64.9637ZM57.5383 70.6875L58.3142 70.0566L58.3142 70.0566L57.5383 70.6875ZM59.0901 70.6875L58.3142 70.0566L58.3142 70.0566L59.0901 70.6875ZM72.0376 64.8396C72.0376 72.1079 66.1455 78 58.8772 78V80C67.25 80 74.0376 73.2124 74.0376 64.8396H72.0376ZM58.8772 51.6792C66.1455 51.6792 72.0376 57.5713 72.0376 64.8396H74.0376C74.0376 56.4667 67.25 49.6792 58.8772 49.6792V51.6792ZM45.7168 64.8396C45.7168 57.5713 51.6089 51.6792 58.8772 51.6792V49.6792C50.5043 49.6792 43.7168 56.4667 43.7168 64.8396H45.7168ZM58.8772 78C51.6089 78 45.7168 72.1079 45.7168 64.8396H43.7168C43.7168 73.2124 50.5043 80 58.8772 80V78ZM65.5853 61.1132L65.5853 61.1132L67.1371 62.3749C67.8339 61.5178 67.704 60.2582 66.8469 59.5614L65.5853 61.1132ZM65.5853 61.1132L66.8469 59.5614C65.9899 58.8646 64.7302 58.9945 64.0334 59.8516L65.5853 61.1132ZM59.0901 69.1022L65.5853 61.1132L64.0334 59.8516L57.5383 67.8406L59.0901 69.1022ZM53.6607 64.3328L57.5383 69.1022L59.0901 67.8406L55.2126 63.0712L53.6607 64.3328ZM53.6607 64.3328L53.6607 64.3328L55.2126 63.0712C54.5158 62.2141 53.2561 62.0842 52.3991 62.781L53.6607 64.3328ZM53.6607 64.3328L53.6607 64.3328L52.3991 62.781C51.542 63.4778 51.4121 64.7374 52.1089 65.5945L53.6607 64.3328ZM58.3142 70.0566L53.6607 64.3328L52.1089 65.5945L56.7624 71.3183L58.3142 70.0566ZM58.3142 70.0566H58.3142L56.7624 71.3183C57.1422 71.7854 57.7122 72.0566 58.3142 72.0566V70.0566ZM58.3142 70.0566H58.3142V72.0566C58.9163 72.0566 59.4863 71.7854 59.8661 71.3183L58.3142 70.0566ZM65.5853 61.1132L58.3142 70.0566L59.8661 71.3183L67.1371 62.3749L65.5853 61.1132Z" fill="white" mask="url(#path-3-inside-1)"/>
</svg>
