<svg width="54" height="58" viewBox="0 0 54 58" fill="none" xmlns="http://www.w3.org/2000/svg">
<path d="M34.5188 14.2264C34.5188 20.5874 29.3421 25.7642 22.9811 25.7642C16.6201 25.7642 11.4434 20.5874 11.4434 14.2264V12.0377C11.4434 5.67671 16.6201 0.5 22.9811 0.5C29.3421 0.5 34.5188 5.67671 34.5188 12.0377V14.2264Z" stroke="white"/>
<path fill-rule="evenodd" clip-rule="evenodd" d="M38.4581 33.7164C34.8312 32.7136 29.4397 31.6414 22.9811 31.6414C15.9274 31.6414 10.1464 32.9204 6.54695 33.991C3.22608 34.9789 1 37.963 1 41.4272V49.2451C1 49.2969 1.04255 49.3395 1.09434 49.3395H28.6487C28.5816 48.7699 28.5471 48.1906 28.5471 47.6036C28.5471 41.1654 32.6913 35.696 38.4581 33.7164ZM40.1857 34.2635C34.0943 35.6461 29.5471 41.0938 29.5471 47.6036C29.5471 48.1916 29.5842 48.771 29.6562 49.3395C29.6989 49.6768 29.7539 50.0103 29.8207 50.3395H1.09434C0.490264 50.3395 0 49.8492 0 49.2451V41.4272C0 37.5204 2.51698 34.1465 6.26181 33.0325C9.93004 31.9414 15.8088 30.6414 22.9811 30.6414C30.1534 30.6414 36.0322 31.9414 39.7005 33.0325C39.8934 33.0899 40.0831 33.1533 40.2694 33.2225C40.8275 33.4297 41.3548 33.6887 41.8464 33.9931C41.2821 34.0496 40.7278 34.1405 40.1857 34.2635Z" fill="white"/>
<mask id="path-3-inside-1" fill="white">
<path fill-rule="evenodd" clip-rule="evenodd" d="M43.2264 58C48.9681 58 53.6227 53.3454 53.6227 47.6037C53.6227 41.8621 48.9681 37.2075 43.2264 37.2075C37.4847 37.2075 32.8302 41.8621 32.8302 47.6037C32.8302 53.3454 37.4847 58 43.2264 58ZM48.9273 45.4988C49.2757 45.0703 49.2107 44.4404 48.7822 44.0921C48.3536 43.7437 47.7238 43.8086 47.3754 44.2371L42.8131 49.8488L40.1725 46.6009C39.8241 46.1724 39.1943 46.1074 38.7658 46.4558C38.3373 46.8042 38.2723 47.434 38.6207 47.8626L42.0372 52.0648C42.2271 52.2984 42.5121 52.434 42.8131 52.434C43.1141 52.434 43.3991 52.2984 43.589 52.0648L48.9273 45.4988Z"/>
</mask>
<path d="M48.7822 44.0921L48.1513 44.868V44.868L48.7822 44.0921ZM48.9273 45.4988L48.1513 44.868V44.868L48.9273 45.4988ZM47.3754 44.2371L46.5995 43.6063L47.3754 44.2371ZM42.8131 49.8488L42.0372 50.4796L42.8131 51.434L43.589 50.4796L42.8131 49.8488ZM40.1725 46.6009L39.3966 47.2317H39.3966L40.1725 46.6009ZM38.7658 46.4558L38.135 45.6799L38.135 45.6799L38.7658 46.4558ZM38.6207 47.8626L39.3966 47.2317V47.2317L38.6207 47.8626ZM42.0372 52.0648L41.2613 52.6957V52.6957L42.0372 52.0648ZM43.589 52.0648L44.3649 52.6957V52.6957L43.589 52.0648ZM52.6227 47.6037C52.6227 52.7931 48.4158 57 43.2264 57V59C49.5204 59 54.6227 53.8977 54.6227 47.6037H52.6227ZM43.2264 38.2075C48.4158 38.2075 52.6227 42.4144 52.6227 47.6037H54.6227C54.6227 41.3098 49.5204 36.2075 43.2264 36.2075V38.2075ZM33.8302 47.6037C33.8302 42.4144 38.037 38.2075 43.2264 38.2075V36.2075C36.9325 36.2075 31.8302 41.3098 31.8302 47.6037H33.8302ZM43.2264 57C38.037 57 33.8302 52.7931 33.8302 47.6037H31.8302C31.8302 53.8977 36.9325 59 43.2264 59V57ZM48.1513 44.868L48.1513 44.868L49.7032 46.1296C50.4 45.2726 50.2701 44.0129 49.413 43.3161L48.1513 44.868ZM48.1513 44.868L48.1513 44.868L49.413 43.3161C48.5559 42.6193 47.2963 42.7493 46.5995 43.6063L48.1513 44.868ZM43.589 50.4796L48.1513 44.868L46.5995 43.6063L42.0372 49.218L43.589 50.4796ZM39.3966 47.2317L42.0372 50.4796L43.589 49.218L40.9485 45.9701L39.3966 47.2317ZM39.3966 47.2317L39.3966 47.2317L40.9485 45.9701C40.2517 45.113 38.992 44.9831 38.135 45.6799L39.3966 47.2317ZM39.3966 47.2317L39.3966 47.2317L38.135 45.6799C37.2779 46.3767 37.148 47.6363 37.8448 48.4934L39.3966 47.2317ZM42.8131 51.434L39.3966 47.2317L37.8448 48.4934L41.2613 52.6957L42.8131 51.434ZM42.8131 51.434V51.434L41.2613 52.6957C41.641 53.1628 42.2111 53.434 42.8131 53.434V51.434ZM42.8131 51.434V51.434V53.434C43.4151 53.434 43.9852 53.1628 44.3649 52.6957L42.8131 51.434ZM48.1513 44.868L42.8131 51.434L44.3649 52.6957L49.7032 46.1296L48.1513 44.868Z" fill="white" mask="url(#path-3-inside-1)"/>
</svg>
