<svg width="98" height="55" viewBox="0 0 98 55" fill="none" xmlns="http://www.w3.org/2000/svg">
<path d="M95.8907 49.3147L95.8896 49.3129C95.8686 49.2778 95.8409 49.2269 95.8043 49.16C95.5956 48.7775 95.0996 47.8685 93.9302 46.3455C92.5531 44.5519 90.2443 41.9124 86.4049 38.349L86.4049 38.3489C86.3188 38.2691 86.2337 38.1901 86.1496 38.112C84.2761 36.3734 82.8775 35.0754 82.0031 33.9425C81.0668 32.7294 80.67 31.6268 80.9493 30.3091C81.2135 29.0627 82.0757 27.6845 83.4124 25.8676C84.0685 24.9757 84.8661 23.944 85.7933 22.7446C86.7543 21.5015 87.8545 20.0783 89.0805 18.4444L89.4804 18.7445L89.0805 18.4444C92.0349 14.5071 94.0876 11.3559 95.3079 8.94485C95.9183 7.73894 96.312 6.73449 96.5099 5.92062C96.7097 5.09886 96.6971 4.52319 96.5593 4.14024L96.5592 4.13992C96.4454 3.82282 96.1736 3.56847 95.737 3.37266C95.2992 3.17628 94.7487 3.0645 94.1859 3.00904C93.6281 2.95409 93.0865 2.95702 92.6817 2.97428C92.4801 2.98288 92.3144 2.99494 92.2 3.00475C92.1429 3.00966 92.0986 3.01398 92.0693 3.01702L92.0366 3.02051L92.0292 3.02136L92.0278 3.02151L92.0277 3.02152L92.0276 3.02153L92.0276 3.02154L91.9998 3.02484L91.9717 3.025L77.4874 3.10935L77.4524 3.10956L77.419 3.10505L77.4188 3.10503L77.4186 3.10499L77.4182 3.10494L77.418 3.10491L77.4177 3.10488L77.4141 3.10446C77.4091 3.10387 77.4003 3.10289 77.3882 3.1017C77.3638 3.09931 77.326 3.09611 77.2774 3.09347C77.1797 3.08818 77.0406 3.08536 76.8798 3.09556C76.5497 3.11648 76.1716 3.18967 75.8677 3.36965C75.5723 3.54888 75.3026 3.86581 75.0953 4.17352C74.9951 4.32234 74.9165 4.45832 74.8634 4.55648C74.8369 4.60536 74.817 4.64433 74.8042 4.67019L74.7936 4.69179L74.774 4.74336C74.7562 4.7902 74.7297 4.85922 74.695 4.94871C74.6255 5.12768 74.5231 5.38854 74.3908 5.71754C74.1261 6.37547 73.7415 7.30638 73.2608 8.40027C72.3004 10.5859 70.9523 13.4315 69.4079 16.0521M95.8907 49.3147L68.9771 15.7982M95.8907 49.3147C96.6514 50.5764 96.7676 51.4596 96.6255 52.0699C96.4844 52.676 96.0617 53.1275 95.4889 53.4689C94.9136 53.8119 94.2318 54.0149 93.6763 54.1312C93.4018 54.1886 93.1654 54.2234 92.9988 54.2438C92.9156 54.2539 92.8502 54.2604 92.8065 54.2643C92.7847 54.2663 92.7683 54.2676 92.758 54.2683L92.7552 54.2685L79.8936 54.4491L79.848 54.4497L79.8056 54.4581L79.805 54.4583L79.8043 54.4584L79.804 54.4584L79.8038 54.4585L79.8033 54.4586L79.7891 54.461C79.7741 54.4634 79.7489 54.4672 79.714 54.4714C79.6442 54.4799 79.5357 54.4904 79.3921 54.496C79.1049 54.5072 78.6775 54.4989 78.1386 54.4164C77.0629 54.2517 75.5334 53.7902 73.7791 52.5848C72.6224 51.7901 71.4661 50.6659 70.3149 49.4203C69.6421 48.6923 68.9916 47.9463 68.3471 47.2071C67.8775 46.6687 67.4112 46.1339 66.9417 45.6123C65.8507 44.4002 64.7681 43.29 63.7189 42.5549C62.6782 41.8257 61.561 41.3898 60.4513 41.7415L60.4512 41.7415C59.3882 42.0786 58.6371 42.8926 58.1077 43.8404C57.5781 44.7884 57.2427 45.9175 57.0274 46.9803C56.8113 48.0475 56.7113 49.0737 56.665 49.8309C56.6418 50.2102 56.632 50.5238 56.628 50.7435C56.626 50.8534 56.6255 50.9399 56.6254 50.9996C56.6254 51.0294 56.6255 51.0525 56.6256 51.0684L56.6258 51.0869L56.6259 51.0921L56.6259 51.0936L56.6259 51.0941C56.6259 51.0942 56.6259 51.0944 57.1259 51.087L56.6259 51.0944L56.6259 51.0953L56.6259 51.0954L56.6259 51.0957L56.6259 51.0959L56.6259 51.0961L56.6259 51.0968L56.626 51.1066C56.626 51.1118 56.626 51.1187 56.6259 51.1273C56.6259 51.1343 56.6258 51.1423 56.6256 51.1514C56.6249 51.1919 56.6232 51.2527 56.6186 51.3291C56.6095 51.4827 56.5896 51.6959 56.5465 51.9331C56.4573 52.4246 56.2821 52.9424 55.9707 53.2767L55.9694 53.2781C55.6162 53.6602 55.0607 53.9153 54.544 54.0742C54.2931 54.1514 54.0668 54.2013 53.9038 54.2317C53.8226 54.2468 53.7579 54.257 53.7146 54.2633C53.7056 54.2646 53.6976 54.2657 53.6906 54.2667C53.6862 54.2673 53.6822 54.2678 53.6786 54.2683H47.9497H47.9347L47.92 54.2692L47.92 54.2692L47.9196 54.2692L47.9192 54.2692L47.9142 54.2695L47.8905 54.2706C47.8687 54.2716 47.835 54.2729 47.7898 54.2743C47.6994 54.2769 47.563 54.2793 47.3841 54.2784C47.0262 54.2766 46.4985 54.2614 45.8286 54.2073C44.4884 54.099 42.5809 53.8351 40.3264 53.2117C35.8194 51.9653 29.9247 49.2825 24.3968 43.5286C18.3432 37.221 12.6217 27.7855 8.40381 19.8967C6.29783 15.9579 4.5722 12.4152 3.37319 9.85738C2.77375 8.57862 2.30609 7.54638 1.98849 6.83431C1.8297 6.47828 1.70844 6.20232 1.62698 6.01563C1.58625 5.92229 1.55548 5.85126 1.53495 5.80371L1.51186 5.75013L1.50963 5.74492M95.8907 49.3147L1.50963 5.74492M69.4079 16.0521L68.9771 15.7982M69.4079 16.0521C69.4079 16.052 69.408 16.052 69.408 16.0519L68.9771 15.7982M69.4079 16.0521C66.1756 21.5418 63.885 24.4808 62.2416 25.9632C61.4198 26.7046 60.7265 27.1125 60.1271 27.2708C59.5047 27.4351 59 27.3247 58.6139 27.0754L58.6138 27.0753C57.1731 26.1443 56.7026 24.3254 56.5485 22.491C56.4429 21.2336 56.4808 19.8472 56.5156 18.5723C56.5319 17.9766 56.5475 17.4052 56.5475 16.8827C56.5475 14.4307 56.6329 12.307 56.7061 10.4851C56.7126 10.3251 56.7189 10.1674 56.7251 10.0121C56.802 8.07826 56.8529 6.52315 56.7598 5.26802C56.6665 4.0107 56.4321 3.12528 55.9916 2.49284C55.5637 1.87844 54.8963 1.43992 53.7916 1.17351M68.9771 15.7982C62.5243 26.7578 59.9396 27.3362 58.8852 26.6554C56.8305 25.3277 56.9289 21.7496 57.0148 18.6255C57.0314 18.021 57.0475 17.4336 57.0475 16.8827C57.0475 14.4412 57.1325 12.327 57.2058 10.5046C57.4512 4.39829 57.565 1.56901 53.9085 0.687367M53.7916 1.17351L53.9085 0.687367M53.7916 1.17351C52.2538 0.803739 51.1348 0.554363 47.1371 0.512533L47.1423 0.0125605L47.1371 0.512533C44.5519 0.485416 42.1848 0.490372 40.1589 0.651077C38.1237 0.812522 36.4869 1.12799 35.336 1.69084C34.5859 2.05764 33.9152 2.65722 33.532 3.16345C33.4313 3.29645 33.3611 3.40917 33.3144 3.4983C33.8173 3.58049 34.5104 3.73556 35.2255 4.02494C36.0809 4.37106 37.0021 4.92337 37.6516 5.80717M53.7916 1.17351C53.7915 1.17349 53.7914 1.17346 53.7913 1.17344L53.9085 0.687367M53.9085 0.687367L37.6516 5.80717M1.50963 5.74492L1.50876 5.74252C1.50539 5.73307 1.5001 5.71796 1.49334 5.6978C1.47981 5.65742 1.46053 5.59716 1.43906 5.52177C1.39581 5.36986 1.34529 5.16216 1.31397 4.9352C1.24581 4.44141 1.29183 4.02442 1.48097 3.79941C1.74261 3.49041 2.29605 3.27618 2.89827 3.15084C3.18148 3.09189 3.44463 3.0586 3.63744 3.04015C3.73344 3.03097 3.81097 3.02556 3.86357 3.02247C3.88985 3.02093 3.90984 3.01997 3.92272 3.01942L3.93487 3.01893L17.6541 2.93491C17.6561 2.9353 17.6581 2.9357 17.6603 2.93612C17.693 2.94247 17.7423 2.95254 17.8051 2.96677C17.9308 2.9953 18.1089 3.04023 18.314 3.10499C18.7309 3.23661 19.23 3.441 19.6313 3.73549L19.6317 3.73577C19.9384 3.96038 20.1961 4.29967 20.3837 4.60721C20.4752 4.75716 20.5451 4.89138 20.5917 4.98719C20.6149 5.03493 20.6321 5.07268 20.6431 5.09754L20.6549 5.12465L20.6568 5.12911L20.657 5.12967L20.6572 5.13015L20.6572 5.13017L20.6573 5.13031L20.6621 5.14241L20.6818 5.19169C20.6991 5.23493 20.7248 5.2987 20.7585 5.38148C20.8258 5.54703 20.9251 5.78867 21.0534 6.09432C21.3099 6.70555 21.6825 7.57313 22.1475 8.60036C23.0768 10.6533 24.3783 13.3508 25.8629 15.9161C28.7413 20.8923 30.877 23.9721 32.56 25.6753C33.4015 26.5269 34.1649 27.0711 34.8872 27.3164C35.6356 27.5705 36.3153 27.4944 36.928 27.1607L36.9283 27.1606C37.4096 26.898 37.7668 26.4325 38.0385 25.8979C38.3131 25.3576 38.5247 24.6988 38.69 23.9818C39.0206 22.5472 39.1826 20.8034 39.2542 19.1319C39.3261 17.4559 39.308 15.8317 39.2721 14.628C39.2541 14.0257 39.2317 13.5276 39.2137 13.1796C39.2047 13.0056 39.1968 12.8691 39.1911 12.7757L39.1845 12.6688L39.1833 12.6504L39.1834 12.6142C39.1834 12.5785 39.1833 12.5267 39.1825 12.4605C39.1811 12.3281 39.1773 12.138 39.168 11.904C39.1494 11.4366 39.1088 10.7912 39.0204 10.0798C38.8474 8.68737 38.4795 6.92994 37.6516 5.80717M1.50963 5.74492L37.6521 5.80788C37.652 5.80764 37.6518 5.80741 37.6516 5.80717M97.0298 3.97102C96.3249 2.00686 91.9688 2.52501 91.9688 2.52501L97.0298 3.97102ZM33.2369 3.70045C33.2368 3.70048 33.2369 3.69939 33.2372 3.69705L33.2369 3.70045ZM75.6107 2.94074C74.8335 3.41069 74.3334 4.4952 74.3334 4.4952L75.6107 2.94074Z" stroke="white"/>
</svg>
