<svg width="53" height="53" viewBox="0 0 53 53" fill="none" xmlns="http://www.w3.org/2000/svg">
<path fill-rule="evenodd" clip-rule="evenodd" d="M25.8609 29.7667L25.8656 29.769L25.8678 29.77L26.8427 30.2199L19.5641 43.3623H21.9943L28.0299 30.0278H32.3417V43.3623H34.1309V9.64062H28.4207C24.8107 9.64062 20.0606 13.5691 20.0606 20.4305C20.0606 23.7579 21.5073 26.0823 22.972 27.5954C23.7075 28.3552 24.4442 28.9057 24.9949 29.2647C25.2695 29.4438 25.4957 29.5738 25.6494 29.6573C25.7262 29.699 25.7846 29.729 25.8217 29.7475C25.8403 29.7568 25.8535 29.7632 25.8609 29.7667ZM22.2352 19.7647C22.2352 23.1709 23.0926 25.3566 24.1972 26.7445C25.3002 28.1298 26.9909 28.8698 28.713 28.8698H32.2358V10.6595H27.9932C27.9164 10.6595 27.8202 10.6637 27.7114 10.6815C27.3019 10.7487 25.9131 11.0651 24.6245 12.3978C23.3185 13.7484 22.2352 16.0186 22.2352 19.7647Z" fill="white"/>
<path fill-rule="evenodd" clip-rule="evenodd" d="M53 0V53H0V0H53ZM1.40206 51.5979H51.5979V1.40206H1.40206V51.5979Z" fill="white"/>
</svg>
