<svg width="138" height="51" viewBox="0 0 138 51" fill="none" xmlns="http://www.w3.org/2000/svg">
<path d="M128.219 38.9392C129.975 38.2914 131.525 37.3679 132.87 36.1962C134.214 35.0246 135.325 33.6049 136.203 31.9508C137.081 30.2968 137.671 28.4773 137.959 26.4787H129.44C129.043 28.1603 128.219 29.5111 126.971 30.5173C125.737 31.5373 124.269 32.0335 122.595 32.0335C121.525 32.0335 120.538 31.8268 119.632 31.427C118.727 31.0273 117.931 30.4622 117.273 29.7592C116.614 29.0424 116.093 28.1879 115.709 27.1954C115.339 26.1892 115.147 25.1141 115.147 23.9562C115.147 22.7708 115.339 21.6681 115.709 20.6757C116.079 19.6695 116.601 18.8011 117.273 18.0706C117.931 17.3262 118.727 16.7611 119.632 16.3476C120.538 15.9479 121.525 15.7411 122.595 15.7411C124.186 15.7411 125.586 16.2097 126.82 17.1608C128.041 18.0981 128.919 19.3524 129.44 20.9238H137.877C137.589 18.9803 136.999 17.216 136.107 15.617C135.216 14.0181 134.091 12.6535 132.76 11.5095C131.416 10.3654 129.879 9.48326 128.151 8.86299C126.422 8.24272 124.557 7.92569 122.568 7.92569C120.263 7.92569 118.123 8.32542 116.162 9.13866C114.2 9.95191 112.499 11.0684 111.059 12.5019C109.618 13.9354 108.493 15.6308 107.684 17.5881C106.875 19.5454 106.477 21.6681 106.477 23.9562C106.477 26.2168 106.875 28.3257 107.684 30.283C108.493 32.2403 109.618 33.9219 111.059 35.3416C112.499 36.7614 114.2 37.8779 116.162 38.6911C118.123 39.5043 120.263 39.9041 122.568 39.9041C124.571 39.9179 126.45 39.6008 128.219 38.9392ZM105.064 8.71137H86.6412V39.146H95.0364V16.2649H105.078V8.71137H105.064ZM82.91 8.71137H58.0809V16.2649H66.2978V39.146H74.6519V16.2649H82.91V8.71137Z" fill="white"/>
<path d="M137.013 48.7671C137.438 48.4777 137.754 48.0642 137.96 47.5542H137.644C137.452 47.9815 137.164 48.3123 136.794 48.5604C136.423 48.7947 135.998 48.9188 135.532 48.9188C135.202 48.9188 134.887 48.8636 134.599 48.7396C134.311 48.6155 134.064 48.4501 133.844 48.2296C133.639 48.009 133.474 47.7609 133.351 47.4715C133.227 47.182 133.172 46.865 133.172 46.5204C133.172 46.1758 133.227 45.8588 133.351 45.5693C133.474 45.2798 133.639 45.0179 133.844 44.8112C134.05 44.5906 134.311 44.4252 134.599 44.3012C134.887 44.1771 135.202 44.122 135.532 44.122C136.012 44.122 136.423 44.2461 136.794 44.4804C137.164 44.7147 137.438 45.0455 137.617 45.459H137.932C137.74 44.9628 137.438 44.5631 137.013 44.2736C136.588 43.9842 136.094 43.8325 135.518 43.8325C135.134 43.8325 134.791 43.9015 134.462 44.0393C134.132 44.1771 133.844 44.3701 133.611 44.6044C133.364 44.8388 133.186 45.1282 133.049 45.459C132.912 45.7898 132.857 46.1482 132.857 46.5342C132.857 46.9201 132.925 47.2785 133.062 47.6093C133.2 47.9401 133.378 48.2158 133.625 48.4639C133.872 48.712 134.146 48.8912 134.475 49.029C134.805 49.1669 135.148 49.2358 135.532 49.2358C136.08 49.2082 136.574 49.0566 137.013 48.7671ZM131.265 43.9015L127.699 48.5328V43.9015H127.397V49.1117H127.589L131.142 44.4804V49.1117H131.444V43.9015H131.265ZM122.226 48.8085V46.5066H124.297C124.667 46.5066 124.969 46.6169 125.202 46.8236C125.435 47.0442 125.559 47.3198 125.559 47.6506C125.559 47.9952 125.435 48.2709 125.202 48.4777C124.969 48.6844 124.667 48.7947 124.297 48.7947H122.226V48.8085ZM125.093 45.9415C124.887 46.1206 124.626 46.2171 124.283 46.2171H122.226V44.2047H124.283C124.612 44.2047 124.887 44.3012 125.093 44.4804C125.298 44.6596 125.394 44.9077 125.394 45.2109C125.394 45.5142 125.285 45.7623 125.093 45.9415ZM125.463 45.9139C125.614 45.7071 125.696 45.459 125.696 45.1696C125.696 44.7836 125.573 44.4804 125.312 44.2461C125.051 44.0117 124.722 43.8877 124.311 43.8877H121.924V49.0979H124.324C124.544 49.0979 124.75 49.0566 124.942 48.9877C125.134 48.9188 125.285 48.8223 125.435 48.6982C125.573 48.5742 125.682 48.4225 125.765 48.2433C125.847 48.0642 125.874 47.885 125.874 47.6782C125.874 47.3474 125.778 47.0717 125.586 46.8374C125.394 46.6031 125.147 46.4377 124.846 46.355C125.106 46.2723 125.312 46.1206 125.463 45.9139ZM116.903 48.7258C116.615 48.6017 116.368 48.4363 116.149 48.2158C115.943 47.9952 115.778 47.7471 115.655 47.4577C115.531 47.1682 115.476 46.8512 115.476 46.5066C115.476 46.162 115.531 45.845 115.655 45.5555C115.778 45.2661 115.943 45.0042 116.149 44.7974C116.354 44.5769 116.615 44.4115 116.903 44.2874C117.191 44.1633 117.507 44.1082 117.836 44.1082C118.179 44.1082 118.481 44.1633 118.769 44.2874C119.057 44.4115 119.304 44.5769 119.509 44.7836C119.715 45.0042 119.88 45.2523 120.003 45.5417C120.127 45.8312 120.182 46.1482 120.182 46.5066C120.182 46.8512 120.127 47.1682 120.003 47.4715C119.88 47.7609 119.715 48.0228 119.509 48.2296C119.304 48.4501 119.057 48.6155 118.769 48.7258C118.481 48.8498 118.179 48.905 117.836 48.905C117.507 48.905 117.191 48.8498 116.903 48.7258ZM116.437 44.2047C116.025 44.4666 115.71 44.825 115.49 45.2661L115.435 43.9015H115.188V50.9588H115.504V47.7609C115.723 48.202 116.039 48.5604 116.45 48.8223C116.862 49.0842 117.328 49.2082 117.863 49.2082C118.247 49.2082 118.604 49.1393 118.92 49.0015C119.249 48.8636 119.523 48.6706 119.743 48.4363C119.976 48.202 120.154 47.9125 120.291 47.5817C120.428 47.2509 120.483 46.8925 120.483 46.5066C120.483 46.1206 120.415 45.7623 120.291 45.4315C120.168 45.1006 119.976 44.8112 119.743 44.5769C119.509 44.3425 119.235 44.1496 118.92 44.0117C118.59 43.8739 118.247 43.805 117.863 43.805C117.328 43.805 116.848 43.929 116.437 44.2047ZM112.102 44.2461C112.362 44.3563 112.596 44.5079 112.788 44.7009C112.98 44.8939 113.144 45.1282 113.268 45.4039C113.391 45.6796 113.46 45.969 113.487 46.2998H108.947C108.96 45.9828 109.043 45.6796 109.166 45.4177C109.29 45.1558 109.454 44.9215 109.66 44.7147C109.866 44.5217 110.099 44.3563 110.373 44.2461C110.648 44.1358 110.936 44.0806 111.251 44.0806C111.553 44.0944 111.827 44.1358 112.102 44.2461ZM113.611 45.4039C113.487 45.0731 113.309 44.7974 113.076 44.5631C112.843 44.3288 112.582 44.1358 112.266 43.9979C111.951 43.8601 111.608 43.7912 111.238 43.7912C110.867 43.7912 110.524 43.8601 110.209 43.9979C109.893 44.1358 109.619 44.3288 109.386 44.5631C109.153 44.8112 108.974 45.0869 108.837 45.4177C108.7 45.7485 108.645 46.1069 108.645 46.4928C108.645 46.8788 108.714 47.2371 108.837 47.5679C108.974 47.8988 109.153 48.1882 109.386 48.4225C109.619 48.6706 109.893 48.8498 110.209 48.9877C110.524 49.1255 110.867 49.1944 111.238 49.1944C111.773 49.1944 112.239 49.0566 112.651 48.7947C113.062 48.5328 113.378 48.1331 113.625 47.6093H113.295C113.09 48.009 112.815 48.326 112.459 48.5604C112.102 48.7809 111.704 48.905 111.238 48.905C110.922 48.905 110.62 48.8498 110.346 48.7258C110.072 48.6017 109.825 48.4501 109.619 48.2433C109.413 48.0366 109.249 47.7885 109.139 47.5128C109.015 47.2371 108.96 46.9201 108.947 46.5893H113.803V46.4515C113.803 46.0793 113.734 45.7347 113.611 45.4039ZM106.834 48.7671C107.26 48.4777 107.575 48.0642 107.781 47.5542H107.465C107.273 47.9815 106.985 48.3123 106.615 48.5604C106.244 48.7947 105.819 48.9188 105.353 48.9188C105.024 48.9188 104.708 48.8636 104.42 48.7396C104.132 48.6155 103.885 48.4501 103.665 48.2296C103.46 48.009 103.295 47.7609 103.172 47.4715C103.048 47.182 102.993 46.865 102.993 46.5204C102.993 46.1758 103.048 45.8588 103.172 45.5693C103.295 45.2798 103.46 45.0179 103.665 44.8112C103.871 44.5906 104.132 44.4252 104.42 44.3012C104.708 44.1771 105.024 44.122 105.353 44.122C105.833 44.122 106.244 44.2461 106.615 44.4804C106.985 44.7147 107.26 45.0455 107.438 45.459H107.753C107.561 44.9628 107.26 44.5631 106.834 44.2736C106.409 43.9842 105.915 43.8325 105.339 43.8325C104.955 43.8325 104.612 43.9015 104.283 44.0393C103.954 44.1771 103.665 44.3701 103.432 44.6044C103.185 44.8388 103.007 45.1282 102.87 45.459C102.733 45.7898 102.678 46.1482 102.678 46.5342C102.678 46.9201 102.746 47.2785 102.884 47.6093C103.021 47.9401 103.199 48.2158 103.446 48.4639C103.693 48.712 103.967 48.8912 104.296 49.029C104.626 49.1669 104.969 49.2358 105.353 49.2358C105.901 49.2082 106.395 49.0566 106.834 48.7671ZM101.292 45.9139C101.443 45.7071 101.512 45.4728 101.512 45.1971C101.512 44.9904 101.471 44.8112 101.388 44.632C101.306 44.4528 101.183 44.3012 101.032 44.1771C100.881 44.0531 100.689 43.9566 100.483 43.8877C100.277 43.8188 100.044 43.7774 99.7971 43.7774C99.3581 43.7774 98.974 43.8877 98.6585 44.122C98.343 44.3563 98.151 44.6458 98.0824 45.0179H98.3704C98.4527 44.7285 98.6174 44.4942 98.8643 44.3288C99.1112 44.1634 99.4267 44.0806 99.7971 44.0806C100.003 44.0806 100.195 44.1082 100.373 44.1633C100.552 44.2185 100.702 44.3012 100.826 44.3977C100.949 44.4942 101.059 44.6182 101.128 44.7561C101.196 44.8939 101.237 45.0455 101.237 45.2109C101.237 45.5004 101.141 45.7485 100.936 45.9415C100.73 46.1344 100.456 46.2309 100.113 46.2309H99.1661V46.4928H100.113C100.291 46.4928 100.456 46.5204 100.606 46.5893C100.757 46.6444 100.881 46.7271 100.991 46.8374C101.1 46.9477 101.183 47.0717 101.237 47.2096C101.292 47.3474 101.333 47.499 101.333 47.6506C101.333 47.8298 101.292 47.9952 101.21 48.1606C101.128 48.3123 101.018 48.4501 100.881 48.5604C100.744 48.6706 100.579 48.7533 100.387 48.8223C100.195 48.8912 99.9891 48.9188 99.7559 48.9188C99.3581 48.9188 99.0289 48.8223 98.7545 48.6431C98.4802 48.4639 98.3019 48.2158 98.2058 47.9125H97.9178C98.0138 48.2985 98.2195 48.6155 98.5488 48.8498C98.878 49.0842 99.2758 49.2082 99.7422 49.2082C100.017 49.2082 100.263 49.1669 100.497 49.0979C100.73 49.0152 100.922 48.9188 101.087 48.7809C101.251 48.6431 101.388 48.4915 101.484 48.2985C101.58 48.1055 101.622 47.9125 101.622 47.6782C101.622 47.375 101.539 47.0993 101.361 46.865C101.196 46.6306 100.977 46.4652 100.702 46.3688C100.949 46.2723 101.141 46.1206 101.292 45.9139ZM93.048 48.7396C92.7599 48.6155 92.513 48.4501 92.3072 48.2296C92.1015 48.009 91.9368 47.7609 91.8134 47.4715C91.6899 47.182 91.6351 46.865 91.6351 46.5204C91.6351 46.1758 91.6899 45.8588 91.8134 45.5693C91.9368 45.2798 92.1015 45.0179 92.3072 44.8112C92.513 44.5906 92.7736 44.4252 93.048 44.3012C93.336 44.1771 93.6378 44.122 93.9808 44.122C94.3237 44.122 94.6392 44.1771 94.9136 44.3012C95.2017 44.4252 95.4486 44.5906 95.6543 44.8112C95.8601 45.0317 96.0247 45.2798 96.1482 45.5693C96.2716 45.8588 96.3265 46.1896 96.3265 46.5342C96.3265 46.8788 96.2716 47.2096 96.1482 47.499C96.0247 47.7885 95.8601 48.0504 95.6543 48.2571C95.4486 48.4777 95.2017 48.6431 94.9136 48.7671C94.6255 48.8912 94.31 48.9463 93.9808 48.9463C93.6516 48.9188 93.336 48.8636 93.048 48.7396ZM96.3951 43.9015L96.3402 45.2661C96.1345 44.825 95.8327 44.4666 95.4074 44.2047C94.9959 43.9428 94.5158 43.805 93.9671 43.805C93.583 43.805 93.24 43.8739 92.9108 44.0117C92.5816 44.1496 92.3072 44.3288 92.074 44.5769C91.8408 44.825 91.6488 45.1006 91.5116 45.4315C91.3744 45.7623 91.3058 46.1206 91.3058 46.5066C91.3058 46.8925 91.3744 47.2509 91.5116 47.5817C91.6488 47.9125 91.8271 48.202 92.074 48.4363C92.3072 48.6844 92.5953 48.8636 92.9108 49.0015C93.24 49.1393 93.583 49.2082 93.9671 49.2082C94.5158 49.2082 94.9959 49.0704 95.4074 48.8085C95.819 48.5466 96.1345 48.1882 96.3402 47.7471L96.3814 49.1117H96.6557V43.9015H96.3951ZM90.9355 43.9015H87.8627V49.1117H88.1645V44.1771H90.9355V43.9015ZM82.7734 48.7258C82.4854 48.6017 82.2247 48.4363 82.019 48.2296C81.8132 48.0228 81.6349 47.7609 81.5114 47.4715C81.3879 47.182 81.3331 46.865 81.3331 46.5066C81.3331 46.162 81.3879 45.845 81.5114 45.5417C81.6349 45.2523 81.7995 44.9904 82.019 44.7836C82.2247 44.5631 82.4854 44.3977 82.7734 44.2874C83.0615 44.1633 83.377 44.1082 83.7199 44.1082C84.0629 44.1082 84.3921 44.1633 84.6802 44.2874C84.9683 44.4115 85.2289 44.5769 85.4347 44.7836C85.6404 44.9904 85.8188 45.2523 85.9422 45.5417C86.0657 45.8312 86.1205 46.1482 86.1205 46.5066C86.1205 46.8512 86.0657 47.1682 85.9422 47.4715C85.8188 47.7609 85.6541 48.0228 85.4347 48.2296C85.2289 48.4363 84.9683 48.6155 84.6802 48.7258C84.3921 48.8498 84.0629 48.905 83.7199 48.905C83.3907 48.905 83.0752 48.8498 82.7734 48.7258ZM84.8036 49.0015C85.1329 48.8636 85.4209 48.6706 85.6541 48.4363C85.9011 48.202 86.0794 47.9125 86.2166 47.5817C86.3537 47.2509 86.4223 46.8925 86.4223 46.5066C86.4223 46.1206 86.3537 45.7623 86.2166 45.4315C86.0794 45.1006 85.8873 44.8112 85.6541 44.5769C85.4072 44.3425 85.1329 44.1496 84.8036 44.0117C84.4744 43.8739 84.1178 43.805 83.7337 43.805C83.3496 43.805 82.9929 43.8739 82.6637 44.0117C82.3345 44.1496 82.0464 44.3288 81.8132 44.5769C81.5663 44.825 81.3879 45.1006 81.2508 45.4315C81.1136 45.7623 81.045 46.1206 81.045 46.5204C81.045 46.9063 81.1136 47.2647 81.2508 47.5955C81.3879 47.9263 81.58 48.202 81.8132 48.4501C82.0601 48.6982 82.3345 48.8774 82.6637 49.0152C82.9929 49.1531 83.3496 49.222 83.7337 49.222C84.1178 49.222 84.4744 49.1393 84.8036 49.0015ZM76.5044 43.9015L76.1066 47.4852C76.0518 47.9677 75.942 48.326 75.7637 48.519C75.5854 48.7258 75.311 48.8223 74.9269 48.8223H74.8446V49.1255H74.9132C75.3933 49.1255 75.7362 49.0015 75.9694 48.7533C76.2026 48.5052 76.3398 48.0779 76.4084 47.4852L76.7651 44.1771H79.3028V49.1117H79.6046V43.9015H76.5044ZM69.6456 43.8877V49.1117H69.9474V44.1909H73.5003V49.1117H73.8021V43.8877H69.6456ZM66.5591 44.2461C66.8197 44.3563 67.0529 44.5079 67.245 44.7009C67.437 44.8939 67.6017 45.1282 67.7251 45.4039C67.8486 45.6796 67.9172 45.969 67.9446 46.2998H63.404C63.4178 45.9828 63.5001 45.6796 63.6235 45.4177C63.747 45.1558 63.9116 44.9215 64.1174 44.7147C64.3231 44.5217 64.5563 44.3563 64.8307 44.2461C65.105 44.1358 65.3931 44.0806 65.7086 44.0806C66.0104 44.0944 66.2985 44.1358 66.5591 44.2461ZM68.0681 45.4039C67.9446 45.0731 67.7663 44.7974 67.5331 44.5631C67.2999 44.3288 67.0392 44.1358 66.7237 43.9979C66.4082 43.8601 66.0653 43.7912 65.6949 43.7912C65.3245 43.7912 64.9816 43.8601 64.6661 43.9979C64.3506 44.1358 64.0762 44.3288 63.843 44.5631C63.6098 44.8112 63.4315 45.0869 63.2943 45.4177C63.1571 45.7485 63.1023 46.1069 63.1023 46.4928C63.1023 46.8788 63.1708 47.2371 63.2943 47.5679C63.4315 47.8988 63.6098 48.1882 63.843 48.4225C64.0762 48.6706 64.3506 48.8498 64.6661 48.9877C64.9816 49.1255 65.3245 49.1944 65.6949 49.1944C66.2299 49.1944 66.6963 49.0566 67.1078 48.7947C67.5194 48.5328 67.8349 48.1331 68.0818 47.6093H67.7663C67.5605 48.009 67.2861 48.326 66.9295 48.5604C66.5728 48.7809 66.175 48.905 65.7086 48.905C65.3931 48.905 65.0913 48.8498 64.817 48.7258C64.5426 48.6017 64.2957 48.4501 64.0899 48.2433C63.8842 48.0366 63.7195 47.7885 63.6098 47.5128C63.4863 47.2371 63.4315 46.9201 63.4178 46.5893H68.2738V46.4515C68.2601 46.0793 68.1915 45.7347 68.0681 45.4039ZM62.6496 43.8877H58.0679V44.1909H60.2078V49.1117H60.5096V44.1909H62.6496V43.8877Z" fill="white"/>
<path d="M25.3779 50.9587L0.0550461 25.5L25.3779 0.0413818L50.7145 25.5L25.3779 50.9587Z" fill="url(#paint0_linear)"/>
<path d="M25.1582 8.27026C25.1582 8.27026 26.2282 12.2538 20.7137 16.6784C15.7616 20.6619 13.5942 27.664 20.3982 34.5284C20.3982 34.5284 19.6986 28.4911 25.8715 23.3222C30.7687 19.2146 30.3435 11.5784 25.1582 8.27026Z" fill="white"/>
<path d="M30.5214 16.4578C30.5214 16.4578 31.5914 20.4413 26.0769 24.8659C21.1248 28.8494 18.9574 35.8516 25.7614 42.7159C25.7614 42.7159 25.0618 36.6786 31.2347 31.5097C36.1319 27.4159 35.7067 19.7797 30.5214 16.4578Z" fill="white"/>
<defs>
<linearGradient id="paint0_linear" x1="0.0488657" y1="25.5001" x2="50.7167" y2="25.5001" gradientUnits="userSpaceOnUse">
<stop stop-color="#F9AC31"/>
<stop offset="0.4922" stop-color="#F3632A"/>
<stop offset="1" stop-color="#ED1C24"/>
</linearGradient>
</defs>
</svg>
