<svg width="270" height="248" viewBox="0 0 270 248" fill="none" xmlns="http://www.w3.org/2000/svg">
<path d="M196.075 34.4242V74.3478L171.962 45.7932V45.6345L98.0376 80.0059V121.833L73.9248 91.3749V91.2162L0 125.588V179.683H73.9248V148.907L98.0376 179.683H171.962V148.907L196.075 178.414V179.683H270V0L196.075 34.4242Z" fill="#EEEEEE"/>
<path d="M98.0366 179.683L73.9238 148.907V91.375L98.0366 122.203V179.683Z" fill="url(#paint0_linear)"/>
<path d="M197.132 179.682L171.962 148.906V45.7922L197.132 75.5631V179.682Z" fill="url(#paint1_linear)"/>
<path d="M0.529236 125.587V179.682H74.454V91.2153L0.529236 125.587Z" fill="#EEEEEE"/>
<path d="M98.0371 80.0041V179.681H171.962V45.6328L98.0371 80.0041Z" fill="#E0E0E0"/>
<path d="M196.075 34.4242V179.683H270V0L196.075 34.4242Z" fill="#BDBDBD"/>
<path d="M251.28 235.627C249.165 236.632 246.733 237.16 244.089 237.16C240.705 237.16 237.585 236.314 234.676 234.622C231.821 232.93 229.547 230.603 227.855 227.695C226.163 224.787 225.37 221.614 225.37 218.177C225.37 215.903 225.793 213.629 226.586 211.355C227.432 209.082 228.542 207.125 229.97 205.486C233.407 201.414 238.008 199.352 243.824 199.352C247.05 199.352 249.853 199.934 252.126 201.044C254.453 202.154 256.515 203.952 258.419 206.385H270C268.942 204.058 267.884 202.154 266.774 200.674C265.716 199.193 264.289 197.713 262.491 196.179C259.9 194.011 256.938 192.319 253.713 191.156C250.487 189.992 247.103 189.411 243.56 189.411C239.7 189.411 235.998 190.151 232.455 191.684C228.913 193.218 225.898 195.227 223.307 197.818C220.769 200.357 218.707 203.424 217.173 206.966C215.64 210.509 214.9 214.211 214.9 218.071C214.9 220.715 215.27 223.306 215.957 225.844C216.645 228.382 217.649 230.656 218.866 232.824C220.135 234.939 221.668 236.896 223.466 238.694C225.264 240.492 227.22 241.972 229.388 243.241C231.504 244.511 233.883 245.462 236.421 246.15C238.96 246.837 241.551 247.154 244.247 247.154C249.958 247.154 255.141 245.674 259.741 242.713C264.341 239.751 267.779 235.733 269.947 230.656H257.784C255.564 232.93 253.396 234.622 251.28 235.627ZM221.245 190.415H210.035L198.824 218.758L187.826 190.415H176.668L193.801 231.502L188.037 246.097H197.873L221.245 190.415ZM154.829 200.304H158.266C161.175 200.304 163.343 200.462 164.823 200.833C166.304 201.256 167.52 202.102 168.366 203.318C169.212 204.587 169.635 206.068 169.635 207.865C169.635 209.452 169.212 210.827 168.366 211.99C167.52 213.153 166.357 213.946 164.876 214.37C163.29 214.845 160.963 215.11 157.79 215.11H154.776V200.304H154.829ZM154.829 246.097V224.945H158.161C161.915 224.945 164.823 224.787 166.938 224.417C169.001 224.046 170.851 223.465 172.332 222.672C174.712 221.297 176.615 219.287 178.043 216.59C179.418 213.894 180.105 210.879 180.105 207.548C180.105 204.428 179.471 201.626 178.255 199.14C177.038 196.655 175.293 194.699 173.02 193.218C171.327 192.16 169.424 191.42 167.256 190.997C165.088 190.574 162.074 190.362 158.266 190.362H144.465V246.044H154.829V246.097ZM116.862 204.957L122.837 221.878H110.887L116.862 204.957ZM100.998 246.097L107.185 231.714H126.962L132.937 246.097H144.306L120.934 190.415H112.79L89.5765 246.097H100.998ZM75.2992 235.627C73.184 236.632 70.7516 237.16 68.1076 237.16C64.7234 237.16 61.6035 236.314 58.6952 234.622C55.8397 232.93 53.5659 230.603 51.8738 227.695C50.1817 224.787 49.3885 221.614 49.3885 218.177C49.3885 215.903 49.8115 213.629 50.6047 211.355C51.4508 209.082 52.5612 207.125 53.9889 205.486C57.4261 201.414 62.0266 199.352 67.8432 199.352C71.0689 199.352 73.8714 199.934 76.1452 201.044C78.4719 202.154 80.5342 203.952 82.4378 206.385H94.0183C92.9607 204.058 91.9032 202.154 90.7927 200.674C89.7351 199.193 88.3074 197.713 86.5095 196.179C83.9184 194.011 80.9572 192.319 77.7316 191.156C74.506 189.992 71.1217 189.411 67.5788 189.411C63.7187 189.411 60.0171 190.151 56.4743 191.684C52.9314 193.218 49.9173 195.227 47.3262 197.818C44.788 200.357 42.7257 203.424 41.1922 206.966C39.6588 210.509 38.9184 214.211 38.9184 218.071C38.9184 220.715 39.2886 223.306 39.976 225.844C40.6634 228.382 41.6681 230.656 42.8844 232.824C44.1535 234.939 45.687 236.896 47.4848 238.694C49.2827 240.492 51.2392 241.972 53.4073 243.241C55.5224 244.511 57.902 245.462 60.4402 246.15C62.9784 246.837 65.5694 247.154 68.2663 247.154C73.9772 247.154 79.1593 245.674 83.7598 242.713C88.3603 239.751 91.7974 235.733 93.9654 230.656H81.8033C79.6352 232.93 77.4143 234.622 75.2992 235.627ZM15.6517 246.097V221.561L32.8902 246.097H45.3168L24.3767 217.754L45.3168 190.415H32.9431L15.6517 214.475V190.415H5.3403V246.097H15.6517Z" fill="#EEEEEE"/>
<defs>
<linearGradient id="paint0_linear" x1="73.9072" y1="135.545" x2="98.0351" y2="135.545" gradientUnits="userSpaceOnUse">
<stop stop-color="#EEEEEE"/>
<stop offset="0.1389" stop-color="#DDDEDF"/>
<stop offset="0.4151" stop-color="#B0B4B8"/>
<stop offset="0.7987" stop-color="#687279"/>
<stop offset="1" stop-color="#404C56"/>
</linearGradient>
<linearGradient id="paint1_linear" x1="171.963" y1="112.751" x2="197.118" y2="112.751" gradientUnits="userSpaceOnUse">
<stop stop-color="#E0E0E0"/>
<stop offset="0.1492" stop-color="#CFD0D1"/>
<stop offset="0.4457" stop-color="#A2A7AA"/>
<stop offset="0.8579" stop-color="#5A646D"/>
<stop offset="1" stop-color="#404C56"/>
</linearGradient>
</defs>
</svg>
