<svg width="0" height="0" class="hidden">

	<symbol xmlns="http://www.w3.org/2000/svg" viewBox="0 0 11 11" id="arrow-right"><path fill-rule="evenodd" clip-rule="evenodd" d="M5.33.63l5.42 4.87-5.42 4.87-.66-.74L8.7 6H0V5h8.7L4.67 1.37l.66-.74z"/></symbol>

	<symbol xmlns="http://www.w3.org/2000/svg" viewBox="0 0 8 5" id="chevron-down"><path fill-rule="evenodd" clip-rule="evenodd" d="M.65.85l.7-.7L4 2.79 6.65.15l.7.7L4 4.21.65.85z"/></symbol>

	<symbol xmlns="http://www.w3.org/2000/svg" viewBox="0 0 7 16" id="attach"><path d="M5.88 13.54L4.4 15.1a1.3 1.3 0 01-1.85.08l-1.47-1.41c-.52-.5-.81-1.2-.81-1.94V4.73c0-.14.12-.27.26-.28a.25.25 0 01.27.26l-.01 7.1c0 .6.24 1.16.66 1.56l1.47 1.42c.31.29.8.27 1.11-.05l1.49-1.55c.42-.44.66-1.03.66-1.63l.02-9.27c0-.9-.73-1.6-1.63-1.56l-.65.03c-.9.06-1.61.81-1.64 1.7l-.01 8.32c0 .26.1.51.3.7l.73.7c.1.1.27.09.37-.02l.74-.77c.19-.2.3-.46.3-.72V4.53c0-.14.12-.27.26-.28a.25.25 0 01.27.26l-.01 6.13c0 .4-.17.8-.45 1.1l-.74.78c-.3.32-.8.34-1.11.05l-.74-.71a1.46 1.46 0 01-.44-1.06V2.5c.01-1.2.98-2.2 2.17-2.26l.65-.02a2.04 2.04 0 012.15 2.06l-.02 9.27c0 .73-.3 1.46-.82 2z"/></symbol>

	<symbol xmlns="http://www.w3.org/2000/svg" viewBox="0 0 23 18" id="tick"><path d="M9.03 10.6L4.2 5.8 1 9l4.82 4.8m3.2-3.2L18.67 1l3.21 3.2L9.03 17l-3.21-3.2m3.2-3.2l-3.2 3.2"/></symbol>

	<symbol xmlns="http://www.w3.org/2000/svg" viewBox="0 0 19 19" id="info"><path d="M10.77 13.39a.92.92 0 01-.56-.13.58.58 0 01-.16-.47 4.74 4.74 0 01.16-.92l.52-1.75c.05-.18.08-.35.1-.53 0-.2.03-.33.03-.41 0-.35-.14-.68-.4-.9a1.69 1.69 0 00-1.15-.35c-.29 0-.58.05-.86.14-.3.1-.63.21-.96.35l-.15.57.36-.12c.13-.04.27-.06.4-.06.2-.02.4.03.55.13.11.13.16.3.15.47a6.4 6.4 0 01-.16.91l-.52 1.77a5.03 5.03 0 00-.13.92c0 .35.16.68.43.9.33.25.74.38 1.16.35.29 0 .58-.03.86-.12l.98-.36.14-.54a1.64 1.64 0 01-.79.15z"/><path d="M11.3 5.07a1.23 1.23 0 00-.85-.32c-.32 0-.63.1-.87.32a1.03 1.03 0 000 1.57c.5.44 1.24.44 1.73 0a1.04 1.04 0 000-1.57z"/><path d="M9.5 0a9.5 9.5 0 100 19 9.5 9.5 0 000-19zm0 18.14A8.64 8.64 0 119.5.86a8.64 8.64 0 010 17.28z"/></symbol>

	<symbol xmlns="http://www.w3.org/2000/svg" viewBox="0 0 48 19" id="long-arrow-right"><path fill-rule="evenodd" clip-rule="evenodd" d="M35.75.6l12.1 8.9-12.1 8.9-.6-.8L45.48 10H0V9h45.48L35.15 1.4l.6-.8z"/></symbol>

	<symbol xmlns="http://www.w3.org/2000/svg" viewBox="0 0 63 8" id="superlong-arrow-right"><path fill-rule="evenodd" clip-rule="evenodd" d="M59.17.46l3.18 3.19c.2.2.2.5 0 .7l-3.18 3.19a.5.5 0 11-.7-.71l2.32-2.33H0v-1h60.8l-2.34-2.33a.5.5 0 11.71-.7z"/></symbol>

	<symbol xmlns="http://www.w3.org/2000/svg" viewBox="0 0 25 27" id="reload"><path d="M22 21.79A12.07 12.07 0 1110.9 2.91L8.86.86a.5.5 0 11.71-.7L12.42 3c.04.05.08.1.1.16a.5.5 0 01-.1.55L9.57 6.56a.5.5 0 01-.71-.71l1.91-1.92a11.06 11.06 0 107.58 1.89.5.5 0 11.56-.84l.02.01A12.07 12.07 0 0122 21.8z"/></symbol>
</svg>