<svg width="70" height="65" viewBox="0 0 70 65" fill="none" xmlns="http://www.w3.org/2000/svg">
<path d="M50.8381 8.92305V19.2853L44.5741 11.87V11.8289L25.4122 20.7382V31.5802L19.1619 23.6988V23.644L0 32.5534V46.5753H19.1619V38.598L25.4122 46.5753H44.5741V38.598L50.8381 46.26V46.5753H70V0L50.8381 8.92305Z" fill="#039BE5"/>
<path d="M25.4122 46.5752L19.1619 38.5979V23.6987L25.4122 31.676V46.5752Z" fill="url(#paint0_linear)"/>
<path d="M51.0985 46.5754L44.5741 38.5981V11.8701L51.0985 19.6007V46.5754Z" fill="url(#paint1_linear)"/>
<path d="M0.137054 32.5534V46.5753H19.299V23.644L0.137054 32.5534Z" fill="#039BE5"/>
<path d="M25.4122 20.7384V46.5755H44.5741V11.8291L25.4122 20.7384Z" fill="#0288D1"/>
<path d="M50.8381 8.92305V46.5753H70V0L50.8381 8.92305Z" fill="#0277BD"/>
<path d="M65.1341 61.0768C64.5859 61.3372 63.9554 61.4743 63.27 61.4743C62.3928 61.4743 61.5841 61.255 60.8302 60.8164C60.0901 60.3778 59.5007 59.7747 59.0621 59.0208C58.6235 58.2669 58.4179 57.4445 58.4179 56.5536C58.4179 55.9642 58.5275 55.3748 58.7331 54.7854C58.9524 54.1961 59.2403 53.6889 59.6103 53.264C60.5013 52.2086 61.6938 51.674 63.2015 51.674C64.0376 51.674 64.764 51.8248 65.3534 52.1126C65.9565 52.4005 66.4911 52.8665 66.9845 53.497H69.9863C69.7122 52.8939 69.438 52.4005 69.1502 52.0167C68.8761 51.6329 68.506 51.2491 68.0399 50.8516C67.3683 50.2896 66.6007 49.851 65.7646 49.5495C64.9285 49.2479 64.0513 49.0972 63.133 49.0972C62.1324 49.0972 61.1729 49.2891 60.2546 49.6866C59.3362 50.084 58.5549 50.6049 57.8833 51.2765C57.2254 51.9344 56.6908 52.7294 56.2933 53.6478C55.8958 54.5661 55.7039 55.5256 55.7039 56.5262C55.7039 57.2115 55.7999 57.8831 55.9781 58.5411C56.1563 59.199 56.4167 59.7884 56.7319 60.3504C57.0609 60.8986 57.4584 61.4058 57.9244 61.8718C58.3904 62.3378 58.8976 62.7216 59.4596 63.0506C60.0078 63.3795 60.6246 63.6262 61.2826 63.8044C61.9405 63.9826 62.6121 64.0649 63.3111 64.0649C64.7915 64.0649 66.1347 63.6811 67.3272 62.9135C68.5197 62.1459 69.4106 61.1042 69.9726 59.7884H66.8201C66.2581 60.3778 65.6824 60.8164 65.1341 61.0768ZM57.3624 49.3576H54.4566L51.5508 56.7044L48.6998 49.3576H45.8077L50.2487 60.0077L48.7547 63.7907H51.3041L57.3624 49.3576ZM40.1469 51.9207H41.0378C41.7917 51.9207 42.3536 51.9619 42.7374 52.0578C43.1212 52.1675 43.4365 52.3868 43.6558 52.702C43.8751 53.031 43.9847 53.4148 43.9847 53.8808C43.9847 54.292 43.8751 54.6484 43.6558 54.9499C43.4365 55.2515 43.1349 55.4571 42.7511 55.5667C42.3399 55.6901 41.7368 55.7586 40.9144 55.7586H40.1331V51.9207H40.1469ZM40.1469 63.7907V58.3081H41.0104C41.9836 58.3081 42.7374 58.2669 43.2857 58.171C43.8202 58.075 44.3 57.9243 44.6838 57.7187C45.3006 57.3623 45.794 56.8414 46.1641 56.1424C46.5205 55.4434 46.6986 54.6621 46.6986 53.7986C46.6986 52.9899 46.5342 52.2634 46.2189 51.6192C45.9037 50.975 45.4513 50.4678 44.862 50.0841C44.4233 49.8099 43.9299 49.618 43.3679 49.5084C42.806 49.3987 42.0247 49.3439 41.0378 49.3439H37.4603V63.777H40.1469V63.7907ZM30.3055 53.1269L31.8543 57.5131H28.7566L30.3055 53.1269ZM26.1797 63.7907L27.7834 60.0625H32.9097L34.4586 63.7907H37.4055L31.3472 49.3576H29.2363L23.2191 63.7907H26.1797ZM19.5183 61.0768C18.97 61.3372 18.3395 61.4743 17.6542 61.4743C16.777 61.4743 15.9683 61.255 15.2144 60.8164C14.4742 60.3778 13.8849 59.7747 13.4462 59.0208C13.0076 58.2669 12.802 57.4445 12.802 56.5536C12.802 55.9642 12.9117 55.3748 13.1173 54.7854C13.3366 54.1961 13.6244 53.6889 13.9945 53.264C14.8854 52.2086 16.0779 51.674 17.5857 51.674C18.4218 51.674 19.1482 51.8248 19.7376 52.1126C20.3407 52.4005 20.8753 52.8665 21.3687 53.497H24.3705C24.0963 52.8939 23.8222 52.4005 23.5344 52.0167C23.2602 51.6329 22.8901 51.2491 22.4241 50.8516C21.7525 50.2896 20.9849 49.851 20.1488 49.5495C19.3127 49.2479 18.4355 49.0972 17.5171 49.0972C16.5165 49.0972 15.5571 49.2891 14.6387 49.6866C13.7204 50.084 12.9391 50.6049 12.2675 51.2765C11.6096 51.9344 11.075 52.7294 10.6775 53.6478C10.28 54.5661 10.0881 55.5256 10.0881 56.5262C10.0881 57.2115 10.1841 57.8831 10.3622 58.5411C10.5404 59.199 10.8009 59.7884 11.1161 60.3504C11.4451 60.8986 11.8426 61.4058 12.3086 61.8718C12.7746 62.3378 13.2818 62.7216 13.8437 63.0506C14.392 63.3795 15.0088 63.6262 15.6667 63.8044C16.3246 63.9826 16.9963 64.0649 17.6953 64.0649C19.1756 64.0649 20.5189 63.6811 21.7114 62.9135C22.9039 62.1459 23.7948 61.1042 24.3568 59.7884H21.2042C20.6423 60.3778 20.0666 60.8164 19.5183 61.0768ZM4.07088 63.7907V57.4308L8.53925 63.7907H11.7603L6.33248 56.4439L11.7603 49.3576H8.53925L4.07088 55.5941V49.3576H1.38437V63.7907H4.07088Z" fill="#333333"/>
<defs>
<linearGradient id="paint0_linear" x1="19.1632" y1="35.1359" x2="25.4174" y2="35.1359" gradientUnits="userSpaceOnUse">
<stop stop-color="#039BE5"/>
<stop offset="0.1642" stop-color="#0A91D4"/>
<stop offset="0.4905" stop-color="#1D79A7"/>
<stop offset="0.9443" stop-color="#3C515F"/>
<stop offset="1" stop-color="#404C56"/>
</linearGradient>
<linearGradient id="paint1_linear" x1="44.5793" y1="29.228" x2="51.0996" y2="29.228" gradientUnits="userSpaceOnUse">
<stop stop-color="#0288D1"/>
<stop offset="0.1866" stop-color="#0B80C0"/>
<stop offset="0.5573" stop-color="#216A93"/>
<stop offset="1" stop-color="#404C56"/>
</linearGradient>
</defs>
</svg>
